<mxfile host="Electron" modified="2023-04-02T11:13:48.671Z" agent="Mozilla/5.0 (Windows NT 10.0; Win64; x64) AppleWebKit/537.36 (KHTML, like Gecko) draw.io/21.1.2 Chrome/106.0.5249.199 Electron/21.4.3 Safari/537.36" etag="uZUVBMtGXOG_ufP2nrKv" version="21.1.2" type="device">
  <diagram name="Seite-1" id="L673sLiEa722Hcw_5gnA">
    <mxGraphModel dx="1793" dy="1088" grid="1" gridSize="10" guides="1" tooltips="1" connect="1" arrows="1" fold="1" page="1" pageScale="1" pageWidth="827" pageHeight="1169" math="0" shadow="0">
      <root>
        <mxCell id="0" />
        <mxCell id="1" parent="0" />
        <mxCell id="RC3qw60LJG133xvtzrwB-2" value="" style="shape=image;verticalLabelPosition=bottom;labelBackgroundColor=default;verticalAlign=top;aspect=fixed;imageAspect=0;image=data:image/png,iVBORw0KGgoAAAANSUhEUgAABgAAAAJYCAYAAACkfC3iAAAAAXNSR0IArs4c6QAAAARnQU1BAACxjwv8YQUAAAAJcEhZcwAAFiUAABYlAUlSJPAAAP+lSURBVHhe7N0HfFNlFwbw093Slra0jLL3kiGgCIogoIKKOFBBQMTBUFTcioCIuFBUXJ8DERXFjYIoIihT9hJk703L6t7ju8/pvSUtSZtCC2n6/H9ek9ykGTc34eac857XI9sgRERERERERERERETkVjzNUyIiIiIiIiIiIiIiciNMABARERERERERERERuSEmAIiIiIiIiIiIiIiI3BATAEREREREREREREREbogJACIiIiIiIiIiIiIiN8QEABERERERERERERGRG2ICgIiIiIiIiIiIiIjIDTEBQERERERERERERETkhpgAICIiIiIiIiIiIiJyQ0wAEBERERERERERERG5ISYAiIiIiIiIiIiIiIjcEBMARERERERERERERERuiAkAIqJzkJqaKhs3bpSUlBRzDRERERERERERkWtgAoCI6BwkJSXJ4sWLJTEx0VxDRERERERERETkGpgAICI6B8nJyRIXFyfZ2dnmGiIiIiIiIiIiItfABAAR0TnYt2+fZGVlmZeIiIiIiIiIiIhcBxMARETnYOvWreY5opKBBFNsbKycPHmSySYiIiIiIiIiKhKPbPatICIqMnx1YvLfn3/+WXx8fGTw4MESERFhXkt0brB/nThxQvcxLOnp6eLh4aEJgMsuu0wuvfRS8ff3N29NRERERERERGQfRwAQERURgrNHjhyRhQsXmmuIiteWLVvku+++k+XLl0uLFi3kjjvukCuuuELnnFiwYIGuJyIiIiIiIiIqDEcAENFZS01NlaSkJF0SExN1qVy5slStWlWvR7VyVFSUHDp0SCuYg4ODpVq1ahIWFqbXFwUeY//+/XLgwAGddBeCgoKkQYMGUqtWLfHy8tJ1zsrIyJCdO3fKwYMHtb0KvgoDAwOlXr16ufe3ePFiad68eZ7K/szMTNm8ebMG/9GSBX9njQAIDw83b5UDFdtERbVt2zaZMWOGpKSkSLdu3bTa39PTU7799lu9DkJCQuTRRx/V80REREREREREjjABQERn5Z9//pH58+drkN/2a6RLly7Spk0b+e+//2Tt2rUauEeAHBDQRAUzkgCXX3651K1bV/z8/PQ6R5Bk2LBhg6xYsUIfB0F/K9CO4D2SAQjW4/5atWol5cqV0+scSUtLk9WrV+uCv6tRo4ZUqFBBA6wxMTGaZMB5JAji4+PlpptuksaNG+vf/vvvv/LXX3/p6wDcxnrt3t7eZwT80aJl4MCBev9EzsD+/uWXX8rhw4d130TlP/Z5wL63bNky3eeQqOrbt6+uPx+Q7ELC7OKLLxZfX19zLRERERERERG5OiYAiOisoAUOqvFR9b9+/frcqnxUzCNAjor/iy66SEcDhIaGatDy6NGj2s8cyQEE3xFYv+qqqxyOCECAfd68ebJy5Uq9bffu3aV8+fLmtTkJBVTjIxGBRANGA+A2eDx78JxQ1Y/g/5VXXiktW7Y8I2GABMWaNWtkyZIlGtC3TQBgNANeN14L7mvRokX6+vFaOnXqlBuotSAp0LBhw0KTHESWHTt26LwS2Lfbtm0r11xzje5fgH1u3bp1uZ8tR/t5ScDnDMmH3r17n7GfExEREREREZHr8nrBYJ4nInKa1c6ndu3aGgRHMgBOnTolkZGRct1112mFP26HEQCoGkYlPNYhoLlr167c9kB16tSRgIAA/XtbqPBHv3NU7SckJOhj2VbTI8COlkN4DPRMR5Uybte0aVPzFnlhUtXffvtNq6cRWLVXyYzniqRFdHS0vhYE/60WQAh8VqlSRV8fkhYYmYCEAZ4HEg+4X1xnLXhuuI7IWfhcbN++XZNP2I9r1qxpXmP8g218bvCZw7rzPQEw9nWMkGnWrBlHABARERERERGVIpwEmIjOCQKVthXBCIwjuI4e5fYgeIie5qiMx98iAYB2Qqhqzg/tUNBzH1ARjaB8fmjXg1EH1igDjC5Alb496J+O+8Ft8XeOIGjfunVr8xLR+YPPAfZjfDasyn9XgMQEEREREREREZU+TAAQUbFC9XxhLUJQ7Y9+/WiNg2Dnpk2b7AbtUW2Pqn+r0h+jB+xBsBQJBYujYCVGKgDamaDHOh7bEVTwo92QNX8BUVmFzyZG6xARERERERFR6cMEABEVKwTjnYEJTq3++6jKR1/+/NDap0ePHjJkyBCd8LRSpUrmNWey7eVvBfrzQ1Af0Nrnhx9+kKVLl2oLH3uQpMBj2rZgISpr0H7rzz//1Mm+iYiIiIiIiKj0YQKAiC6IwMBAqV69unkppz2PvSAjAvvowY9qfCQXMDEwJvzFpMPo+Y9KflT8Hz9+3PwLcVjZj7kGMJIA0M8cEwy/8cYb8sEHH8j06dNlxYoVWu2MBALuA22MOAKASgvsswWNaskPn7eCbo/gPxJzaNNVHPBYRUkk4LbO3t7RfRflPixoO4akJJKDaENW1L8nIiIiIiIiciUexo9m56MFRER2LF++XObMmaPn0dqnZ8+eer4wCLj/8ccf5iWRBx54wG6VP76mYmNjZd++fTrZMAL/CNKjhRASBDhFAgDJALjssst0Ut78cD87d+6UuXPnyrFjx8y1eaHvOhITmOz0oosusjs5MSAJMXnyZH0uSBIMHjw4d7JgImchuHz06FHdv2Hr1q2yceNGnaPi4osv1omlbWHfxMgYzIeBfRgBagTqrQUjVmzbYQH2+z179uhnBrfB32CuAZxv27Ztnvk6cFuMkMFzwmTEmFwbt4Pw8HC54oorzpiAGJ9BPC/bOQvwWPi85n9++FvcR354PVis21nP0d7rATw3K0Bv/Q1eR5s2bfR6vIbdu3fr9wISh5g8uUGDBgVOYGz9DZ4H3g+8N7g95jXB36MFGSdAJiIiIiIiotKGCQAiOmdnmwBYv369zJgxw7wkMmDAAK3St4WvqGXLlsnatWu16h9BRjxGo0aNdDJfBP8RLEU7n4ULF+rfOEoAAIJ6uJ9///1XJww+ceKEPkZ+COoj4HfzzTefEfAEJgCoOCBwjc8O5qUAjHDBAtiv8k8EjP0R+z6SWGvWrNH92VqwH1955ZXSpUsX89Y5UNE+ZcoUTRjY3h7uv/9+DW5b8Hxw30hCILhuC58zPKf8bb7QzgvPy7YNFxIO3333XZ7Hw/NDgg+JvvzwmBhtYHtbLB06dJCuXbuatzrtrbfe0ueH12bdHgF+tO3au3evJhax7TByCCOE8NyReLj88svP2Kb4+1WrVun3GCr/a9WqpQlAJFqQCFm3bp0mBDAnCV6nownOiYiIiIiIiFyR1wsG8zwR0Vk5ePBg7sS76LOPAKUz9u/frxX5FlQjI+hmQRXxrFmzNAGAwCTa9yDA17x5cw3+IzCPCYIR0MN9IfAHqEauX7++ns8PwUv8HSYXvuSSS6Rx48b6nK2JixFIRAAWgUW0CcLtUYWMAKItVCcjMIgqZDw+Ko9tA6CA54zrWTVMjmC/wv7VunVrufTSS3VfwucJ+yESWbfccouutxYE0HEbfBYwQqVixYraogf7GiB4nT+JhsfAuiZNmui+jzZXCHoDHhdBcgtui4A+9uf27dvrZwnBfHwmEAC/4447NIhu+5xwv9j3bRMD+DxhPZJoGJmDhBmg9Rf+Jj+8HnwW8fowcsBKgmDb2Jv8G8F+3B7bCUF6wAgFfJZ/++03vQ7bDgk+6/kjYYDvJiQNLViHVmCLFy/W549kw9VXX63PB98x1mgg3A++qzDyAKMy8n/WiYiIiIiIiFwV5wAgogsGQTULKosRzLQgwL5o0SLZtGmTBuYQ8OvTp885VdkjUIpEAYKGgGAngpoIdt54441aDX3bbbdpIgJBQiQBMDcBEhFnA8HCX3/91bxEdCbs22gzhSA8FtvgNM5b660FnxNAgB1Bauy7CJIXBm1sEMzGCAHcjyP5n49tYB+JByTorOusBUF96zYWPE8E89G+B1X8hcHrwUgEK6FQGHwPINlx/fXX524TfK4xCggJA1T7W68FzxuwPa3zFgT+MboICZHOnTvr6KL8yT4kTTp16qQJAbQJ+ueff84YHUFERERERETkqpgAIKILAq02rIp9QNDOCuQBAm1o04PAHAJwqFS2qvTtsYL6+aGHOSr1EczfsGGDthmxqqXzQ+APIwNQAWz1KUfbFFTxnw38HV4HUUlBkLsoLWkQBM8f4C5pRW2Zg4SCs/CdYY2wwcgGJPlatmypI4OgRYsWGrxHogStkWzn9EByD/OQYHQAkg/2gv8WJBwwegDfR/hOiY+PN68hIiIiIiIicm1MABBRsbJaixQGgbqEhAQ9j2Bdu3bt9LzFmkAUEBBEYL4gjqr00X4EVf94XkgCoL1KYRX9eD6oWkbiAYkFe68JgcL8Vc/54e8Kuw3RuTrfAf2iOl/PD59rJBJtRwnhM4zPco8ePXQEhPV5RBIQI4ysVkMYeZB/dEB+mJQZkLxEWyEiIiJyb5g3DL8dULSEQgMcAxAREZVGTAAQUbE6fvx4oQF2BPYxAS8OohEcRC9z9O62hRZAtgoKIiKYt3v3bvNSXgjg2wbhUZGPyl9nICCIFie2VcMWVB5b7VqQWMj/mvG46HuOvyei86OwRKEFP+Yxxwfgs5z/+8cezDFgjSxAey8iIiJyTzhO+PDDD2Xw4MHaHnTAgAHSu3dvGT16NIsAiIioVGICgIiKVVRUlPbURlDckfXr12sCABXy6PuPvuS2vc8BE5FaQX+00kElvyOrVq3S26DaF6zAHiAIj/W21b2o/D1w4IB5yT6MQMDfos+4vQk/cX/WZKt4HTt27NDzFiQ5oqOjde4CIjo/nJkPAZCotEYY4fsBCTzMSVLQgu8V67vA9juGiIiI3Ad+cyDw//jjj2vh0JtvvqnJAPw2mDhxogwZMsS8JRERUenBBAARFStMlIme+ytXrtRhs1YiAKfom718+XKZM2eOVuUjWNe/f3+trM0PE5yiJzcC7QjEL1myRIN2VssO6/6WLl2qj3f77bfnBv9w4L5r1y4N8u/cuVNbf9iOIMBj//LLLzpqAKMQrBY/qNrHZRzgY/JetBJBaxCrx3h+7du3z63wx3wFmC8AIxcQWERCAJfr16+v1xNRyXNm/gB8zm2/m/D9MmPGDPn6668LXfB9hAmVz2UyciIiInJNSPBfd911Mnv2bLnkkkv0+ADzgmEOMbQUxe+QuXPnyqZNm8y/ICIiKh28XjCY54mIzgqGySLgDqh4R0U/KvwRFEcVPALyaJmBYD3Wo7q/bdu20rVrV4cBOwTaqlSpou13UN2PYD6G3CKobt0fRhogYI/7QfAflby4DgfvaPODXp3o242JQHF/CMoj2Ne9e3et5MXBPHp6YtQC7h+vAfeJg/pKlSrpZMBIHjiCxAAmD42NjdXkBO4fp1u3btWJQrEd8Lw4DwA5y9rPEaRGOxtnWtogkWWNaMGIFWtkiiMYMYPPAWBy7YLaVOGztHnzZk1s4XbNmjVzmBBzBJ8PjPoBfN6RVCuI7evB5wd9/QuC7xWrZRgm/C3s84Zta/sYSEBieD++k/B94cxifacQERGRe8Dxwbhx4+Snn37SY56vvvpKj6sAx0M///yzFvlUrVpVhg8fLsHBwXodERFRacARAERUrFBpj4DdLbfcIjfccIMeQKNSHwfVqOi/5557NNiGIKC93vq28Leournzzjtl4MCBWomD+0e7jqCgIA3Q4zGQUEDQr169enLXXXfp/d966606KgBV+ujxDU2aNJHrr79eTxEoxPUI5GEEAJ4jKoJRsY+/v/HGGzW4Xxg8ttUbFIFBBAWRPECfUMxtUNDcBUSlHT7XJ0+e1CHypQU+k2g5ZiUK8LlHQhDfN84u1ncKERERuQcUDiH4D/jNYluE0aFDB/n222/l+eefl+nTp2uREhERUWnCyBQRlQgE93FwjAB+jx49tOq+TZs2OtkmqoCdDYwjSIcKG2vUAAL4CPrjQBz3ZZtEwH2GhIRo4L1hw4Z63vZxkJjACAWss1p5IBlw7bXX6nPEKZIMqAjOPyeBI3h+CB6iQqhjx4763FD5X6FCBVYIk8tBwL44IXiOCny0/CouVkuukoTPvhXER0LRai1GREREZRNGAmPUIqCoCMVGFm9vb20NNHbsWLnssssKHW1IRETkapgAICIiKsWK8iMUQ9eLEmAvjh+4Rb2PhIQE81zJwegea0LftLQ0HcXgLLQBQOswIiIich9oj2gVBKDdobPFSkRERKUB/1UjIiIqxaxAtjMw3wXmzXAWgvcFBfAxogAJhYJGu2A0jbM/ojGiwJpPpCRZo38smJvEGXitmNtk8eLF5hoiIiJyB7ajJIujAIKIiMiVMAFARERUiqFllcWaDNceBK/37duXJwFQWEsgtN/CsHeIi4s74/5xGettn0N+aLVjTfZtJQzswXWYQBuTfpc0/LC/6qqrpHLlynoZCQBMClzY9jhx4oROMI75PoiIiIiIiIhKAyYAiOicYcis5XwE74jcEYLPaEdjBaFx3pl2PWhng4lp4eDBgw7/Zv/+/bJnzx4N6lvQzqYgmEfDCpJjouyjR4/qeQv+HgkAzNHhiL+/f+59FNRuB/f9zz//5Jl0D714CwrKY6i+bVLC9ruoMBje37NnT6latao+xqxZs3QbOXq848ePy+zZs3X0ACYLJyIiIiLCsSOOb3fu3KnHs46OJTHS9dChQ7Jjxw45depUgce4RETFzcP40uG3DhEV2bFjx7SdSHR0tKxZsyY38IZgX+vWrXUCYATKqlevruuJyD4ElvF5QnU5PktWUB6B+hYtWmjwHC126tSpk2fSa1tr166V3377Tc+jsh0T1CHADQiQb9y4USfqvfzyy/U8fqAAEgeY+Do0NFQnybYq9W3hMz5lyhQdOYDJrfv27asV/wjO//zzzxIRESHdunXLnVQ3PxxmbN68WQPsSADg++Hqq6/OM9E2quoR/G/evLle/v333/UUr7dly5YapK9YsaJ+rwBGCmA+A/zdli1bdB1gMu6mTZvq68B3EbZZQe2H8Nzw+vB4GAGAbX7ppZfqNsHfA+YkwPuyYcMGvd9evXppYoSIiIiKBsckKEY4cuSI/vtrLQ0aNJDbb79djw3w7zv+XZ4/f75OxHvrrbfqv8sFQfHDr7/+qol6tOrDMQuOGdq2bSu33XZb7vFFfjj2wjEYjgeWLFkiTz/9tB6H9enTR5599tncYynAsVJkZKR5KS8cK+Dx586dq8c8ON7BbTt06CD9+vWTmjVrmrfMC8eAu3fvzt0O1m+rMWPG6OPB9u3b5ZtvvtHr2rdvLzfddFNu4Yc9eC0Y2Th9+nRZunSp3h+OaTB68frrr5drr702zzGYLbw3hw8fzn0+2DaJiYny6quvmrfIKbb45Zdfcn//4TgQEyTjGPNs4LnOmDFDli9frsFxjNLEe9emTRvp2LGjHtdao1ELgufy/fffy99//63HhtgnUKCC54X3AAUzJeWTTz6Rd999V/cDbFs85qOPPqrHsBZss/fff1+3MQpYcCx5880363tdUCtNIqLiwgQAEZ2VFStWyLJly/QgzV6fTBx04WD+hhtuMNcQOQeBZQR+bX90uTP84MFi77OEf6Kt5c4778wNgOeHiiIkARDkxw81bL9KlSpp8BsVRvihceWVV+oP4O+++04TALjOdsEPZATQ7cEPsj///FN/qOKxkNzD4yAo36NHD71cGPwgXrhwof44wuMhOYgfPHi/MXLICrzjhzt+wGNb2D4//BDs3Lmz3td7772nz6OgbYYfzvjB5ygxYQu3x3caHhsjHbC98Pf4W2w//JjDtsMPurKyXxIRERU3HH/ccsstGgRFkB7/lkP//v3lww8/1PUInOIUxzHr1q3Tf5M/+OADGTx4sB4P2MJ9/PHHHzJy5Ej9G8zvg6IEHJ+sX79eFi1apBXZ9913n4wYMeKMIPA777wjL7/8sj4PJCdwjIJjAvxbj6S/7TEGjikQ5LWF28+ZM0eee+45fZxGjRppgB2FEqtWrdLjHhxHDBs2TJMLCJbb3ufo0aP1PnEcZDuiESM6cSz3wgsvyA8//KDPG9sOxyhIiCDgnP/YC68BIxmff/753AINJAxwfIXqdBSKoPK8YcOGuj1xzJX/GAlFGrgNgunWiFI8Dv4erxWP++mnn+pxUb169XT7YzsjoYOiFbyWK6644oz3KT/cN4L02PZ4rkj0NG7cWJo1a6bPCa9j7969er94Tm+++aYWeNiDkag4tkUgHcemCLpbSQ78VsWC9UjoPPjgg7mJleKARA/eQ+xHXbt21cQMkhB4fXj8jz76SBMveGzsi9hmOJbE60WSC4Us2PexXa3CEyKiksIEABGdFRwY4mAVFRn5D/LwtYKDdVxXUIUKkT2o7sZBsG0rGHeGHyX4LCEYbq8CCD/obAPSBcGPIFRsIaiOHyX4bKLCCIF9a/QAfmzgByR+3GLBfeIUP7TxY8URPE9Un6FaDs8Jzwc/ZAp7TrbwQxE/5lBdh/P4EYwf2KiMs6rq8Rj44Zf/+eF66zaoSMNrw3dM/gQAfnRZAQWMWMh/fUHwvYbthx/reH54DHyHIfGC11uU+yIiIqK8EETGiD/8W49qeQS3UfGPIOgjjzyiCyq+hw4dqoF1nOJ3BYLWCxYsyFOBj3+nX3zxRfn444/1MpIA9957b26AF3+HIDMCtKi+vuaaa+TLL7/U4x0Lqu9RYY/boqL99ddf12MkVO4jEVGuXDnzlqKFC7YjCRDwHzdunEyePFlHKuJxUKxhBXJxPLJ69Wp57LHHNBmAEQ4oYMCxiQXV75s2bdLjHgS5sV0Ax8IIHiOp8fjjj+vzw6gEPCaO1VDlbltxj+MeBPifeeYZfU1IEowdO1a3mwXHiAj8o5ofIx7xXFCBbvs7Du8JngO2xcSJE3UdEgC4z5deeknnkho4cKA+NtbjcfEasQ7PGcFuBMBRBOYIEh1ff/21Bv9xvyhAQXKnXbt2eUai4vmiyGTx4sV6HV6f7bYDHLMhsYL9CMdqeI54TdYxL54fRkE8+eSTWuRx1113aRV+Qce7RYEgPu4TIytwv3jvsZ+gYAawnXEZzwP79h133KHJKbx+JA1QvIPXhG2G/Z6IqEQZ/5gQERG5DOOHYfa8efPMS0RERETkbtatW5ddrVo1FCNm9+rVK/vKK6/MHjp0aHZiYqJe/8knn+h1WOrVq5d99OhRXQ+ZmZnZDz/8cLavr2+2j49P9nfffZednp5uXpvXjh07slu2bJnt4eGRfdddd2Wnpqaa1+Q1e/bs7PDwcH282267LTs2Nta85kwJCQnZjzzyiD52SEhI9pdffunw8bds2ZIdGBioz/Wll14y1+aF1zNo0KDc1ztp0qTsrl276nOH5cuXZ1epUkWvw2Pisi1sy1q1aulr7NChQ/axY8fMa/JKSkrK7tevn96uRYsW2fv27TOvySs5OTm7atWq+nhhYWHZI0aMyB4wYED2wYMHzVuclpWVlT1hwgS9Le73jTfeMK85E2779ddfZ0dEROjtb7rppuzDhw+b1+Y1derUbE9Pz9z7nTlzpnlNDrw/PXv21NtUrFgxe9GiRXr/9qxYsSK7UqVK2d7e3tnjxo0z156buLg43Za4T+t9AmsfspYaNWpkL1myRN9j2Lhxo+4z1vXYN7744gu9joioJBU8NouIiOg8QlUQqmZ27dql1U5ERERE5H5QQW6NIkSVN6rdUdFvVd2jMhyte1q1aqXV0pgTCXB8iHmFUEWN0Y6dOnWSLl26OOwTjxGlqND28PDQdkGoCD9XmC8ArXBw3IrWNGhr5Ojx0doGIxzwXDFiwJrryRaq8G3bE+H1otc/RloC2vWgzRDa7KDKH61yLBi9+PDDD2t1Pu5n1KhR2v7HHlTGP/XUUzriFHMboXWOPahkR6U6YATot99+q49hr48+tiva/gDeG8w94Aja+rzxxht6rI/niPt0NK8C4L4B+4nt6ABU1GM0B0Ys4DFvvPFGbRVk3T4/tIbCCBCMqMX7hpEH5wojJdDWB/dbv359XYf5pDBS1oIRrKj8Rysma6QFRoxgpK4F70lB24CIqLgwAUBERC4Dw7kxvBkH1fZ+IBERERGRe0ErF7SRsYLOgATBpEmTtB2N7ZxiaNGD4D/60iMwfPXVV5/RGsYWAvNoIYM2ggi84v7OpcgEQX+0G0LgHZCkQE/3gvTt21eD7mh3NHPmTHOtY2iVhPY3VkAbf4tgOfrtI4lgGwz/6quvNCEBSBAgIF0Q3MaanBatZwqDxAW2H9r7OIIWSBYU8Tjy+eefayseQDsltFpyBAkQtD9C8gZJDcxlZUErSOwDaKGJbY99wHab5Ifb4DWg9Q/aPKJt0bnCvFuYqwHJB8u8efPMczmwz2EOKyv4D9j+ti0/0bIIz42IqKQxAUBERC4DP3hwUI++qehVT0RERETuDYFuTNyaH9bnr+pGkchff/2l5xHYveiii/IEWO3BXEgYWYBgNiYWxvHm2cJcBLgPS/fu3c1zjqFyHhMDQ0EV8pYaNWroc84v/7ZAABwV7RYE/wvbFrgPBKUBrwMjLwqDiZUdjXAA24A2khz2IGHyv//9Lzf5ggRHQb340T8fPf2nTp2qk+hao0Vg48aNmsgBBNltR0TYg9ds7QNIIOF1YzTAucBrxugTTP5r+fPPP81zOTCPFPZPW5gnAqMXMDE0EjATJkzQ10pEVNKYACAiIpeBqiHrgByTsiERQERERETuC+19bKvIC4KJc602KwgKI6CM1jIFLQhKW0Fq/C0SAWcLVd7W8SmqzjEiwN5j2i4Y4YBANaBVT2Euu+yyQgP5gFY2R44cMS+JjqCw9/j5F2vEBFrpoIq9MGijdK7QesmaHBesUQgFQQsdPFfb4D8sXLhQtzvgfXXmPcDvCyQxsL9g9Ij192erd+/eMn/+/NyJljGywEpKWNAeynbSaUB7JYwIwaTBmBja2i+IiEqah/EFyCbLRETkEjDU+/Dhw3oeB8QDBgwocFg3EREREZU+CIRfddVVGpxFj/Y5c+Zo5XthME/AmDFj9Dz6p6N9SmEteBCwR6AcQWBUbI8dO/aMqmvMD4Be/UgQYP4B9GpHBXd+aEf0+++/63k8PtrPFAaBdoxcQOKhbdu2ear2LXhOL7zwgp6fOHGiDB8+XM8XBBXnCCZbCRHctzVXQkFQBY+/QYAdFfbY/vmh5Y/Vrge97m1b8OR36NAhqV69up7H8bu9Np7o/f/000+bl0R27tyZO8dBUaE9kNVKCe89KvELS5hg2+M9QPirX79+un3x+osL5rHAfoNkj+W9996Thx56yLxERHRhMQFAREQuAT8WcKBsVVVhWDD6auYfOktEREREpZttAgDHegjAW0HkgiCIjGAyoLXON998I3Xq1NHLzkDAGEHq/O10nE0AINiMgDjgca3zzsKoAcxvkJ9tAgDV4WgRU5hff/1V7r77bq0+B/TF79ixo553BoLmSBjYtvCxFHcCAPMmvPLKK+Yl0ZEH9iYVdgaSLlYbKEzAi0RI/lECjuB9x/ta3G130N4IcxbYtkDCaOYGDRqYl4iILiy2ACIqhVC9gioWHKgSuQv0/Ldt+YMDaOznbANE7gCVZxgajh+859J6gIiIqCyznSgYEHBG8NnZJTQ09Izgf1HYPn5iYqIGse09jqPFXvD/bCGIbdubH+ftPaajBW2X7AX/SwK2uy1su7MVERFhnstJYmCb2nt99ha8X8Ud/Mdvls2bN+cJ/tetW5fBfyJyKUwAEJUi6FWIXo9z586Vb7/9Vg80iNwBhkbbm/T36NGjkpKSYl4iKr0w4BLf31999ZXMnj1btm7dykQAERFREV166aW5QWsEXG1brpwPl19+uXlO5NixYxIXF2deOv8QZLZtf4S5tFwV5jWwtWXLFvNc0dm+B/idgPfhQkJLpfy/Y+xNak1EdCExAUBUSuCA7rvvvpOffvpJVq5cqQeb7OBF7gIH7rYTg1lQLZ2QkGBeIir9EKzAkPoZM2bIF198IRs3bsyd+JqIiIgKhr7xjRs31vNJSUly4MABPe8M3B7J+HMZXdqrV6/cqnv8Flu/fr2edwYmn7VX8HK2UM3epk0b85LI2rVrzXOFwzZYtWrVefs9iQSA7UTPS5YsMc8VDs8RRUGWzp07546kwHu6f/9+Pe8MtCcqyu2dgd/l+QvzmAAgIlfDBACRi0JAKDY2VqsjpkyZolWjSALgIIfIneCgHgfiycnJ5prTrCG1RO4E+zwq1jDh9c8//6yTAW7YsEF/lHJUABERkWPoWY+JeDEKAL+LVqxY4fRo0U8++USeeOKJc6rar1Wrltx11125bYQwKtuZhAJ+22Hi2fvvv99cc+6wDdB3HpMRAyYntuYDKAwC8JhMd926deaakoW5vfD6rdEbs2bNyp28uCDYtnjPbrnlltxkRc2aNaVbt276HuDYCcVxzrwH+PtHHnlE3nzzzTztes4Vkjo4prOgRVHz5s3NS0REroEJACIXg2rn//77T+bMmaMTOf3444/FXqVA5EoQ8MREcI6qoFEtjfZXRO4IP0ajoqI0EYARAfjxjh/jqBK0fugSERFRDl9fXxk4cKA0adJEL2NONPx2KszOnTvl448/1slsz7UHPCYixsTF8NtvvxVaeY9/z5ctWybz5s2TIUOGmGuLR/v27eWxxx7TUQlIiLz66quFFhOg/z4SF40aNZJmzZqZa0seJlm22vdg5AZGtxc2ChKjFH744Qe57777cpMumMQX27FKlSr69ziGcmYkyMKFC/U9wD6A/ai44He7raZNm9qdQJqI6EJiAoDIBeDAZceOHTJz5kz57LPPtCJi9erV2hblXIaoEpUG+BGCBIAjqOxx5Z6mRMUF+zoSXpgjYOrUqZoA3rRpU7FWqREREbkC/Ntm/c7BecwH5Sy0AMLoOUzIi0IpVNUXVDC1Z88eufvuu6VChQpy55132p341vY5FPZ8MLnruHHj9P4OHToko0aNKnAuAjy3J598Urp06SJ33HGHuTYv20lxizpBLkYB3H777Toh7qRJk3TkeEHP//3335c///xTXnrpJYeBcNvnUNgIdNt2nQVtOwTssd0iIyP1/pGs+Oeff8xrz4TfwqNHj5YWLVpIv379zLWiiYAOHTrIxIkT9fkjATNs2LACtxsSMEOHDtX34Prrr89NJhQHJBVsMQFARK7II5vlZUTnHaoycKB05MgRnQgSFSmc6JRc3YMPPqg/tIobhm6jeqsgDRs2lN69e+sPm+K0YMECrQYicmWo6qtTp45WO2LYOyb8w1B6IiKi0gS/gRAMR6AWQer//e9/GlzGv3MPP/yw9tdHUL1cuXLaaqcwCPwOHjxY2+jVqFFD3njjDe01b02Mi8lZ16xZoy1f8FsLRVaVKlXS6wDX4/cYEvD4W1SSI3iN54DAc8eOHbW9Dlq62DsGRvU/2trgNSFIPX78eA3+4vkD2rkuXrxYHx+vB8F53JcFSQO0wUG7SwTxrSQG/r1/5ZVXpH79+hrgRu9828l+7cF9Pfroo/qcEOLB/SHpgUC0j4+PbnsU1GC0IV7n66+/rkF122Nrq90sAtr4ewva7YwcOVKfO45DAgMDc+8P7ZTee+89HbluefbZZzXRgW1nzddga+nSpZq0wd/jeAbPBT3zsd0RmEcSAW11sD0xR9j333+vj2sPCujQIghJnksuuUS3m/UeIMGE9/bvv/+Wd999V+eP+Oabb4q1+h8tTPHeWMksvGYkJrBfEhG5EiYAiM4zfORwIIIJqDBUERMasdKfSoOSSABgv8dw7IKqpgA/XvAjxfZHW3FgAoBKA/w4x2R3qJyrXr261K1bVz+LxVm9RkREVNLw+wdBaQR18W9Y/sIO/E7CyGgE09H2xRkI/E6bNk2LSVBYhX8nEejF/W/fvl3vD/3j0UIGyXRbc+fO1WA1gt54Lvn/XcVxKv4ex8AIrttjBdUxeg+Ph7Y6CPbjtSCI7e/vr4/ft29fqV27tvlXOVAB//nnn+tj5x+VgL/H4yPYPmHCBLnqqqvMaxxDUB7B/enTp+vxLYLrCIaHhIRoogHbCgkSjIJAUB+JAVuojkcvezwXe9sCLTkx8qJTp076XiJoj/uw99yRSMHfYJvYg9/BVutDTKSMUQHom4/7w/6B54v7x/uGJIKjYx48xsaNG3UfwKiGgwcPauIECSE8X4ykDA0N1YTEPffcI+Hh4eZfFg88BkYU/PXXX5rIwuMgcYEJmomIXAkTAEQXEA7SUI2C6hO0AMKEv4UFQm2hsgE9MInOBwQgcWBbnPBDBK1OCvunCD8s8COgbdu25prigQq0woY1ExUHfN/Pnz9fAwXOwmcOgQQsOI8gAqrWHP0IJiIicmUIlqLiHsd99gLuVuDYqnp3Fv4GQWP8jkI1PQqs8G8m+tujchwTB9ur+sZxIP4OHCUAsCCAjn+HHcHrwv2gqAsBZ8ztg99pCGgjGYDHt9d2CEFu/A7EY2OxhW2BxwYk/a1RBYXB3+E+8VzQYhNJETw/bAfMW1DQaAIE5fGYjrYFtjNeC54L7hPBdtzWUfICS/6kiy3cB7YBniveN+wbeN+QtMB2Q+GDsyMecZyF+8F7jzkhMJcSAv9IJuE1YxsW9+8YCx4TI01QsIR9rqB9hYjoQmECgMjFoI8kDiBwwIY2QTiYcQQHbxjySFQa4Z8fVCg5M3Eb4MdAz5492fqESiUMZ8cwdfzAdQQ/TFHph6qxVq1a6Y9mewEDIiIiIiIiImcxAUDkgvCxRM9I9IFEIgBzBKC/Yn5MAFBphuooDNe1t2/bg2qj/v376xBhotKmoAQAgv5o64NqNywYns4qfyIiIiIiIioOxTubIhEVCwR+rCGL3bt31zY/nTt3LnTyJ6LSAkku9ATFKBdnoVUPJnsjcheo+EdbKyS2evToIW3atNEJ9hj8JyIiIiIiouLCBACRi8NESOgj2LFjRxk6dKhOAIXLJdXDkOh8QM9VJACs3qbOWrdunY6OISqt0CsXCV5Mwvfwww/Lddddpz1u7fUmJiIiIiIiIjpXbAFEVAqhZQr6pu/evVsrR4lKG0yQ9vPPP+tkYkV16aWXatCUVdJUmqAF0JIlSzQBgAniWOlPRERERERE5wMTAESlFCqn0RKFbYGotME/O5MmTZIjR46Ya4oG1dN9+/aVihUrmmuIXB/2eyQBUOmPJAARERERERHR+cBfoESlFAJIDP5TabRt27azDv5DfHy8tg9i/ppKE1T7+/v7M/hPRERERERE5xV/hRIR0XmDCugVK1aYl84O2gYhAYARMERERERERERE5BgTAEREdN7s27dPoqKizEtn79ChQ3Lw4EHzEhERERERERER2cMEABERnReo/t+4caMkJyeba84eRgH8/fffkp6ebq4hIiIiIiIiIqL8mAAgIqLzAhX7O3bsMC+du+joaFm+fDnnAiAiIiIiIiIicoAJACIiKnFZWVny119/6SiA4rRu3To5duyYeYmIiIiIiIiIiGx5ZLN0koiISlhaWlqhvf+nT58uMTEx5qXTbrnlFgkLCzMv5eXh4aHXBQYGmmuIiIiIiIiIiMjCBAAREbmE//3vf3ar+R988EGpWLGieYmIiIiIiKhkYI6x48eP6wjmkJAQCQoKMq8pezB6+9SpU5KRkVHmi65Q0Hby5Emdiy40NLRMbwt+RkontgAiIiIiIiIiojIFAb3Dhw/Lvn37JCkpyVxbNiHAi22xf/9+SUlJMdeWLcnJyfLtt99K165d5corr5SOHTtKhw4dZMKECRIbG2veqmxAkPuHH36QG264QbdBp06ddHnjjTfK3LZAEgTbAvsFtgX2i3bt2snrr7+uc9KVJfhuwLa4+uqr83xGsC3sjeQn18IRAERE5BI4AoCIiIiIShICmwcPHpQff/xRPvjgA9mzZ4+ur1Chgtx1111y//33S4MGDcTPz0/XuzOEgvD6f/75Z3n77bfl0KFDuh6VzdgOd999tzRr1kx8fHx0vTvbuXOnDB48WBYsWKDbJb+IiAgNfCLY6e3tba51P3jt27Zt08/C6tWrzbV5RUZGyieffCLXXXedeHl5mWvdD7bFgQMHpE+fPrJs2TJzbV61a9eWKVOmaHIErWnd2a5du2TIkCHy999/2/2MhIeHy/fff69JAXf+jJRmXi8YzPNEREQXzKpVq+xWX1166aXs8U9ERERE5wTB/z///FP69+8v33zzTZ6KVVR/r1ixQoO85cuXl5YtW7p9oHfOnDka5J82bZrEx8eb1+S098C2mDFjhh6DX3LJJW4d3ETAe9CgQbJw4UJzzZnwG+Wvv/6SRo0aSf369cXT0z2baezevVuGDh0qy5cvtxvkhYSEBP3d1rhxY90W7mrjxo1y7733ytKlS801Z8J3CALidevW1e3hrnbs2KGfkfnz55trzoTvUHxGkEDF4q6fkdKM7wgRERERERERubV///1XHnroIdm+fbu55kzoaz1y5EitZHVnCNQ98MADsmXLFnPNmY4ePSrPPvusTJw40VzjfhDkHjNmjCxatMhc4xhGSLz77rvaB95dYVQMEiHo7V4QjJh4/PHHNanmjtDqBpX9jir/bWGUwPPPPy9Hjhwx17gXfEbGjh2ro2MKgzZi7v4ZKc2YACAiIiIiIiK3hN7mUVFR2uoECwIU6P1eliCAg4AMAjhoZ4GqXbSu6NKli/Y8R2DTUbWvu8DrGz9+vFY4F/Za0eN8xIgRbjsvQGJionz11Veyd+9ec41jqPZ+7733clsluRskhZYsWWJeKhj2GyQKCkqalGZIfk2aNKnQ4L9l8+bNOkrEHSH59ccffzi9LfD5mDdvnlt+j/73338Fjo6xhde/ePFi/RtyPUwAEBERERERkdvZsGGDvPrqq3LbbbfJVVddpb2Je/ToocFdtDIoK4kAVLyjlUX37t3lu+++017OmPgW2wC9vm+66Sb57bffnA52lUYIVs6cOdO8VDgkRRAkd0eoWEaw0llIoCEY6o7BTbQ6OnHihHmpcPjOmD59unnJvSCYj4RPUXz99dfmOfeCJA9aQzkL2w37kjv+m1LUzwhaiLnrZ6S0YwKAiIiIiIjIjaSmpmqwc/To0drC44svvsjT47ssQFUvgv3jxo3T8/v379fJX9etW6ctTe688063b/MCeM29e/eWX3/9VfeL/DBCYs2aNfLggw/K77//7pZBXpg7d6629SiKoiQMShMkQzASxlno7Y1kmr39p7RDD3cELIsCnyl3VJR9woJkkjvCCICifheezb5UGpzN63LX/aK08zB2avf8F56IiEqV//3vf3Ls2DHz0mn4QVqxYkXzEhERETmCKkQEtSdMmHBGmwr8W/rwww/LkCFDpFKlSuZa94Oft5i08Y477ig0oOXl5SVffvmlJgNKepJTPC9U2OPU9nxB6+xdh8W6v/zn7V1+8skn5eeff9b1hencubO8/PLLEhwcrL29kRzAqXXeuuxovbPX2VtvXc7/Gqzz1qmz66xT6zwSP5jUsyjCw8OlW7du5iX3gf7tK1euNC85By2j2rZt63YTI2/dulXWr1+vny9n1alTR9q3b29ech9IDGFbFAX+Lbn66qvNS+4D7bEKmvzXHkwEjAmz+RkRqVWrllxxxRXmpbLh9ddfl2rVqpmXXBMTAERE5BKYACAiIjp7CP7jB+ibb77psHe5j4+PBsbfeustt00CYDsMGzZMpk6dmhv8LQiCNmiLU7lyZa1ytILRtucdrSvssqN19tbjMgLgtuvzn8f1CMIUtNjeBn8XHR2tp+7INmlT2HnsC9g2ReHp6amfGXeDfQP7U1EgWeZugU3AfoFtUZSwmK+vb559zJ0UdZQHPh/4nLgjtPMpyn7hrtvibD4j7rxfOIIkSePGjc1LrokJACIicglMABAR0bnCsH1M6ogAV82aNaVp06ZuG6jJ7/PPP9fAd2ETl+KH+X333Scffvihucb14P1DuxZMVooFrwmBfZxal63rbG+DUwS80e4lLi7OvLeCIbBZpUoVDerhpzEe295pUa/Lv+5c+fn56XtnBWKxWOdxmn89FkzqiVYMeA7OatSokc6XYHuf1nnr8W3X5z+1zue/bO86e+vxebU+s45OLfkv22PdBhP7Yg6IogS+P/jgA50o2d1gZAy+A5yZBBjKlSsnL7zwgrbUcmablyZICg0cOFBWr15trinYRRddpL9Z3DWB+sQTT2grMGeEhobqpMj4XnA3aHuF9nHOjp6qWrWqTJkyRY873A3+/cIcMpgLwBk47sJnBEn1sgQjg/DvtCtjAoCIiFwCEwBERHQ2UN2MHub4d+Sbb77JDfAhmIjg3eOPPy6dOnUSf39/Xe+OUKnYunVr2bRpk7mmYAjY7NixQ2rUqKEBMHuV5fbWOVqPdQiY2AvQFxSst3cZ57E4+zMVAUlUGiKIjFM8n6JOxBgYGCgVKlTQ+7Duz/bUOo8FP/DtLdi/kESwTu2tw2n+v3Nmwd/iORQVJkAeNWqUbhNn9enTRz9H7uiee+7R+TCc2bcwMgStL9wxuInP12OPPSaTJk1yalugqnXOnDluGdwEBLwxGfbJkyfNNfYFBATovCpoq+WO+wVgvpTbb79dk+kFwXfmmDFj5KmnnjLXuB8E//E7tLBtge/1hx56SN544w1zjfvB579fv36FTgaMz8hzzz0nTz/9tP67Ra6FCQAiInIJTAAQEdHZQEBv5MiRcujQIXNNXgjU4McoAhUhISHmWveB4DsmeL3lllvMNc7p2bOnNGvWTCvtEbxH6wcsCJ5bp7bnCzpF0sXZIDOC7FaAvKBTZ2+Tf/2yZcu0r39R3HrrrRrMQu97qxId+03+83jupQlaPT3zzDNFagGEyvBPP/3UvOReMJEtkgCYD6CgMEj16tV1ouhevXqZa9zP8uXL5f777y80aYh5ELAfIUB+Nkmo0uLHH3/Ufyf27NljrskL3y34LKFCvnz58uZa94Pv8unTp2vi3NEcKgj+IwmCf1Nx3l3h39YffvhB33NH2wL7ApJpCHrj3yB3hoQI3vfdu3eba/LC68dnCLdxx2Mtd8AEABERuQQmAIiIqKjQux2T2qK9R0FQlYZKaAQsXLFyE4EGtLhB2xq8FttTe+twap1HNS9avaD1TUlA4BstQBDoweLofGGXrfMIEljV9FbVvu1ib5212Lsuf1AS+wSq2IvigQcekLfffluDfO7kjz/+kP79+xdatWkL1f9F3X6lBZJUq1at0tfnqP0N2pq89957ehvs++4K2wKTviIR6CjojeA/kkE33nhjqUt+FRWSZEiGTJ48WRd8rwK+r7p37y6PPvqoTvyLam93h22B0S8YIYK5VE6dOqXrsS2uu+46eeSRR+Syyy7T73N3Z31OsC0+++wz/Xca8O8OWmJhYv0rr7yyTOwXOE6x/YxgxB7gmMr6jFx++eVlYluUVkwAEBGRS2ACgIiIiiI+Pl57la9du9ZcU7AWLVpopXxR2ljgBy8WBESw2J63vWydImiUP0Bvndqez3+KoEJBFfQINiAAZ29BEBxV/NgeRdGgQQNNiKCCEQuq3/MH8K2AfWmyc+dO7fV+5MgRc03B8JrfffddrXx3NwjQdO7cWYPezkB/cyQNUAHvzhDQ/OSTTzTZgeQIQiLYDxDEQnCzfv365i3dX0xMjHz88cfy9ddf63bBtkAizNoWDRs2dOvKf3uwTRDoxPd6tWrVpF69euY1ZQ9+m+E7FSO90OMcbePwb05ZhET79u3b9d96HEfUrl3bvKbssf2MYP4DfEbK2vdEacQEABERuQQmAIiIqChmzZolAwYMyK1OLAyC5Zik76abbsrtN48FwXecInhvnbcWrLPO4zrb29ieRwsdBOHxY9gR/DhGZRwWjEiwXWzX2Tuf/2/y3waT8z377LPmIzkHVe/4t9fd4P1AP2Zne70jwIlJg921vzmSXkhu2DvGsoUA+NixY7Wi1d1GQjiC4D8SRfjcYlJXTFpZVoObttsCx90I6hERkftgAoCIiFwCEwBEREV38OBBbdGwfv16rSBHFdagQYOkadOm5i3c14QJE2TEiBFajecs/HsSFhaWp2rfWmwvW+cd/VQKCgrSSWPRIgOnaBtiVdLbnkcfXOsUf2P1kS9oQQDS3rqCIOiNQLajPsX2YJ9p2bKlecl94D1Dxfttt90mBw4cMNfah9YFqALHHADuWr2I7wVMcnrvvfcWmATA5Kbo34z9lIioLMo2/u2PX7BU0o9GS2Z8omQlJBqnCZJ+7ISk7dqr570rhIl/gzoSfu+dUq55E/MviVwfEwBEROQSmAAgInIeWseMHz9ePvroozMq4FG927t3bxk3bpxLVTUjEImgOiYZtD3Nfx7B7JMnT+qCqtT8561TVKsWte0NKuYRoEcg3loQYEcVPQL51mIF9q1T2/NIILhihfTrr7+uQVxMzFsQJBPQ9xsT+rkzJAHwOcDk0Pm3CbZBlSpVdKLX22+/3VzrvvDZW7p0qX5noGUWPmOA/bhx48Y6GgTbii0ciAgyY+IkZdceOTH1R0lctV6yje9Q/4b1JHzAHVKuVTPxjqggHudhtEx2RqakR0VLdmqaZKNNXmaWBumzjOeTlZAkWcZ3mQbpcV5PjcuJOecjRz8u3mFFm4wWj7f50m6SsmVHzgp8JzoImXr4+kjoTddJtXFPi1/tGuZaItfFBAAREbkEJgCIiJyDgCYmtP3888/NNfZde+21OpklKsNLEoKLaIeDYDz62dueFuU82ulgQTLAHlRr2/amR9sdbAs8vrMGDhwow4YNy3M/WBAILe3BT/QnRk//adOmOUwCIPCNeRM+/PDDEt8vXAEmspwxY4a2+Nm/f7/uKzimwDbABI5t27Z1yUmhSwpeP0Z+YAJca1u0bt1a538gIoPxuUjetE1S9x3U897hFSTg4ovEK7CceQP3l7x1pxx5eaLEzv5bA+l5GP+GBLVvI+H9bxO/+nUkOyNDkwPZaemSbfzbnWWcGv8A6akG7c11PpGVpcKt14tnEbdj+pFo2XPPcEnevF0fJwv3aSx4bwpz0cb54t+grnnJeUff+J9knIrRJMip6b/paUGCOraTmhNfkoCmDcw1RK6JCQAiInIJTAAQERUOFfIvv/yyvPTSS3q+MNdcc432AD+binX8TEBgH9/NUVFREh0dnXtquyDwjP73+Sv785+irU5+qMjHdzx6b+PUXsW9dYpAvVWxj1NMTNi/f/8iTfb6119/Sbt27cw17gfvBfYPjAzBe2ILCQ60unnllVd0AuCyUu2N/Q6jZLAvY5/GZwH7VFkK/BMVBFXPCYuWS+KGTcY/MpniW7uGhN14rXj4la4JwM9JVpYkrv5Xjr75kXG6XrISk7XyG9sgoEkDqTh0gITdcr15Y9eRcfykpB2JkuyUVMkyl2zju18vp5qXk1Mk0zzNMq7LMk79G9aVSg8MNO/ltPSoY7L3vsckfv4/kp3pIMhu/NPhafx77Bngn1Mdb2w7rc7PyjZPcxbbdUga1P3mI/GpFGHeiXMyjp2QA0+/KGmHjmrywMt4XK/AAD2fsxiXg4zTIJwazwnn8dyM04AmDcXT/yyOfdKNY6vsLDn69iQ58tLbmsQoTNCV7aTBL1P0ORG5KiYAiIjIJTABQERUOPR4xyS2q1evNtcULCIiQucIQKWzbUA+NTVVW+nYBvXtBfdRkZ8fqsgRPEUQ3tGpr6+vPjYm1rQm18x/Ht/tqDw+20A0KpjvvPNO+f777801juExrr/+ep0YFsFfd4f95JNPPtE2OHi/0eZl8ODB0qxZM/MWVFahejYrOVnjdp6+PuJZLgAfEPPasgUBUgRFERLx9PPLCWiWoW2Bqu3YP+bL0Qn/0+C3Bm5NPtUipcqjg7TS26uIbVSKlfHe4P05m3YzCGBnxSdoyxjd4c37ss7rggB1dpYk/btZ9j/4rAbAHYkc9ahUeXxozmfGgYTFKyR174GcSnWtjD9dta7nEYjHZxD7Hk5xG2Nd5SeGSnCHy8x7cd6RV9+Vwy++lfNaHME+bSy6DXHeOC3f5Qqp//MU8wanHRo9XivgneXXoK54lQ82tom/eBnbxSMgQLcPFr1snkeLnNAe1xS47VwJ9oNdvYdI4vI15pqCeVcIldpTJkpIt87mGiLXwwQAERG5BCYAiIgKh1YmN9xwgwZ1nYFgfZ06dbSC3rblDgL7+X8G4LaYABRBeUxci1Pb87br8l/GedvLuB/cX0nbsWOHDBkyRObPn2+usQ+TI6PtTdeuXc/L8yJyNRkxsZKwZKXEzVssaQcOaeDTOyJMgjq2l5BrOopPlUrmLd0fJvKMX7hM4v9eIqn7jG2RmSnelSM0AFu+65XiU7WyeUv3hT7p0f/7XFu9IChtj4ePt1TofZNE3NtXkyMaSM/K0v7vGCVQ1KB8ZmycxMycoxXWWl1u3F92lrHo+Zze7lo5noFTXJezzjMgQCKfeci8F+elHY6Sw8+P1wld9T7xeNbj4LyxLjsTLWwyJHXv/pzWMgVA8Lrq849LpQcHioev/dERu3oPlpgZc8xLBTC2nYe3t25jD28vqfXh6xJ2a9FHGGB7ok2Nh5e3CO7LWDwxusm8byT5cB7r0LM+5zF9xLdGVQm5vqt5LznSo4/Llku66amz6v38mYRel/d+3EH8khWy44b+he4TuYz3s/Jjg6XaC0/q9iVyRUwAEBGRS2ACgIiKAtXru3fv1kB47dq1JTIyUtyhpQkOzRGgRwW3taDPvXV+w4YNsn37dvPWzkNQ3rYC37Yi31pQGY/2KAVV9uPU1QLou3bt0n8r5s2bp6MC8sNEyD/88IO0adNG2wcRlTWoZt3/0AiJX7xSMmNizbUGFAOXKyc+VatI3c/fkXJtWphXuC/0dt835ClJWr9JA9K2ldNo3+Ffv45Uf2O0BHdsr4FitP/QgDUW7XNunGYYpxnmZZzqOgSU0437Ewk0tmNRK51RHX5qxhxJWrvBuD/cF+7TWDIzjDcQgWrzuejj5DyeIHhtnI8YeKdU6N3TvCcnGK/52GfT5OAzL5/Z4z0/4/veJ6KCGF+e5rbKlrA7ekq1sU/njJgogpTtu2Vrx5tygqrGfWkoShfjSvP86XVYmcPLePyLD64zLzkvdc9+2d7tTknbf9BcY0AlvPHvmAbDcerjLZknT+VsTyf4N20oDWZ+Kb7VI801ecXNWyRpBw7n3D9GlfjhsYxTXPb1FQ9/cx0C9lqNj+p8YxtXqShewUHmvThPRxUY+6Ee/5j35WGe4nJu1b8Tjn/+newb+rR5yTmhN3eXet9+bF5yHye++lH23v+Eeck5FfreIrXee4VtgMhlMQFAREQugQkAIioMgv0IfqO1ydSpU7WvN6CPfM+ePeWRRx6RVq1a6eULyWqzgwWTsdqex3Ly5Mk8AX4stkH+xMTEnCCICT/s0VIHwXesx/VFcf/998u77757wbdLScJ2nT17tk56jMlesZ1CQ0Nl0KBBOk8A+v8TlUUZJ07K7rse1mr3gvhWryp1v/5AAtu2cjpgmLfft/GdpadnrkMw11rv4e8v3mfRUgbV3Ikr1kpmgvH9aHzes9HfPBXtU8w2KroOp+m5QVGceoWGaFWud0QFrQTf9+CzOrmpbYA5PwR563z+jmzr3Esr5YsCvcibLJ2lPdaLAo+z/9Hn5eS3v+Rsf/ynp+Z7YZ03lpz1ulIvRz73iFQePkhv5oyMkzGyZ+BwiftzgbmmEMZj+FQMF6+Q8noeQd/IEY8UOQGACV0PvfimcS5bA+AIwHuaVeuoUtdqeATl85z30oBqeN9bc+6kCJA0yYyNNx7LM+e+UA3v5ZWz/Uxxfy2WPQMeNj4nOccTzqjzxbs6MsLdHHn1HTk89i3zknPKXXqxNFk8w7zkPk5887PsvedR85Jz0C6r5jvjmAAgl8UEABERuQQmAIioIAigo4r7ySefdDjpK6rcR44cqYmAkgp2o8Ic7XNiY2MlJiYmd7G9XNh1CFbbQnA/JCREA9a2i7XO9jr05cdrzD/BqyOo2h8zZoyMGDGiTFS/Y8JXbGO8T9gfzmbyYyJ3gQDo/mHPyfHPvzXXFAwtQWpPfku8w0LNNY4lrt0oMb/M1oC7BuLTEYBP19Ms49T40s4JwhunOdXzuE2GlL/6Sqk27hnzXpwX8/s82Xvf45J5ymYEgyMeHuKB7ztvL/GrU0sazPhcfGtWk0Nj3pCjr39QYPDfEnTFpRrMx+vTADLuzzPnPnMvI5iMVi56HpXXxhLgL5HPPiw+lYt27IptE7/gH0netivnflC5jfs37hdV+Noyxnw867FwivUBTRuKfwPnEw7o97/jur7aCskZCMJXfuIBqfLY4JwqdjM47w6i3pssh557VfdTZ4UPuF1qfzLBvOQ+ot7+RA6OeNm85Jzgju2k4Z/fmZfcR8KKtbLj+n5OJwDx2az89DCpOnK4JrCIXBETAERE5BKYACCigqDHOyZ8xUS1BUHv+TfeeEOGDh1qrik6BJGRZEAlOZZ9+/bJgQMH9BSV+qjAt1fhby3529AgEF21atU8S7Vq1XLPh4WFaRLAqvLHYnseQXwLEgC33367LFq0yFxTsCpVqsj06dOlffv25hoickeYeBQV7qh4zoyJMZZ4Sdm9T058+b1zQXMD2tY0nPOtBF56sbnGsRPTpsveex8zLxVOW58E+EvYzddJrQ/Hm2udh9Y9OoohO9umlYpxisW4rOetNisI0qMFChIBxjqMbkCrm42NO+S0/XGGp6fUmTJR5wTA/VhLblU+isjzXD694LnoeRd14ttfZO/A4eYl54QP7C013xpbaiZxddbRCR/K4TFvaLLMWejVX3fah+Yl95G4doNsvfxG85JzIkc/JlVHFq1SvjTIOI6RUw9J/Px/zDUF864YriOo0DqMyFUxAUBERC6BCQAicgQB+euuu04nwHUGgt6YHDYwMDA3SG+7pKamSnJysrbbsYL8VqAfpwjy4+8s6HlvBeVtA/XWKSbYxRwEtkF9K8iP9UgA2LYcOBdILkycONGpUQB43rfeeqt8++23ZaL6n8ieLOPznnHspGQZn3n0Gkdw1juiwoVp02D89NYe7sb3S26Pd/Qe1x7yOYtPZOWzCrJuv6GfxP+Vr80PvneK+HO/0vBBUmP8KPOSYym79knCwqXiUa6ceBnP1zPQWALMU1zG+QB/47y/9kLXivUL6Nhn38j+B581LzknrFcPDeq5m+NffK/zIBSFu7Y3OfbJV3LgqRe1pZSzKg69W2pOfNG85F62d+ujE2Q7A5/zZlsWF3m0S6mQlS3RH30hh0a+avzbUciIS+N7NuS6LjoXgraZInJRTAAQEZFLYAKAiBxZsWKFXHHFFZoIcNaQIUM0+I7JgtFz33bBOrTjsa3URyAflfgI5mMyXJw6WtCKB7e1WvMgEXA+Ye6D8ePHy4QJExxuEwT8e/fuLW+99ZZO+EtUFiUsWSmnZvwhcfMWS9rBw8igafA/uFN7Cb3hGinf7Srx9C/+NlEI5Kfu2ifpR6K04jwjJk4y4+L1vFboxyVIVkKCtmDJik/UUz2fkCi1P39XQq7paN6T86LemSTJ/23NCbyXQ+A9QBKWrZH4BUuLlAQI632T1P3iXfOS+zj88kQ5Mu5t85Jz0Aao0V8/mpfcB/aJHTfepW2HnOLpIZUfHSzVxj7lNq1/LJgMeuet90j64YJHF1rwuar346dSvksHc417iZ27SPYNebLQ7YHkXpWnh+lcEO4K39VRb38sR9/80PFnxdNTQm/qJjXffEEnUydyZUwAEBGRS2ACgIgcGTdunDz//PPmJeeg+h2HubaHupgItnr16lKrVi2pWbNmngVBcn9//zxV/taCFjzFVcFfXDCC4euvv9Z2RxjtYPs6kaQYPny4PPDAA/z+pDLr1Mw5sv+h57SVAwL/eRifZ6+QYIkcMVwqD7/fXFl8Mk7Fyv7ho7Rljfa/R8W/Vv1nnhGMR+9oJCW8K4WLT8UIiXxuuAR1aGte6zytUs02Xif6xJtL1MRP5NDo8TmP66Twu26X2pPcr7/5kdc/kMPPv25eck5w5yuk4exp5iX3kX74qOy8bZAkrd1grimYV1iI1Pn0LQm54WpzjfvAZ2PPwEfk1I+zzDUFC+50udT96n1t+eKOkLw8Me1nOfjkWE1a2oMkUKUHB0rkqEfFKzjIXOueslJS5dQPv2oSIGXbrjzf357lg3U7YPGpFGGuJXJdTAAQEZFLYAKAqGxA1b3VhgeLdR599dF6Z/fu3We05Tl69GiRqv+hdu3aGgS3AvwI+qOyH4kBd4LtNnPmTPn33391G9WrV0/nSsDoBKIyyfh5Gzd3oey551HJOHHKXOlY9ddHS8SA23MmrDW+j7JT0yQzKVnSDxzW5EFoz27iFVrevLVzMhMSNdgcN3+p+CCwH1lJW/v4VDEWnK9SUbwrRmjQyCs0RHSi1xIQM3OO7B30ZJH63td892WpeH9fc4X7QFsTTOpZlF7vkSMflaqjnZ/noLRAkPfIq+/J0fHvOZUcCmzXRhr8+qXbBnsxOmjnzfdI8ubtZyYLbfhUraytf0Jv7KZJRHcW+8d8TSCmbNkhmZgI1/he9fTz0++vioP660TIZ9OqrLRCgjX2978kad1G/fz41q4h4b1vEi8nJkwnchVMABARkUtgAoCocKj0RkAch28RERFy0UUXaYW6K0J/erTawecay/Hjx3NPrfO269HWxrbvvp/xQ9NquYP127cbP8yLoH///jJ16lTzEhGVFWivs++BZ+TUT85V9HqVD5agKy/LadVz/GTOcjJGA4GeQYHSZOmv4t+wnnlrJxnf0Zh7AJWyqMS/UPA6dtw4QJLW/GuuKZhfg7rScNaX4lurhrnGfSDwv/3aPpLwz0pzTcEQ2Gu6eo74VnPPth5pBw7Jwede1ermgmBC6JrvvCTlWjc317inlG075eCIVyRu3iLJTjt9LKI8PSXgokZSdfSjEtLj2gs+n8X5kpWaJklrN0rq3v2YjEl8KlWUwMtaiVdI0RKiROQamAAgIiKXwAQAkX04VNuwYYP2cl+wYIEkJSXpegTIL730UnnsscekY8ei94suDnhu6KmPqn3bZdeuXRIVFaVJAKvS31oQzLcOP9GnHhP21q1bVxdUr9epUye3Wt9qyRMXFyetWrXS0QLO+v3333XiYCIqW1DFu63rbZJ5KtZc4yQPDw32+tatJX61a4hfHeO0Xi2d3LE0Vz6f+vl32d1vWIGVzeDh4y1VnnhAIp97RDxcNLF8rmL/XCh77hqmvb0L5OkpVcc8IZHPPGSucE/4jBx6/nU58dWPZ0x0isQVWiDVePMF8W9UxARYaWQcl2ScipGkfzfJsY+nSuKqf43PTKb41aohEff31dY/vtUj9XuCiKg0YgKAiIhcAhMARGdCu5y///5bBg4cqO1xHMHn55577tGA+bnAYaG99jzoN3/48OEzgvx79uzRyXQtaK+DgD2SE7ZLUFCQ1KhRIzfIbwX8EehHX35nDB48WD799NPc5EFBWrduLatXr3a5vv1EVPJOfvOztv8pigp33iI13xmnowHc0YmpP8qBp8dJZkysBjrzw0TIYbf31PYmnoHOfSeXRmh3c3zyNDk89k3JOGm/PZSn8e8oAr6Y8Nadt0UuY39Ab/Poj76QpPX/iRjbCO1NKg6+SydBvpAjWIiIqPgwAUBERC6BCQCiM/3xxx9y//33Fxj8h+DgYJkwYYImAXx8fMy1jmVkZNhtw+OoPQ9a+dhW3wcEBGgLInw2sVjnUbVvrbNdHxoaqhPpnostW7botli2bFmBSYCGDRvq90nXrl3NNURUmmUlJknqvoOSZixozxPcqb341qxmXnumY5O/kf3DnjUvOQf9rGtOHOe2Pa0xr0HMH39LzPTfJe7vJZJx7ISu9wzwl6CO7SSkW2eJuPuOMhHwRluTmF/nSOyvcyV+wVJJj8o59sQoj8DLL5GQ67pKhdtvFO/wMF1PRETkDpgAICIil8AEAFFeaPXTpUsXWbFihbmmYG3btpVffvlFIiMjzTU5IwgwgS7652/btk1PsaBy3157HgT5rUNDVPMjgG9btY9TTK5bqVIlHW2Qv9IfQf6SqrrHa9m4caP069dPNm3aZK7NC6998uTJcu2112p7ISIqfTBxb+Lqf7VvfeKaDZK6Y7dkJSVLZmKyeHh76SS1Ybc4bu+lLW/ufMC85JyKQ++WGuNHiYefe7a+UcZ3OyYnRsA7I+q49sRHkBuTE3uHhhhf+mVrxJRuiyPRknHM2BbpGeJdMVx8qlQS7zBjW3D0GBERuRkmAIiIyCUwAUCU15w5czTYjep7ZyDw/swzz2gLHivQj0mD4+NP9zrG6AAE7m2D96jmr169ep4gP/rwY8HIAleDJMW0adM00G+NjMAIgz59+mibIJwnIteXGZ+Qs8TESfKm7ZLwzwpJWLJSUrbu0FYtHl6e4mF8V6Eq3atcgHhVCJXA1i0k4t47C5yQNHXvAdl+bW9J21/wyCmLZ1A5qfnuKxLe9xZzDREREZF7YQKAiIhcAhMARHmhpc+IESO0XU9RIbCPKv3KlSvnWWzX4Tw+WxUqVHCqbZCrwQgJTECcmZmpr8EVkxVEZB9+gh4a+ZrEzVsoqbv3S1ZCIoYdiU/liuJfv45Ovutbq7oumITTt1Y1rVR3ph85JjM98PSL2utdsgr/qet/USNpOGuq3j8RERGRO2ICgIiIXAITAFSWpaeny969e3Mr97EsWLBAtm7dat7COZdddpmMHTtWK/oxua5V6W+dsi0OEbmKvQ88I6d+nCVB7dpI8JWXSaBx6ls9Unuxoyofk7GebSuW5M3bZXefIZKyfbe5xj48Tr0fP5XynS4/68ciIiIicnVMABARkUtgAoDcDQ6x0K4GvfaTk5P1FEtUVJQG+G178u/evVuTAIBWPgjW4xS3L8qh2hNPPKEjB4iIXF1mbJx4BgU6VdV/NlJ27pHddwyW1D37dVSALQ8fb/GtUU1qvv+KlO/SwVxLRERE5J6YACAiIpfABACVZmjTg3Y0hw8fliNHjuiC85iA17qM8wj+o3WNJSgoKE+LHqs1T5UqVSQxMVFee+01p+cACAwMlJkzZ+rEwUREJQ2TyKbtOyhZKWkS0LSBuda1pB06IrGz/5a4eYsk7eARzCYu3uEVJLhTewnp3ln8mzQosQQEERERkatgAoCIiFwCEwBUWqBSHxX7mzZtks2bN+uCyXZPnTp1RrV/VlaW/g0m5q1fv740atRIGjZsmLtg37adlNc6RfU/Rg/07NlTJwN2RteuXeXbb7+ViIgIcw0RUfHToPqsuRIza56kbN8lAU0bSf3pkzF8ybyFizF+7mbGxeeMAjDOe/j5indoiM45QERERFQWMAFAREQugQkAsgeHKQkJCblV8wiOh4SEaIC8uCFYn5qamieIHxcXJzt37swT7EfLHgTnwdPTU4P2AQEBuadhYWEa3G/atGnuUrduXfH29ta/KQo8LpIAe/bsKbAVUGRkpLz77rvSq1evEtk2RFQ2ZWdkSuapGEmPOqZV9Kdm/CFJq/7V6n/PcgHiFRoi5Vo0ldqfvS3eYSHmXxERERGRK2ECgIiIXAITAJQf2ub88ccfMnfuXDlw4IAGwNEep3PnztKtWzetqEcA/mygih/teBy17LHWR0dHS2Zmpv4Nkg9ozVO1alUNuFuL7WWcr1ChQrFOtrt69Wrt7b906VJtNWQLwX6MKnjxxRfl1ltv5SS/RJTD+L5MO3RU0g4eFuNLTLwrVxK/OjWca3dj/G36sROStHq9JCxbI4kr1kri6n8lKylZvELLS0DzJlLu4mZSruVFUq5VM/FvWE976hMRERGRa2ICgIiIXAITAGQLLXYQ0Eb1PXrh20Igvl69ejJ58mRp166dudYxjB7AhLtWBT+q6nH/GFlgW+2P6n/rsAijDBo3bpynir927dpSrly5PBX/aO1T0hX3GJmAz8aiRYvkvffe04QAEhgI/A8bNky6d+8utWrVOutkCBG5l7T9ByXq/SkS+/s8yYpP1O81T38/Cbr8Eqn00H0S2KaF3XY9qOpPWrtRTkybLvF//yPp0cckMyZOkwaB7dpIhd49jfu4VHwqRYhXSHnx8PUx/5KIiIiIXBkTAERE5BKYACDLli1b5LbbbtNgfUHQ6x6T3iI4jyA+ltjYWG3Rs2HDBl0Q7Ldtn4MKedt2PTjFqIImTZrkCfajkt8Vq+mRqHj88cdl1apVsnLlSrb7IaJc2ZlZEr9wqewZOFwyoo+ba/PyCg6Uaq88JxEDe4uHT94AfvrRaNl+bW9J3bVPvMJCxLtyRQm7qbtU6HOT+DeoazdpQERERESujwkAIiJyCUwAEKBaHwHuSZMm5U6gW5AaNWpI27Zt5dChQ7qgrY/Vnz8wMPCM9jy2LXys05KaU6AkoEXRzTffLGvWrNFRDZhbgIgIEletl733PyEp23aaa+zzrhQh1cePkvA7bzHXnBb17qeSlZgsQe3bSLlLWopXUKB5DRERERGVVkwAEBGRS2ACgADV+ujxv2/fPnONc9CKB1X8LVq0kObNm+tpzZo1NQlgW+3vk6/itbTZuHGjtj1CouTtt9+WRx991LyGiMq63X2GyqlfZpuXCuZTLVKab14kHn6+5poc2alpOf382VKMiIiIyG3wyI6IiIjOK1T2o6//8ePHdXLfrVu3yl9//SUTJ06UwYMHFzn4P2jQIDl16pSsX79evvzyS3nqqad0kmAkBJAEQIuf4ODgUh/8h3nz5mnwH3799dfcCYqJqGxL2b5LTs34w7xUuPRDR+TENz+bl07ThACD/0RERERuhSMAiIjIJXAEgHtCsB+B/oMHD2qLHuvUOo/l8OHDEhcXZ/5F0SEB8M4772iVvzvDtkT1P/r/Q/Xq1WX27NnSrFkzvUxEZVfUxE/k4LMvm5ecE9LjGqn/46fmJSKis5OydYekR5+QzPgEyUpI1CXTWML73ireFcPNW1FpkZ2WJslbdkjmyRh9H7FgQnlM/B526/XiVT7YvOXZyUpOMfaZnZJxKiZ3X8H9ewYHSVjPbuIZVM68JREVJyYAiIjIJTAB4B5iYmJ08t1169bp6X///ScnTpzInaQXS2pqqk7Ki7776MOPlj0tW7bUU/S1HzdunHlvzhk2bJi8+eab4ufnZ65xTytWrJArrrgit+ofLY3eeusteeCBB/QyEZVdh8a8LkfHf2Beck7QFZdKo79+NC8REZ2dnTffI4lr/pXsjAzJTs8QycjU802WzZKA5k3MW1FRpR+JlmOTvpKMY8cl4t47pdzFzeR8TMaedvCwtpRL3Xsg5z3F+2m8r361a0iDWVPFt0ZV85ZnB8mFvQOHG49zxLz/nKVcy4uk3vefiE+VSuYtiag4cXwnEREROQVBewTwEdC3WvfMmTNHXnvtNbnjjjukQYMGEhERIZ06dZLHHntMpk2bJjt27JCUlBQpV66cXt+vXz9t9TN//nyJjo7W+0EVO+4D191yyy3arsdZCPqj1Q/mAHBn2PaTJ0/O0/IH23XRokUSHx9vriGisig7M0s8vIve4sw7vIJ5jojo7FV+fLBUf+U5Cb3hajEOVCTLOD5BQNc4eDFvQUWFqviDz70iR159V45N+lr23Pu4pO0/ZF5bsrwrhEnk6Mel6vOPS+ClrSQb7yeKd3AMWgzvqW/VKlJ17FMSOXK4lGvZ1Lh/475T03Lun4hKDEcAEBGRS+AIANeDYD/a8yBIv3//fl1sz6N9j9W6BwF4tKRBz30sNWrU0MtYqlWrpqdIDqDqvyAYQTBw4ECZMWOGuaZgderU0SQEkgvuDNu7a9eusnPnTnNNDmxbJFPc/fUTkX2ooMTEvye++F6SN24x1zqnzpR3pMKdN5uXiOh8S1q7UYPlgW1bi4e3l7m29MpKSpatV90qyRs26+WmK2dLQIumep6KJu3AYdnRo7+kbNtlrhFp+Mc3EnzV5eal8yP5v62y46a7Jf3QUfGrX0ca/v61+NasZl577hL+WSm77nxAMqKPS7k2LaT+T5M5AoCohDABQERELoEJgNPS0tJ0UtzVq1dLRkaGNG3aVG688Uatoi9JUVFRsnbtWm3fg9Pt27drgB+TzmJBQgB96KFKlSpy8cUXS6tWraR169bSuHFjrdzHc8SC9jReXkX/MYvDkunTp8v999+vyYDCoPXPo48+Kp5uPmnl119/LUOHDpWEhARzTQ4kVN5//339nBBR2ZEZEyvHPp0mxydPk/QjUZKVkireVSpKxtEz/x21x69ebWm65k/x9Hfv1mlEruzgiJclKyFJqr8+SjzdZB6j7d37SPyCZXqeCYCzl3HilOy5+xGJm7dIL3uHh2nLNv/G9fXy+YJ/X7Z1uU1S9+wvkQRA8tYdsrPHXZrMZgKAqGSxBRAREZGLQHD3888/lzZt2sj1118vzz//vLz44ovSp08fadSokUyYMEHb75wNBO4TExM1ybJv3z7tzf/zzz/L6NGjpUePHtqLH0F9PC7W/fHHH3L06FH920qVKsk111wjL7zwgsyaNSt3Il+07nnllVfktttu04loa9WqpcmawMDAswr+AwLavXr10t724eHhdkcMYF1ISIiMHz9eHn/8cbcP/iP5Mm/evDOC/4CEyUcffaTzKhCRe0N7hPSoY3L8y+9lyxU95dCo1yQjJlaCOlwmDed9Lw1/+1r8G9bDl6T5F/YhkFT91ZEM/hNdYMmbtktWaprx4TZXuAMPhpiKA76nI0c9JkFXttN5FKq99Kwmbt0P/r0q+XkNiMj4pHEEABERuYKyPgIAwV0EtBH4RsDXHrTZ6d+/v7z++usaHC8I7s9q12OvhQ8C+Kjoh6CgoDPa9+Rv5RNwASrT0Nrnl19+kT///FOTDkhiIBnRpUsX6dmzpyYuLsTzOt82btwo3bp1kyNHjphrzoQRAn379jUvEZG7ST92Qk79OEtOfvuLJK5YK96VIiSk21USdsv1EtSxnXgFBSLTK/GLlmtVcdK6/8y/zAuVm+jrXKH3TeLhU/R5A4ioeGQlJMq/ddtK2M3XS82JL4pnOTcZAXBdX4mf/4+e5wiAc5edni7ZaeniGViyo4AdKfkRADvNEQCHOQKAqIQxAUBERC6hrCcAPv30Uxk+fLjD4L8FSYBhw4ZposCCf8qx7dC2Z9WqVdo6CJPvIglgte/BhLHWP/nom2+17sEpLiMJYNu+p7Be/ecLkhSYLBivAc8fzw37A56vqzzHkvbkk0/q+13QIVvbtm11lEBRJlAmotJjV58hEjdngWQlp0iFO26Syo/eL/6NG5wZNMzKkvSj0RL31xKJen+yJG/cqusQsKk4qJ+E9eohvjWqMvhPdIHFzv5bdt5yj4QPuIMJAHJZTAAQuQ8mAIiIyCWU5QQA2re0bNlStm3bZq4pGILg6JO/adOm3ID/3r17tUIe7XCsQD5a8YSGhuocAlawH49ToUIF857I1aENU/369bV9U0HwPn/22Wdyyy23mGuIyJ3EzJwj0f/7XCKfGy7BHduZawuXnZYm2RmZbhNcJHIHGSdPyY4b75akNf8yAUAujQkAIvfBBm1EREQXGPrtOxv8B1Tzo1f/U089pS1yUAnfuXNnue+++2TMmDGaTPnhhx9k/vz5snz5cvnqq6+0Vz5uw+B/6YEaDcz7UFjwH2JjY2XmzJlO3ZaISp+Q67tKvR8mFSn4Dx6+vgz+E7mQrNRUOfbJV5Ky2fnjPiJyTZibxzhgNy8RuTaOACAiIpdQlkcAjBo1Sl5++WXzknNQFY4Jgi+66CKdEBfV/qj6R0/8stIax92h9z/mOsDoDmdgXgi0Abr44ovNNURERKVDys49krB0taRs2iaZiUniGeAv/o3qSeClF+skqB5FmPA/2biP+MUrJHXbLsnOzBCfGlUlqG0bCbq8jXPtr7KydILtjOMnJePYCUmPPiGB7VqLb2Rl8wZirDsuSavW6+08/f2N59lSfGtWN6+1L+PEKTn0/Oty6vuZkhmfM7F/UUcAoCd8xvFTkn7suPHcjkt2WoaEXNfFvNZ4jFMxOhdIdmqaBHdqLz6VCz+GxkTESes2SsKy1ZK296Cu86tfW4I7XGZs+8bi4e2t65xRmkcAZKFt5vpNuh+mHThsrMkWb2P7hVx7lZS7uJmxHbxyblgIBIUzT8Xq3C14j7D/hN5wte7TkJWSKgnG/on3MLB1c23ndgbsg7gP7IPGvpZ58pQEd75CvMoX3uox48RJSViyShKt/dPP13iM+hLSvYu2gCuKgkYAYB/TfebwUePz6SUBFzXUxylKi7mzHgGQlS0pu/dJ/MKlkvLftpzPufH5DGrfRgLbtjI+TyU4Z0J2tsTOXSQnvvhOkjdvFy/jscp37yzhd90mfrVrmDdyDJ/PhKUrje+US/Qz5ux+RXSumAAgIiKX4O4JgLS0NK3ORi979OZHUBete9DCZ8GCBVrBXRTXXHONTo5L7ikjI0NeffVV7f2fieoiE9o8WVX+9vr933zzzfLFF18wCURERC4PLaoS1/0nURM+lNg/F4hXcJB4R4SLV/kgyUpMlqwUY0lIEp/qkVJ1zJNSvvMV4uFjPxidlZQscfP/kaNvfiQpW7aLT5XK4t+gto6CQfAy/dAR8QgIkMqPDpYKt14v3hXDzb/M6+ibH8rhcW9LdkqquSZHg9+mGo/fQVJ27ZPoDz6T+L//0UCgeHpIZmycpB87qSN0qjz1oAbePbxOB/UQ+D/w9DiJnTlHsozXLJlZkm38Ow8e/n45k3jn+3cbwcRqxmv28PM114hs79ZHEv5Zlfu34NewnjTb8Le2FTr65sdy6vsZ2vYLQWNMHFv9zTESfuetdoOMCDDH/fG3RE2cpHOHeFcKF796dfS61G07NcnhV7eWsc0GSflrOjkVfC6pBMDxL3+QI6+9J14Iotu+FuO1ZhrvvVe5AGm65szj4uj/TZGjb32szz133zGOpTKN/ar+D5MkoFlj3XdifpsnR1//QDLj4sUrpLzxumvqe4J5VHTbVAiVysMHSYW+t4h3aMgZ75fl8Ng3jcf7SIPjtlrsXaXP4eQPv0qUsY8i2YDti/up/PD9EjlyeG6CYO+gJ+TkdzP185HL2J8uWj1H/JvYSRaAsS8iEB/9/hQ58fVP+llC8gcBfzxO6s69msxCcLzqmMel3CUtxdPPz/xjx/InABr8+qWx/2bKsU+/llO/zNHNgM9Ydka6ZJ6KE8+gchJx753GdrpVfKtVyfM5sKeoCQBs16RNW+Xo+A90P/MKLa+JQs+gIEndvsvYBlHG646QqqMe05FzxT0CDvsH9qdj73+mk/F7Gts5ZesOfV7YPrUnTZCg9peYt87H2O+OT/lWvwuyEpOM5x4iDWZ8LoGXtTZvQFSymAAgIiKX4G4JAAT09+zZI7t379ZgP5Z9+/blnsbFxWmLF1Tth4WFyaFDh8y/dM4jjzwi77zzjnmJ3A0SRsuWLZMjR46Ya3IcPHhQWz/BN998o6e2vIwfWpgHwLsI1XpERETnG6rroz+YItEffaHVvOH9e0loz2sl8FJU7wZoFXXGyRg5+d0MOTx6vAba6kx+W8pf09G8h9PSj0TL4Zfelpiff5fA9pdIxfv7StAVbXMD1qi4Tt64WU58NV1Ofj9DHyNyxMN2A3WoaE5YslLSDh6RE9OmS5ZZqV9/5hdaCX9k3EQJurKtPo9yLS/SaufkjVvk4MjXJGHxcvGrV1tqffCqBF91uf4dINgX8/tfmggA3H/ML7M1kI/gHybn9vDNWzUd0LSh8RouzRNAxfNBhT4e75TxWgEJgCaLfpEDI17WoH/Fwf31NodGvaajDDB6AkFGn6pV9PbKOP5M+neTBtTj/lwoYbdeLxH33GkGhXMSDgiKJyxdJcc+naZJglDjNkhI+NYqeJRDSSUAkv/bKvELlkrylh1yavrvknkqRtcjeRLW52atpEfgOb+kNRsketLXmhjBa/L099NkBgLh4QN7i3dYiG4HBJTLX9tJqr/ynI5+sLY79tNTP/0mR155R0dXhNxwtdQYP9phH3xUdycuXyNpBw4Z79fP+t5Ds61L9H5iZv4hFQf1F6+wUNn/8EhJP3xUvEKCpeEf30i5Vs31tjGz5mplOd7nWOM8Jn8vLAGAfWvv4Cclbu5CqfLEUKn00H2atECEHp+llO275fjkabp4+PkZ198rlYffr4mCgtgmAHxrVJMKvXtqoq2csb3DenbTBIqX8ThZcQmSaGzrE1/+IDG/zdXEEZJhFbBv2ySx8itKAgDvHxIPSBhilFClYfdIxN136GdOr09IlFjj9R95+R19vZUevFvnzXEmceUU43NzaPTrcmzSVKnQt5dUeWywIJi6/drexmfugN6kXMum0uivH8UTSb180qOOya47BkniinXmGpE6X30gFW7rYV4iKllMABARkUso7QmAU6dOaTU/eu5j2bVrl1Zqo9ofVf/p6el6O7TrueSSS3S59NJLpVGjRjqpb7t27eTEiRN6m8KguhvtYdD+h8oWTPzcrFkzPc9DOCIiKo0QyEOldPSHOSPWqjw9TCo/PiS3AtqC6v8dPQdoIBrKd7tKGsz4Qs9bUJ29977HNSgZenN3qfnmWPGJdBRATJKjr/9PK7TRqqPWx284rNZFW5z9D42QE1N/1MvV33heTn3/q1R+6gEJva7rGSMRkv7dLFsuu07PI5DcYOaXet6eYx9PlYOoAk5NLfokwMa//Qjsb7r4ag0eIwGACv24P+ZLjTdf0IpvzDFw4OkXdRSDb/VIaTjvhzytSVL3H5Q9/YdJ4uoNGjSv/soIh0HSzJhYOfDsy3LS2A7lLmkh9adPEe/wMPPaM5V0CyAEw49/8b0ceHS0XkagudH8nwpsdYQg/r6hT2tgveoLT0qloXdr0B3B8aS1G2XXHYMl7dARreyv88W7+v7Zyk7PkFM/zZI9A4drYiD0luuk7lcfmNfah6QT9kv8HdT7abJEvfWx8R6N0cRR/KJlsrvfMH1ueB6N5n2vSStbuG7rVbdK6s49hSYATv1oPL97HtWkEoLydae+r+14bKF6/cBT47R1DSr1axj7dMTAPvr4jtgmAJAAQ7V/rUlv6GfgjH0W+2ZsvBx57V0dVYIK9xqvjzb28dvNG5ypKAmA6Pcmy6EXJmhSpfprI6Xi4LvOfA5ZWRIz80/Z+8DTWpVfffwoqXhfX5EitBBzBAmcvfc9pkmgmu+9ogkWJKZ23HS3pB86mnMjY1s2XjJTAo3Xkl/S2g2ytdOt2sYLMEKn8aJfJOCiRnqZqKRxEmAiIiInINiKQD6SFKjiX7lypXzyySdy7733StOmTTVJ0a1bNxk7dqwsXrxYRwD4+flpsPaBBx7QiXgx0e/Jkye1T/trr70mvXr10uvRz//hhx8WHyd6ZnoaB7D4Owb/iYhKoaxsrQLUik6iMip2zgIN/qPFSUDr5lLpkfvOCP5DpnHchX7mlvyfGwT4ot6ZpJXhCEpXemCgw+A/oC94xQcHasUwKoSPvPKu9mm3R/umN6pnXhKJfv8zHaEQesM1dtsQofIXLUEg/q8lOYHdkuDhocF6v1pWH/ZUiXrrI6lwR8/c/u4h3TtL8JWXiV+dmlKh/215guMITB94/AVJXLlefKtWlhqvjyqwQhpB3MgRj4hv7Rpaubxv2LPG+5BsXnv+YT8J7XF1bnA7MyZOkv/dpOcdQfsjlEyEGH8X+ezD2jbGCnqjDZK+HuM4HxX+qGLPD+93WO+bxL9BHa2mR7A9ccVa81r7MNLAv2Fd85Jo8D+4awcJaNZEHxtzW4T27K4jKlBV79+koXnL07wjKohXWIh5qWBIhGlg2XgdCKan7tlnXnMa3mdsO7x+JNdOfv9r7qgUZ2RnZUm1l57Rqn67CSvsm8Z9V3t5hI5sQfJo30MjCt1Wzkgw7uPgsy9r8N//okZS6WHjO8PeczB+J4Xc0FWD6kg0YsRD+tEzC8yKCvM4HH5hglb2R9zXN2d0BX4brvtP98FcxjbAnCD2xGFuDjP4D/4N6+XcD9F5wgQAERGRHQj4R0VFaRuWadOm6SS9CNL37t1brrrqKunQoYMMGTJEvvzyS63yx+WBAwfKmDFj5MMPP5Tp06fLkiVLZNGiRdqqp1+/ftKwYUMN4NszdOhQue0240daAUkA/C0eu6gTBhMR0YWXnZYuMb/+Kbt6D9FKRgSSiMoanQh3xCu5/c3RRsNRGxKfiuFS8YGBWkWOli1VHhtiXpMj6b+tcuLr6fpZ8q9fRwIvObPqNj+fShES2uMaPY9KdVT1OmZTGZ2ZJSE3XiseXo5DKFaVPZ4PWriUrJznlrbvoHiHheapWkd7mnrffKRtZRC8t02unPjqR20rAxh94MxkqdhmmNcAkNyI+dX4e+M4+ULxrhgh5bt11vcCk9zG/jFfExuOoC98yvZdZ+w/ENC0gQS2a6OBWyRMgjufbt1kCyNVQm7sZl7KSWIV7vT+g/cp7ObrcudiwHav+c44aTjnW6n5/qsOA8EetvtgAYKuvCwn4YDkQusWDqvKMZmxzmFgwD6KUQHOQsV6+avPbMGVH0ZJoP0Pngv+3TvwzEvnlBDDczw08rXcfzOrPPFAbosme9CWK7xfLz2fvGWnpO7dr+fPRfz8JZJ+NEq3X3CHnJEaSEbELfgnt80TlGvVTPwbn04c2oqfu8g8lwOjOYqtPRGRE5gAICIiMiDgf+DAAfnxxx+1x3rHjh3liiuukFtvvVWD8wjsf/bZZzJ//nxt2XPnnXdq26KlS5fKwoUL5fvvv5f3339fRo0aJf3795fLL79cIiMjHQb886tcubJO+IokgqP+7TfeeKM+ZoMGDiYAIyIil4Rg56HRr8neoU9pNWTy9t0aGCEqa05++0tuQM4rPExCunXW83Z5eGj7jga/TJF63086ozULJtRE33tAT3LPAOfa6FjBbLRLQfW8bVWuI5gU1rai2x60SLFkpZy/UT5Bl196RiARlcqoLrd6+gMqstF+yGJth8IggYBqZVTCZyYkaAIhMyHRvPb8w2sK7d5Z++ij5UvsnPm5+4E9J3+YKf71aot/0zOr7H0iK0vtj16Xpit/lwa/fy2Bl1xsXnMmn0qnJ45GxX1ReEdWyjOiBLA9kTTSSaDPEdr+NJj1lTRZ/pvU/uxt7ddvj2ew8VjmfpoVG6ftjZylQXdP5xISmMPCp2plPZ+yebvEL1ym589G4vK1xn1s0/N4z51J9AVdntPaCyNkYmf/refPmvEbEe22slLTJeKePtoGCTB6CKOPbFV64G67yQmMRoj/J6eVGeA2AU0a2B/FQFRCmAAgIqIyI8v4kRAfHy9Hjx6VnTt3auB+woQJcvvtt0vNmjWlVq1aen7ixInaYz85OVnKly+viYDRo0fL7NmztU//1q1b5YsvvtDWPm3btpU6depIpUqVJDAw0OmAvz1VqlTRtkI7duzQJESXLl00EYEExPr16+WXX37ROQNQhURERK4PLROSN22T7df1k6j3JmuAssbb46T2pAl5qnKJygTj82D1RIdyzZsWOEEoIEiKCWx9qlTME1hD8B4Tu1r86tcxzxXOr8HpQH7a/kMSv2SleckxvwZ1xKMox3jnsUDe0TwG+aFdCXq6g4e/v8Ne6/ZgFIC+V8brSly5TjJP5kzCe6EEXn5pbj/81F37JOb3eXo+v8zYODnx+Xc6f4RV+Z6fd8VwCTD2RYwA0HZB6RmaLEGQP3XvAZ14OHH1ekndfbqSHN/tRYGWPwVVrZ8r3DdGfmB+AavlE4LOGHGTduiosY326oiZpNX/SraZnMrOwk5aMjuqV0h58W+c8/6ggh+tlc5q1Bva7GzYrHMLAL4HslPTdURBQYsnEmLm7yUkIM6JcT+VHxsirWK2SVivG8yVohNo5/b+N+gIko7tzEt5JfyzMne7AyY11/2Xv+noPGICgIiIXEZqaqoG2I8fP64T6J4rVPUfOXJEe/J//vnn8vzzz2swHVX9aNmDADsC7TNnzpRy5crJtddeq0H9V155RT799FP59ddfdULf33//XV544QXp3r27VKhQwbz3klO7dm15/fXX5a+//tIkBVoKtWzZ0ryWiIhKAwQ7Tn0/U/YMeFgnMQ259iqdmLHioL5M5FKZlH78ZJ5+3KiqP1uYPDQzLsG8JNouyFkIZttypke5h3fh8zRdKJjTwBmYyNVqV+IVHJhnxEJhPMsH5W4DBJSL0ju+JGAUQOXhg8xLOXM0ZNkZlXDs02nakz3kmk6FBlvTo49LzIw/5NCo12TP/U/IrtsH6cS/B599SY6+8aEkrlpn3rLo/OvWMs+VvJRtO+XY5Gly4PExsufuR2TXHYO0F//h0eN1BIgVTC9J2Le8jH3GghZIWYlFnzsCI+XSDhzOTR6kH4mWgyNelr1Dnipw2f/QczoKBm2LvCKK57db/gTg8ak/mOdyBHVoK97h9h8r9s+F5rkc2DYYJUF0PjEBQEREFxyC/v/884+22EFP/alTp2rA/u+//5aYmKJVGEVHR2tA/5lnntHqeQT60Vv/oYce0sA++vmvXr1aatSoIQ8++KBOzovLc+fOla+//lrb8Dz55JP6N61bt5awsDAGaoiIqEgQmDzw5FjZP3yUpOzYoxNP1p78tgRdcWmJVoESubKsuHit3LdoO5KzZFt5q4pSnZ+vj3/aoSPmudLJw8+55ERGTNzp1mM4ti3K4a3N7dEyKf24/cmTz6eQbldpT3ZI3blXTv54enQJZBjP8eS06RJyfVetzi7IiW9+lh03DpC9g5+SY5O+1pZKVZ55SOp8/o7UMb67a3/yhoTderr6u6gKG+lSHJDAQNB/xw13ycGnXpT4Rcsl8JKWUmPCGKn9qfEaPntbarw1VrxtWhmVGE8P7cVvyYzHZ7/obe8Q+M9KOt1jHxMxR45+TKq/OrLQpck/v0qTZb9J9ZeeNf+6+KTs3CPJ6/4zLxkv199f5ymx19IHn5eExSvMSzl8q0Vqiy6i84kJACIiuqDQ2qZr164amMeku7GxsbocO3ZMJ9C99NJLtRI+w+YHI0YKnDx5Uvbt2ydr166VyZMny7333iuNGzeWqlWryk033aSBfLTxwW1RtX/NNdfI+PHjdWJeJBVWrVol7733nk7O27x5c20BFB4erv39GfAnEkkyfnDhc4i5Mfbv36/JtTRz0kYicgyBgb33PaaVlggi1Xz3JYkcOVy8w8PMWxCVTdo72+N0CCI79ez/TbHtbQ9Fai+Smbd9i6evn3nORWRlScbJU5JlHMM6xcnjVp2A1urhjhY2RZnI1/b2xuNZfdAvJASYKz1yf25S9djHX0pmvDkKwHiucX8t0aB4pYfuNV63/dBXZkycHHzmJdl7z6OSsmmb+FatIg1+myp1PntbJ4tGj37viAra0sYVXrMj+HcHoxWiP/xCMk6clNBbrpfGS2ZI1Ree1BZRvtWq6GTRaD1j+xksUTb7F96rIrXQshh/g+B6Lm9vTeZgPg5nF7R4Km6nfp6d5zvHq0KIJgDsfRbx3iAZZSv4qstZDEDnHRMARER0wSAIf/fdd8u///5rrjkTkgEDBgzQljyo7H/77bfliSee0MA9gvqYbPf+++/XkQPo2d+pUycZNGiQjBs3Tv9m1qxZ2sZn+vTp2u4H/fzR7oeIzoR5MjA/Bj47jzzyiPTp00c/a3fddZf07dtXP0P43KK9FhHlhcrmmFlzZU+/YRLz+19S/uorpfaUdyR8wO1FarVB5K68K0eId9jpPuzoS362dEJXmwBa+mHnq/jzT+Aa0KKJec41ZMTGy6HRr0vSmg3mmuKBqmNrouTM+ATJSnZ+omL0cbcmjEVi0zcyZ4LXCw0TGVuT+6LFUfz8f/R8ZmKSxM5ZUGD1f1ZKqkRN/ESiP/pCL+O+6k2f7PScCq4CyaJ9g56U+L+XaNC90rB7pObbY8W7woVLOiO5l3HspHnJ2PdqVjurCW+R6MPfavLKgP7+55I4LA4YRRM3+y/zUg5MJu3fuL55Ka+UzTvytCuD8ld3NM8RnT9MABAR0QWRnp4uI0eOlA0bCv9xc/jwYQ08IlmA1j4ffPCB/PHHH1qhjGr/d955Ryv7FyxYIN9++61exu3Qxufiiy+WkJAQVvUTFQKjbDAB9g033KDB/0OHDumcGUgGYJTNY489pp8xJAMwNwURnYbA2PHJ38i+B5+V5M3bpeLg/lJ70psS3KHt2VU9ErkhTz8/CbryMvNSzqS0Rarct4Ge/4Fm+xdI3rDVPFe4lO27zHOiVbjlu3QwL7kI49/jlG27NOhenBAot/qyI4iaUoQETEbUcclOyRmRgMlLvULL6/kLzadyhIR076yV4uhtH/vHfJ38FpMdJy5frd/FjqD107Ep3+q2QFIj4p4+WvHvmP3ih7i/l8jJb2dI9gUaJRn9wRRJWL5Gz/vVqyWRIx7REQtFgbkhjo7/IPd+zhWSK+lROYk2THgf0Kzx2Y2gMH6/BbRoqu8PZByN1vfXWfh+OdvvGEcyYjFB9Om5TACtqPD9lh8mi07etFUyE04nALxCMVrgYvMS0fnDo1EiIrogli1bVmDlf34JxoFTaGioVvejXdDevXu1Ncl3332nwcp27dpJnTp1pGLFihIQEMCAP5GTrKp/THKN+S/i4+PlzTfflNmzZ8vtt98uDRs2lPr162tiAIk3TKyN+TIw4oaIcqQdPCxH3/5YA0BVnh4mNcaPFp/KFc1richS6YG7cyuBUc0b98ffer4waQcOydarbpVEqyreOM6rNPx+8fDJGV2TvHnb6f72hbDtxx3W+ybxrVHVvHSeYA6CAg5TdZSd8W+zh1fxjhwKaNJAgjtdbl4SSVrt3AgDjBRI2bFLA6kYzRRybSdti+MK9Pl075zzfND2Z+5CDeyfmPaz+DdpKP51HU+QnLhqvWRE5QRyvStFSHDXDrpfOeJo4uPEleskds58Y/873a70fEF/eYw8s9rtRNzbVye+dSQb/fTtBMQzk5Ll+JffSfKGLeYaO/AY5uMUBpP+Yl4G8K1R7Zwq3pFI92tYT89j5EqcOcqjMNhfj7z2nuwbNsJcUzyyk1M1sG8LCQ57sozni6IAyTq93YI7XpZnfgSi84UJACIiOi8QZESP/6VLl2q7HrTyweS/RYF2JKj+v/POO6VWrVoM8hMVgx07dsg999wj8+fP1wTahx9+KIMHDzavzSsyMlJatWqlcwJgBI4jmCsAn/ddu3bpPB8rVqyQxESzL28phRESSI7YLnhNzrRDwvdfSkqKntrCSCgsVPr5Vo+Uai89K7U/ekOqjnpUPHz5457IHr+6taTyY0Ny22JFvT9Fe5YXBEHOkz/MksxTseJfv465VqR81ysluHNO0DZt/2GJX7zcvMaxtENHJea3eXoe1dKVH7lfz59PaINkfUdknoo5I3GBinQEOr0jir+FS+SIh43XnRMUP/ndL9ojvzBpB49I/KKcpAmq/8Nu6+FS/cvLtWkpgW1a6Hkkio5/9o2c/PYXCenWucCRCuj/b/HIN2ltftr2Ze4i81I+CO7iN8kF+FmC52WNzICCgv+QtHGLZMaeft25NLhvnFpzRNiRZRzzJP9X+EgbBN4xKgGfWyToKj82WPzOYcJbvKZqY5/SynnAXA/pxwr/DZm2/5DEzv5bgi6/1FxTPLxCgs+o9scoB3vSo47pSCdb5a/uZJ4jOr+YACAiohJz6tQp+f3332XUqFHarx/992+99VZ58MEHtZ9/ZhGHZCKgSETFB0F8zKGBxByC048//rhW+ns5+GGPkTibN2/WBFxBc2mgXRA+75jgu0ePHnLLLbfI9u3bzWtLDp7bmjVrnArKFwWC/2h9hEnJbZdLLrlER0MUZvTo0Zo4admypZ7i73AeCxKbpT05QqKBo7BbrpPQm7rlBIKIyCGMAkBvdnxWEpau0olLC5rwFlX/xz6YIpUfH6zBN4t3hVBNuKG3Pfqg6wSoJ2PMa8+EETrHJ0/TuQc8gwKN+xsqAc3tV+6C1fMesjMLr+62bTWCOUEc8W9UP2cyVgMCqvkDsmmHj2qAHVXpjtjev+3zLIxf/TpS851x4h0RrgHSQ8+9WuBcAFpFPe4t7a+P9kE1J74o/g3qmteeyfZ5ZWUUb+sVRzz9/aTSw6cTOcc++lKD8iHdryrw+ziwTfPcRExGTJwk/7tZz9tzYtp03W+s1jrph47qKWTExIoX3s98c73Y7jNFeY9s5d6HcVxj79gGo2nQIscSM+MP89yZ0Obn1PTfxSssVC8jQJ9+PGdUQ1ZSir7XBe5zxsMffPYVY785aK6xL/r9KRLz65/Gk/OUKk8+IOH9bzOvsUMLI8zXhfMOjt+CO7aT6q89p4H2lC075MCTY8/oq28L+/T+R0aJt/F+aYuoYoR2ROUuaWleypG0Pm+QH9Cq6MBjYzQpZcHzD7q8dM0xQe7D6wWDeZ6IiKjIUL0aFxcnx48f16rgOXPmyP/+9z8ZMWKE9u1HcAzBRVyPiv3g4GBp3bq1VhKjhU9RAnWdO3eWbt26mZeIyp5jx47p5wvO9RAOAf+xY8fqZxSfwyZNmuh5e8F/XI8RO88995xs2bJF59ho2vT0D878MAIgPDxcRwDs3r1b5+F44IEHJCysZCekQ4swfN+gnZG/v/1qrLOFJECNGjX0NaCFGVoh4XsN848gORAUlBPMsQd/i9ZkSGKuW7dO/6569erSpUsXufrqq3WuEk/2iS/1tNc/g/9EhULQMqhdG+2NnX7gsCQsXmms9NIqYW3pgxY5GZla8Y+e5PseHCEh114llR6+Tzxt+4gbnzcE/4M7tpeERcu0pU3yf1skoHkTvZ1OHGr8+5WNnvBHj0n0u5Pl6FsfiXdYqFR9/nGpNKj/GXN0oI98xrETknb4iERNnCTph3ImF0aAFIE7rbjOzMyt+EWFb+bJGOO1bNf7xvMGT18fCWjaULISk/U12VaX+1SKkNRd+yR5/SZNWKAiH5X1eC547P0PjZTAy1pJ6A1X546UgNOPtS3nscyEg4e/n46syEpI1KAjJvotaO4R9Ln3NbZ18vr/JGHZap0U2b9hPQ2Ga2W/cXyA+0rdvU/2PfCsxP46R0de1P3qAwm6ou0Z33MYRZB58pQkbdgix6d8q21PAO+zf4M6el8I0lsTuZYETPQbN2ehpB8+qkmI8LvvkAq33Whea59X+fLaAghJGDxH7G+BrZqLV1Cgbge8z1h38vuZcnTCh1Jj4ouSFRMnKTv26HYOaNlUW+ccGTtBwvveKoGtm0tmTKxOfou2cFFvf3y6V3x6hpS7+CKt1s9KSMrZ1vkSBha8H3ifE1f/KyenTdfnhv3Yp1JFnRAX94H9z/o3p1ybFhpwz4yPl7Q9+7U6HRPSYr/Ab68sTMhrvEdHXn1XMo5ESbWxT8upH3/V7ZSVmiLljNcc88tsDWJXf/Fp4706ffyExz7xxffGY6ZI5Mjh+h6iuh+JM6/QUN3P8RzwuUg/HCXR73+mj+NZzl8qP3SfRD7zkL73tpB4wJwSeI1oARY3Z4H+fVZSkvbS9wosp3MI5L5GMB4j4KJG4hkcqG2Kkoxtg0REQGPjc+NnfNax3xrbCKM68PnY/8hITdLUnDjO2Hcdt4E6K8ZzCWx1kZz66fec98aQcSTa+E5rra8Vo3cwgffe+x/PaTdm81MX3wmYa0ITRkTnmYfxg875yAsREZV5CGQh8IW2IajoRe9wnOLynj17JDU1VQOIVapUkXr16mnv8Lp16+qpdRm9/NFfvH///nLyZMHDvi1+xsHsDz/8IDfeWPDBPJE727RpkzRrljPp4bkewiGQj2p/fG5h0qRJOhrAggQBPp/4bGO+jhkzZuhn/emnn5YBAwZoQLsgeH6o/MffYQTQN998o0mBkoRgOgL/U6dOLbFkw6JFi3RuBIwA+O2333Tdvffeq4kZfE8VBMmJXr166eTlr776aoknRIiIXBmCpcen/iinfvpNA2Y+VStLUIe24lulkgYA0TsbAfGwW6+XiPv7aeDckdT9h+TElG81EIoAalD7SzQoLt5eGphMXLVOg7blr71KIu6+Q6+3B8HNY59M1cpo7Zdu8fDQUQPeoeUl9KbuUm3cM7p61x2DjOe5Q9Kjj2mQN5enp7Ys8QoqJ9UnjJGQa/K2/UDV/+EX35KT383QIGLozdeJd+UISVq5XtvW1HjzhZznbyP3sdC33jgez4XHCgvRgKlv9apSe/Jb4lu1inmlA8a/0Qj4Hp/ynfbNNw7eNUBtzYeAHu4IQCMYXL5bJ4kY2EcCmjQ0HuvMJOfu/sO0eh6jMPJP0OodHiae5cpJnS/f1eBuSUJ1+56Bj2jgu+mK2ZoUKAxGQZz46kc5+eMsSdm6U8o1b6ITVfsY2w/7Z/LGrca28ZBKQwZI+a4dtdf/gcfH6IgIvDbfWjWk/NVXaqU7KsOPvvE/OWHs0+nHT0q27VxJxv6DoK+ncRu0gKr+6kgJusJ+a5qdt94rqTt2S/qJmLz3YRz2eVeuKAEXNZRaH47PM89M4ur1cuzTaRIzc45W+gdf2U4C27XRQDzaYyVv3CL+jetpyyuMQDny8kSJeudTnWjar25NY1vVkooP3Suh13Ux7zEHJlPe1uU2HRlQ77uP9b2Mem+yxM9bpMkITVz5+uhnLH7xipzPXrvWEt6vl5Q39nkrUWYLE1zvf2iEpBl/o58b25Eixr6MfdevUT2p9b/XzvjMYyQFWn0hKRG3YKl4+vlKYNtWut96eHppiyMkrrBtKw7qL4H5KvWLU+KKtXL0rY8l7s8FOuIA31/+jRtoIiN1xx7xb9pIUjZt08+FpULvm6TmB69qkonofGMCgIiICoUg4PLlyzXwhQDWwYMHtRUIemAj4A+VK1eW9u3ba9uPtm3bSrVq1bQiFou9SXnR8gLVrytXrjTXFAz3PX36dE0sEJVVxZkAQMB/+PDhOpkvPp8dOnTQSn3cL0b1oIUX+tbjs16+fHkN5iPw36hRI4ctgmxFR0frfSKB8Oijj8rrr78uPiU86dn5SABgjoTXXntNJ0RGS7OtW7dKRESEPiZGHhQECQNsQ3yfNmjQwFxLRFR2ZWdmScbxE5K6fbckrFgryVu2a6se70oVJbjDZVKuVTPxrVYlTwW9I/i79GMnJcW4D9wXgnCo4vatGimBl7SQgDYtxLdyRQ1iOurXjn736Muvj2cb7MY/uca/j6ia9kBluxmc1wk+jfVa3W57rKu3z5KslDTxrVlVvCuc+W+STq67bZfEL1khSWv+1SB86PVX6yShaNGTn8PHAjw3Y1vi9aKaH4FRZ2QZ/86nH4nWAHHiyvWSarZ38a9bU8q1bS3lLmqkQef8Vdy2ciY5zcqpaMfzsp4atgFGExi/FdB6qKSDnghmI4GDxAkCrc7KzsjUQHfK9l2SuOpfSdm6Q1+HT5WKEtKtiwbcvTHJsLEO7z9ausT9tURHWgRd1lp8akTm9oTHdahCP2P/AWt7GPfhV6Oaw/kJrD77uj3z7YN4f/E8/OvVzm1fZEHgH3NcJG/crK8j7chRHQmDCWoxXwYSItYcAUiwIemWtH6T7p8IontXDD9j5Aiq9bFvIJllJaQQhMcIh8TlazUYj4C3l3H8WK51cwlsbXzGjPuzWiXZgyQRgvTY33NGMZhXQCGv0ZIZn6jPIWntRklavV7nBECyCq150PMfVf/WZOMlxvjMYZ9LO2A8jw1bJGXzNslMSNQEBloWeRn7zObW1+r3EmCUQuSYJyTyqQf19RGdb0wAEBGRQrUvgvII9sXGxmp18OLFi2XhwoXy33//aUsPBP2soD6q+NG/umPHjrogmOXtYCirIxgFgNYZhU0GjKAkqmUxMakzgUcid1VcCQC07kIl/8SJE/UyPr8IXqOCHckA9PevWrWqLnXq1NF2P/mTeIVZsGCB3HHHHfqd8s4772h7npJW0gkAJDyffPJJbeHz1VdfyRtvvCFjxozR78fbbrtNPv30U/2+sgfv14QJE2Ty5MmaNCAiIiKiUgRB/4REyThxSgP6PpUjxMO2LZnFuF30J1PlwPDR5grRBEvdr/+nyQGiC4EJACKiCwzVt6iwRwC+QoUKEhh4/oYEosIX1blWOx/rPNr6xMTkTKJWqVIlDQ42bNhQT63zaOdTHM/1l19+0bkC8Jj2INHw4osvavCwuHt6E5U2xZUAwOcbbWt+/vlnvYz+/G+99VaxfsbQEgeTCuMzjNE7l19+uXlNySnpBADmYOjdu7dW8Q8cOFD27dsnN998s6xfv14To59//rm2+LEHCdZhw4bp9+YHH3xgriUiIiKi0gAjhI689LbEzVus7Y0qP/WghPe9JWe0hg2MBNl580CdG8QS1usGqT357QJH0xCVJMczwxARUYlC4H/KlCly1VVXaQV9p06dtM3Nm2++qdWlJQFVv2i5gyrUnj17ymWXXabBq6FDh8q4ceO0Rzeq/TEh5fPPPy9z587Vlj8//fSTvP/++/Lss89qlWuLFi2KLVGBnv4zZ87UU9ue4mgVcskll2iCAMFJBv+Jig8SjmjvA5h8FpX+hfWvLwpUyiNZgVNUxDuaMDgpKUkD46UFWiNhsnP0/4eaNWvK6NE51V0Y6YBRFTi1B3+LbcKJzImIiIhKn6iJn+gcD2g/lLJjt8RM/00n/c0jO1tiZv4pKTv3mitEJyuvPn4Ug/90QTEBQER0nqFqF9X26JOPClwE5Hfv3q0TcW7cuFHbS6BSFoH3s6nwxd8guYBKVdwvWvi88sorGnTCCAME/RGk+vvvvzUghUA++vYjAYAe/xgVMH/+fBk7dqxW06LSH/390RKkqC1AnIGWPk2aNNH2I6gWfuihh7RKFud79OihgcOithYiooIh6O9rDlnG5wtV+sX5+cZ3y+bNm/V869at9f4tCPjje6lPnz7Spk0bady4sbYCw5wBrg6vCSML8F0K2GaYBwALzuM7F9+lmCw9P4z0QrszR8kQcj3oQ4yeykREREQnvv4pZ44CMI77vCqEnVH9j/lHot//TLJT0/Q2mFC69mdv6wTdRBcSEwBEROfZ6tWrNfCFSntH0IYHATFU4DsDVbQITM2YMUOr+zHhJnpvX3nllTrR7siRIzWhgGD+7bffLiNGjNCKfrTl+Oeff7QXP26D21/ISntU/WMyzYoVK+YZDUBExQufrxo1amjQGkk4KxngrCNHjjisdAe0GLISANdee62eAgLkGF2EPvgYTYRTjID64YcfdHF1mPj3oosu0kmRbWEUAEYDANoP2ZvcfMWKFXqb/H9LrgmTacb9uVD2P/Z8zmSFREREVKZ5h50uaMGkyBEDe4tXcJBezkpNk9g//pa99z0uqXv267qA5o2l5rsvSdAVbfUy0YXEBAAR0XmEQD0mifz333/NNY4hUIZAPSry80P7Dlz/xRdf6CgCVPCjgh49qZ977jn55JNPdAJfVKoOGTJEW/ssW7ZMfvvtN3189NTHbTHSAD3+S6Kyn4hcF9r9YDQQRgChTQ9GDDk74igqKkruv/9+bWHmCFrd4D7x3WK1vFmzZo3069dP6tevr5MPIwGA22EeArQnw+Tjrg4jp1DBjxFRtrDuzjvv1GQKts9nn312RmujOXPm6PwNjiYJJteStGGzHHjiBR3qH79gqbmWiIiIyqrIkcMxjFbPh/S4RrwjKkjGiZOSsGyN7Bk4PCf4v2uvTgxc6cGBUn/6FAm5rot4eHvp3xBdSEwAEBGdR4cOHdIKUgTwnbFr1y759ddftec0JplEYL9///5Sp04dreZHEH/atGly4MABDTxhgl600EFl/+HDh3WUASbixIgDBJ6qVaum1ae4LRGVbUgAVq9eXb+P8F1RUEU/IFGwdetW/d5BcBsBfEcwegkJBXzv4Dvn22+/lcGDB8sLL7ygc3pYLXSCg4OlSpUq0qpVK01iujJMVI7gPoL9+ZOmGEFx9913S926dXV7YjTD2rVrzWtz5l/BaCv8bXHOtUAlwNhvU7bskN233S/ph6Ok8qODJPyePuaVREREVFZVuP1GqfnOOPFvVF9OTv1Rtl5xo2yoe5nsuL6fJCxcJl6hIRJxbx9p+Mc0qf7G8+JbPVI8+LubXISH8eOs6A2miYjorHz33XcajHcWgkxoGYGA0d69eyUtLU37ddeqVUsaNmyoAX9rwWXctrQG95GoQMVwfg8++KC2BCKinMp6BNXhXA/h8Pfff/+9DBo0SNtvYXTQLbfcYl57GgLaaEuGZCMWtOx57LHHtBWOvdFDuN9GjRrp3yDJgPOZmZnamgyBflvWZMFo/WW10LGFx16+fLnOS2Kvr35+GBWF14Ke/IW1M8Nzx2vBROzO+OCDD7TF2l9//aWBfnvwPYY5TAAjs1D1j1EWeA2YeB3b29nHQ9IAcyVglBYmXqfzI2njFtk35ClJ3rRNKt7fT6q+8GTu8H4iIiIq44zj3LTDRyV583ZJ239IstMzdHJf32pVpFzrFuIdHmbekMi1MAFARHQevf322zq5bVFFRkZKhw4dNFjVrl07DYijcjYoKKjIvbtdFRMARIUrzgQAIDCPxCQC+ri/vn37yj333KMV+hixhAD2vHnzdJRReHi4VvB37txZv3scQeAfE/sieI+EJU4RxEaScsCAARqcR3syZyDo/9JLL8nLL7/sVAKgKJAAQLD+vffeM9cU7KabbsqdJN1RojUlJUVuuOEGbRWEiZZfffVVnXQd2+3rr7/WuVgK+j7DJMHWhPC//PKL3v6pp57S+6CSl3H8pOwd9ITEzlkgoT2ullofv5Gn3y8RERERUWnEFkBEROcBAmBor4FgW1Ghhz/6/aNyFO19LrnkEh0BgACduwT/iejCQCAbvesR5L/uuut0QvAbb7xRK/ex/qefftKe/ej3jyp2XFdQ8B/Q/gffefiewnwnmPgciTz0+EcboPbt28uGDRvMWxcMCQRMsItJh9F+p7AFE5lfc801sm3bNrvX51+cDf5HR0dr8gWTqhc0ygqjDhD0R4ID2wCTrSOYj1EDaP9TWDIT87WgRRImEcYcDcePH9eRX1TyshKT5ODo8Rr8D7qstdT+bCKD/0RERETkFjgCgIiohMTFxWkPfwSitm/frlWxmARzy5Yt5i0KFxAQoKMGEDSz12rDnXAEAFHhinsEQH4I0iPYjmQlWtegP39hrXRs4TmhjdCMGTO0pz+q3q1+/5iXBNchuH377bdrUtOCQDda3mC007m4+uqr9flOnTrV6VEGzkDVf+/evfV1IYFREEz2jqr9jz/+WL+3kTRBJf/zzz+v32fOwpwBGPk1btw4GTVqlLmWSkJmXLwcfmmiRL83WQLbtZHan7wh/g3st3kiIiIiIiptOAKAiKiYIGCG4P5HH32kff4RJOrRo4cG71988UX56quvdBLJwqpnbVWuXFm6devm9sF/InINISEh2r4H/f1r165dpOA/IIm3efNmPY+Kd7Qqs1StWjW3l/3Bgwf11IKq+c8+++ysRkmdD3hNmFsAI7AKU65cObnvvvv0+xtti2bNmqXbBd/l5HrQu/fYpK/l+KSvxKdKJan+2kjxr1/HvJaIiIiIqPRjAoCIqIhQpYo+0Pv379eKflSu33HHHVK9enUNeKF9w8yZMzXgg+BZmzZtZOTIkdoTGn83adIkpyraEUTC5JwIwhERlQYIlMfExOjopSZNmmjQ3BZa6QC+Ky2o/v/tt9+kZcuWLjmJOSr6161bJ61btz7j9TiC2957772avMW/GZg0uF69eua15Eri5i+Ro2/8Tzz8fKXWh+O1/Y/xxpnXEhERERGVfkwAEBEVAi0tMBkmWkCguv+ZZ57RiSzRagJV/phEEpM1onIWrR4wye/EiRO1vcXixYs18D927FidOBMtNXr16iVvvPGGTorpCCbbxKgBPBYRUWmBBADan5UvXz5PkN9ijQDAZLmA4Dra2zRv3lz767sKVO7v3btX2/C8+eab+h2PUQuYKwGt3RDUL8wTTzwhrVq10vPXXnutnpJrSVy1XvY/MkrEQ6TG66MlpHtn8xoiIiIiIvfBOQCIiOxITEyUZcuWycKFC3VBAiA+Pl4XK3BVrVo1nXCyU6dOOlkjgvZod4EFE1cWBG0u/vvvP/nkk0/k888/1yAYoPoVowkwigD3WZYm+eUcAESFK+k5AM4Fvtcw2mn8+PFy8cUX63cnEgG2EFRHL320S0OAHHOjYB3mCsCkweequOYAwLwtN9xwg37nY+QWJuJFNT++59HG7ffff9cRDoVBwuCmm27SyX179uxprnUO5wAoWZnxCbKz592SuHq9VB4+SCJHPSae/n7mtURERERE7oMJACIqs/D1l5ycnBvYR39+VOwvWLBAVq9erQEfBORRtY+gfmhoqLaoQMAfS/369YulXQWC3rt375asrCypU6eOTrpZFjEBQFQ4V04AwKpVq2Ty5Mnavgztz+yJioqS7777Tm9rtU3D92txKK4EABK9+HcASQ20M/L09NRRAfg3A4kAJGixvjD4dwTJ3kaNGum/JUXBBEDJS968XaImfiLVx48S77Di2QeJiIiIiFwNEwBEVKag0n7Pnj1a3blt2zatPsV5LFbwGUGjBg0aSMOGDfMs6N9sO6ElFS8mAIgK5+oJgAutuBIAroAJgPMkK0vEk11RiYiIiMh9MQFARG4NVfWYrHfRokVa2b927Vo5ceKEJCQk6IKKTkzqiL7UqOrv2LGjNG7cWPv5o80DJuJF5SeVPCYAiArHBEDBmAAgIiIiIiLKi1EtIjpvEKxC8B1Bjfvuu097RGPixz59+sjcuXMlOjpaA/ZnA20aYmNjdZLGDRs2yJQpU2TgwIFayV+3bl25++67Zdq0aXo9+vMjyP/oo4/KrFmztB0FWj1gokf0akarBrThQQKAwX8iotID7Xn4vU1ERERERHQaRwAQ0XmBr5p///1XxowZI3/++WfuRLoWBOVRfT969Gg9dSaAg4SBbQsfa9m1a5f2acZ9YFLJ/K18sNSsWZNBIhfDEQBEheMIgIK9/PLLmhB+6qmnnOrR72ri4uJ00nm8hpkzZ+qkyrfddps899xzOrIBoxrK6jwxTsnKkqQNWyRt/0HJzsoWn4gKEtCqmXgFljNvQERERERU9jABQETnBdrw9O3bV5YtW+awyh+Vm6jMx+SQGBmQH/r3r1ixQifqRUufffv25U7gi4A/vs7Cw8Pliiuu0HY+OK1cubL27cfi6+tr3hO5IiYAiArHBEDBEhMT9d+Y0jpfC0bDTZgwQZMXMTEx+nrwbxf+bUtPT5euXbvKk08+ad6aLNnGe564fI0cffMjSVq3UbKSko2VxnGFn68ENGkgFR+4W8Juvs68NRERERFR2cIEABGdF0OGDJFPPvnEvFSwzp07y1dffaU9+lHRv2TJEg34r1mzRtLS0sTLy0t786NFT/ny5aVp06Y6auCqq67SwBhGE1DpwwQAUeGYACDKC8H/2NnzZd+QJyXj+Elz7ZmqvvCkVH7kfvEsV/pGhhARERERnQsmAIioxO3du1datmyprQ2cgdY8mB8Af3fq1CldV6FCBalfv76278EpevtjqVevnoSGhuroASrdmAAgKhwTAER5xcyaK/uGPl1g8B88A8tpEqDSkAHi4etjriUiIiIicn9MABBRiUM7A/RjLgq0PGjbtq1ceeWV0qFDBw36o9ofVf+o/mf/fvfDBABR4ZgAIDotKyFRtl3bR5LWbjDXFCygeRNp8Mvn4lON8ygQERERUdnBCBoRlQgEptC7OCoqSrZs2WKudV6XLl201/8rr7wi119/vVb+Y+JDJAAY/CciIqL4JSslbc9+81LhkjdukYQVa81LRERERERlA6NoRFRs0OJn3bp18v3332vg/qGHHpJevXrp5aIKDAw0zxERERGdKWXLdsmMjzcvOSfu7yXmOSIiIiKisoEJACI6a5iQFwH/d999V2677TZp166d9OjRQwYNGiTPP/+8fP7557J69WqpVq2a+RfOwwgAIiIiIkeyUtMkOzPLvOScrMRE8xwRERERUdnABAARFQitfJKTk7U3++7du2XhwoXy6quvalueyMhIad26tTz66KMye/ZsOXHihAQEBEibNm1kxIgRMmfOHDl69Ki2AGrVqpV5j4WLiIiQAQMGmJeIiIiIzuRVPlg8fLzNS87xqVzJPEdEREREVDZwEmAiOgMC/rt27ZIdO3bkLjt37tTTI0eOSFZWlk7Ei4l5GzRooIvt+cqVK5/Rp//nn3+WoUOHSnR0tLnGvuDgYHn55Zfl4YcfNtdQWcFJgIkKx0mAiU5LXLtBdvW6T9KPFHxsYfEMCpT6P0+R4CsvM9cQEREREbk/JgCISAP6W7dulSVLlsiiRYu0rQ/6+SckJOiSkZEhHh4ectFFF8mVV14pHTt2lBYtWkhISIhOyovFy8vLvDf70C7o008/lWeffVbiHfTr9ff3l6efflqeeeYZTTBQ2cIEAFHhmAAgMhn7f+q+g7Kr9xBJ/neTubJg5a/uKHW+eFe8w8PMNURERERE7o8JAKISho8Ygulon/Pll1/K+vXrNeCOSvm77rpLmjdvLhUqVDBvXXIQxE9MTNQFAXhU+K9YsUKWLVsmK1eulNjYWA3y+/n5aRU+gvpo8dO+fXsN+F9xxRUSHh5u3tvZwev+9ddf5e2339aEQ1JSkm4ftA2qVauWDBs2TPr27Su+vr7mX1BZwgQA0Wn4nsZIqK+++ipPoB/nrcv5R1pB48aNZe3atfpdTuRWjP0+MzZO0o+flMRlq+XkdzMlfvEKyU5NFQ9/P+M0TW/jiG+NqlLz3ZckpHsX4xeQh7mWiIiIiMj9MQFAVML27NmjE+LOnDlTEwG2EGjv0KGDvPjii3LJJZeYa4sHKu737duniQcseB625xHwx8e/fPnyUrt2balbt67Uq1dPW/k0bNhQTzF5b2GV/WcjJSVFJwfev3+/JgWqVq0qbdu21aQDlV1MABDl9ddff0mfPn3k+PHj5pqC4Tt06tSpcvPNN5triNxHxskY2Tf4SUlc/a+kRx0TTz8/Cbj4Igm8pKX41astsX/8LfHz/5HstHTzL3J4GMcxAc2bSOTzj0tI987iYSdxRkRERETkzpgAICpBCGb27NlTVq1aJZmZmebaM6Gdw5QpU84pCYAK/40bN8ry5cu1qh8jDRDkt6r+U1NTNeCPANGll14q7dq10wUjEZAECAwM1MXHx8e8R6LziwkAorzS09OlX79+8sMPP5hrCnbDDTfoSLPzMaqM6HzLTs+QTS06i4evj4TdfqOE3nCN+FStLN5hoToRMBIESRs2ybGPvpKkdRvEOPAS3zq1pOKgfhLUoa34Vq3Cyn8iIiIiKpOYACAqIQjII3Dz/fffm2sKdscdd8ikSZM0GO8IgkEI5qMvP9pDbNu2TQP+WJBkQEsdq40PAv0I6KNPf+vWrXMD/kg2lERVP9G5YgKAHMlOS5OslFQ97+Hnq5W/ZQW+2zFSDKO6CoJWau+8844MGjTIXEPkftIOHxWfShXFw5vHMUREREREzmICgKiEYCLdHj16yOHDh801BUOA888//5SLL77YXJPTKid/6x7r/N69ezUJgIB/aGiotvDBUqdOnTzna9asyZ76VCowAUD5ZSUlS/ySFRI/b7GkHToi2VnZ4lOxggRfdbkEd2wv3hFlo9K9V69eMn36dPOSfU2aNJE5c+ZIjRo1zDVERERERERETAAQlRhUYj799NOFVm3aGjNmjFx33XXawgdV/WjpgyC/bRsfCAsLk8suuyy3qh+BflT8YylXrpx4e3vr7YhKEyYA8spKSJS0Q0clOzNDfKpWEe/QEPOasiEzJlZ29X1Qktf/JxnGeck6fbjiVT5YApo1llofvyH+DeqYa93X0qVL5ZprrtFRXo6MGzdORo4cqUlhIleFnx0pG7eIZ0CA+JWBzy4RERERkStgAoCoBOBj9cILL+jkvmcDARy0c7D68oeHh+v8AFbAv1GjRgzykNthAsD47sjIkNQ9++XEVz/Jic+/04kuwSskWMJu76m9rP0b13f7Fjio9t9z93BJWLLCXGOff8N6Un/6ZPGr796BxJMnT8qAAQPkt99+M9fkhZ7/GBmGlm9ELsM4FspMTJLMU7GSuveAxM6aK6d+mS1p+w9J5ceHSrWxT7GVDxERERHRecAEAFEJeemll+T555/XZICzqlWrJh07dszTxgcL1rOqn9xdWU8AIPgfM3OOHHzmJUk7YL91GCa7jBz9qETc19dtkwBZqaly+IUJEv3eZGObOJ483RLcqb3U+2GSjgpwV1lZWfLBBx/oqDK0hstvxIgR8sorr5iXiC4g45gn/dgJSf5vqyRv2CxJ6/+TpHWbJGXHbr3Ot3qklLv4Igm7tYeE9bpBJ/QlIiIiIqKSxQQAUTHBRyk6Olp7/69evVp+/fVXPUXgxllTpkzRXs9o48OJeqmsKesJgPh/Vsqe/g9J+pEoc419CHTXeHushPfrZa5xPadmzpGM6OMiGZma2EDgTxewRi/h1NNTPHy8xcPbWHx8pPy1nXTC3x033CUp23bm3K4Q3hVCpfZnEyWke2dzjXvasGGDXH/99XLo0CFzTY7goCBZtHhxnvljiM639OMnJf6vxRI7a54krtuoLbwyY+MkOz1DvIzPaOj1XSW0Zzdt3YXPrGdwkHjwOIeIiIiI6LxgAoDISfiooAc/ejBjQU9+TMS7Zs0aDfSvXbtWDhw4oAF/T09PDeKnp6fn9u0vTPPmzeX333+X6tWrm2uIypaynADIzsySnTcPlLi5C801BfOtXlWabvhbvMoFmGsKkJWtVfXZxveRLmkZueez0tI1UJdx4pTNclIyjVMcHFR58gHxP4v2Olva3yBJ6/4zLzmv0fyfJOP4Sdl1+yBzjRM8PMS3Vg0JuKiheIeEiFdoefEKMZbQYD3F3AkIQHqHhYiHn29OsgGBR+PUK6ic3sbVISl0YPR4GfDVp/JPary5Nkc7T3+Z2Ok6aTnpLfGvW+t0goXKjGzjc4zPbVZyiibaPPz8dIJsT/+SHyWUuu+g7HvgGUlctlofH58xb3wGjc9d8JWXSchN3SW4Yzu3b1tGREREROTKmAAgcgCT7x48eDB3QdWldX7fvn264DaAYH+NGjWkZs2aUrt2bT2P0z179shrr70mycnJejtH0O8f7YIef/xx8fX1NdcSlS1lOQGQuGq9bL3qVpHMwlveWGp99LpEDOxtXnIs7eBhiX7vM+27nREbp1W5mTGnT7VCPz9PT/GtVV3qfvGuBLZtZa50XvRHX0r60aicQLsGpI1F49L4H0YD4DxOjSUzS7KN140kSKUHBkjMrLly4LExuIHTNLDv4yPZKan2Xw8Yz8MzwF88AwPFE4H/wHJSoXdPqfLUMPMGzkPyBPCYJQ3zIRx4/AWJ+fVPmZ+RIE+lHzevEfE2tudgr/Iy0DtEglo1k5rvviyBl7TU10plA7470Dosbt5i47N+xNg5s8Q7IlyCr2ovIddfLeWNU48SPK7IjI2XTS27iG+NqhLQsqkENG8i5VoYp80ai1dwkHkrIiIiIiK6kJgAIDKgmn/btm3aYgHLv//+q4F+BO6xoOIffZdR3Y/JdxGMbN26tbRp00aXhg0bSnBwsE7Yi2SAv7+/3i4tLU2++OILGT58eIFJgMcee0zGjh2r90FUVpXlBMCR197TvvdFEXrzdVLv24/MS46lbN8tO27olzuvgGdQoPhEVhbfqpX11KdKJfGOCBPv8ArGYpyichgV9Mb3mI9xGwTNiyrb/K50KhBtHIbooYixeHh6yrHJ02T/Q8+ZVzqnQp+bpcpTD+rfZxrftQhKZsXGSQYSHdYIh5O2oxxOSaZxOWJgH6n6wpPmvTjv5A8z5cgr72o7Ju9KEeJT2VgqVTSWiJzLVYzzlSsa5yvqKINzCcjvHfyUnJj6g26fNMmWW9MOy9HsnERRBQ8ved07Qi729DPeWA+p0KuH1Hz/VZ00mtxf7JwFsm/IU5Jx7IQm0fIw9jm02qk27hmJuPdOc2XJSNm9T0cjoer/fIw6ICIiIiKiomECgEpMQkKCVsD/9NNPsnHjRg2eI1Det29frY4vX758ToCohGVkZGjwHkF8K5i/e/fu3EA/ntvOnTs1WA8+Pj4axEdVPhYE5Zs2bSotWrTQNj04RZsetPlxBtoAYRu8+eabuj3w+ODn56fb4Z577pGHH374vGwLIldWFhMA2oYnJVUOjXxNjn0y1VzrnODOV0jD2dPMS47h/pM3bhYv4zvXJ7JSTlWuC3/fJCxdLduv76vV/M7AHAJVxz4lVR4dokHw8yH6gymatMFoA/Q4N/6h0dMzgrAGT+PfEyQIvKtUktCe10qlB+4WT3/nkirJW3bIzhvvyqnsNr2fESOfZ8bp+UYePvKZbxXxyxleIV5hIdJwzrdagU1uzDh0j5v/j+wZ8IhkHD9hrnTA+KzraKG7bnf4+chOTZNM49gEo2JKcrQAERERERFdGEwAUIlAL3y0tPnjjz/k6NGj5tocISEhOpEhrm/cuLG59txhV0ZwHY+HJSoqKrdtj237HpxHQgAQhK9ataoG9LFUq1ZNF+sylipVqoi3t7fe/lwgIfLPP//otsFzrVSpklx++eVuX9lM5KyykgDITEjUdi7akufYCUmPOi6Jq9ZJ2t4D5i2cg6r3Op+/Y15yH6jO333XQxL/9xJzTcF8qlWRBr98rq1Hzpf0Q0e16jkzPkGyjCUzLt7mvLVgnbEY57P0cpyE3nqDVH95hNOjKo59+rUcfHKsJnEsa7NSZFh6tKAJ0UCv8vKQd2jOFaaqY56QyBGPmJfIHWFf2/fgs3Lqh1/NNQXzq1tLGvz2lfjVqamXMUIHk3SnbN0pycaCCbfTDx+VSg/eI8Gd2uttiIiIiIjIfTABQMUOAe4BAwbIwoULNdBtD6rnmzVrJrNmzdJ++UWF+8XjbN26Nc9y5MgRrfJHgB8LzqMCH7f38vKSunXragV/y5Yt9bRevXoSFBSUp+K/OIL9RFR0ZSUBgFY8O3oOkJRtu0Syssy1RVf/p8kScsPV5iX3geDk8c++lYNPvyhZSQXPnwKVHrpXqo8flTPfwIVm/FujIwF0RAAmWrbO51zW9ksVw50egXH4lXfkyLi39X4tUdkZ8nD6MdmdnS5f+lSRpp55K7bD+/WS2pPfMi+RO0resl22d71dMk7GmGsKhhEn1V5+VoLaXyLxi5bp6IHUnXu0VRaSCRgBgHk0qo8fLZWGDjD/ioiIiIiI3AUTACUEbWdSU3Mq9jCpK9rKlAV4zc8884y8++67DoP/tq666iqZPXu29syHzMzM3OC9tcTFxWmLHivIv2XLFtm+fbv27Qe0zkElP+7DWhDIR2W/1boHC84j2E9ErgkJgONR0eJptlHJ9vSULC9P10gAGN9nWcb3G9rSZCUbi/HdpBPlVqsiHkVMGqInffT/vtD79GtYV/wb1BG/erVl/8Mj5eR3M/IEex3xb9ZYmq6crT3v3RFa6Rx55R2JmjhJshJz2qblh6BmhX63Ss33Xnbb7XD0jf/JoTFv5EkUJUm2vJp+UtZlpcivvlX130BbmHugwp23SFCHtlKueROdzNldZWdkSjba9xmfGQ9fn/MyKbMrOPHVj7L3/ifMS0Vk7C+egQHiFRysLaMCWzWX4C4dJLjz5eJbtYp5IyIiIiIicidMABQz9JFfunSp/P3337J//34NgkdGRmqgu2PHjlpp7s727dsn3bt310C9MypUqCCjRo2SypUra8seq3UPKvmtVj7Hjx/X+QMAyRS05LFd8LfYxvnXufu2JnInWckp8t0LL4vH6n/FPy7R+MdJJDXQX47XipQ7XhkrEdWrmbcseVnG93hG1HFJPxqdsxwxT6OOnV5nLL6RlaXe95+ITzEFzZI2bJZ9Q56WpPX/FZgEQDuPGu+Mk5BrOplr3BOSACe+ni6xv/4p8Qv+kcx4M+nr5ytBl18qoTdcLeEDbteJeN3VqR9nyb4Hn9E2QhbsGV9nxMkxyZTHvMNyVtrAKIOshJxtVaH3TVLni3f1vDvBaIrEFeu0kj1t/0FjX8nSiZeDr7zMWNob28C9//0/9vGXsn/4aPOSc7wrV5Sg9m3Ev2F98W9sLg3q5MwJQkREREREbo0JgGKE3vJDhw6VlStXyokTJ7SaHdDuJiwsTKvQP/jgA2nS5Pz1KT7fvvvuO53k1wrYFwaViwjUYxuh2h/teqz1qPjFHAHWgu1Ws2ZNre63rfbHwgl0iUov9Hw/8MQLEv3bXPFKSMI/TDlXGJ/rND9fCWnRROpP+1B8q1fNWV/MUM1/6odZkrJ1hyQbS+qu/ZJtrEPfdVynVf+pOVXG4BlYTvwa1JWgy1pL1ecfF+/wM4OwZ8X43kxcs0H2DHhIUvfYnw8Aj1Xr4zck5LourtHypqQZ2xxtStIOHjaWo5KdmSE+kZXFr2Y1rV52922QcfykbOtym6Rs32WuybEkK1mCxFMu9vQz1+TAfln7w/G63yYsWSkBzRpL2G09zGvdA5Jv+x8ZJQnL10im8d2RO/GycRzhFVJeApo2lJoTx0lA8+KbY8jVYKTQnruLNs9DxMA+Uu2lZ8rE54aIiIiIiPJiAqCYoGp92LBhMn36dK36d6Rz587y2WefSe3atc01pQOSGQjOWwta/WDBiIeYmBjZu3ev7NmzR2bOnKkjIIoCFftt27bNE+xv1KiRjg4gIveWcSpW9j/4jJz6eba5xj5M8Fr36w/Ev0FdTQwUJwRL10c0Nc55iIe/n3jq4i8eAX7iHVFBAho3EH9dcqpmkYjw8Cq5ljOZCUly4vNv5cS06RoARhAc7TpCb+4uFYfcpS1eqOyI/mCKHBr1mo6SsURnZ0qIh6f4GfusxcPHWyr/n737gI+juvo+ftSLZVu2LPfeK9iAKaaY3ntJ6ASSJySQnkDyJC8tPSE9PJAQkgAhCb0307tpNsbGvfeuZvXmd/5XM/J6vZJ2ZVmWdn9ff9ZbtTs7bWfOuffcb37Z+t30LUvO2D0xECs3cHF5uSUrQZ+dZUmpHSNgrO1hzbdvtsLHnnMJs6bkHDnVht79G1daq7NRQkPLWuNfqLxYas/dB3mWyuWrbcmJF1nNxs3+I81T0nLwn35meZed7z8CAAAAIJGQAGgjP/rRj+yXv/RO0KNo+X7ZZZfZAw884N/b/7QKqJ5+cXGxC+aHXoff1qWwsNCV5dFFPR1Uo39vfP3rX7ff/OY3rrwPgMShsh1rv32zbb37X/4jzUhOdnXNB//hx3uUrFCgUuV56op2uAB9clbDmCKx2PCzP1pydqYr65PWt7el9fMu3rVaFO8vdSU7rGbrdu9GvUtEpPbo3ubJD3R8qnO/+Y9326bf3GV1hcX+o3vK/5/Lrd9N37a03r38R1qpfqdtueteK3jwSTd+QMbQQZYxbLCle5eMod71oH77rdb+xl/8yTb89A9qleA/0rTcc061EQ/+pWNvM97xV11RSUMPl7XBZb13f6O7dr0Z/vxz/8W7aFyMNd+5xbbf/4h7j5Zkjhtlo577t6X37+M/AgAAACCRkABoAwqCjxgxwgXHo6FA9yeffOIGpW0ParGvHgobNmxwF9XXD7+uqKhobN2vVv3B7eASlDMKdO3a1YYNG9Z4GT58uLtWsuCaa65xfxMNzQslTr71rW9RxgdIMJULltjSc79g1WvW+480T+VvRjz6d3e7cuESq/D+vmLRMqtZu8HqvX1Yao9cG3bvH12wK1ZqdUtZDHRUGoC6eMYbtvm3f7GyD2b7j3q8300lvfp880vW48KzLCWni/9E62lQ3Y2//j/b9Ju/uFJY+gz1KFArcl1SuuW4z1SvnOwDx7syQ27w2H08EHPdjlKbN+Yoqyso9B9pnnpEjHnrSTfIbUegw23tq1RmrHKhLsusYvEyq9263e2/1OK/vrzSdnrL2vHmZ7eTp9vIR+5x3yVc+Sef2fKLr7Xq1ev8RyJLysq0EQ/9tWHMEI6zAAAAgITU5gmA2tpaF2xWS/iUlBRLTU111+EXPa667/EQ9P3Tn/5k3/zmN/170dHr//CHP/j31Jitzl00/1q61qW8vNy1xC8oKHDXobdDrzWI7tatW92JZ0DzXMsgLS3NBeB1HXrRY926dXMD6w4YMMBd9+/fv/Faj6k8T6Rlt2XLFrvwwgvt7bff9h9pnmr6P/vsszZpUsc4QQfQfrb+9V+29saf7Ap4xUitkFWuRwEuXas2/KDf3GJdpk72XwHEF/2Wl334iQv+egcFrmV+1+OPcut/W1MioHzeIvd5GnC3Yu58F4R3gWqVqKn0tlv1evSOBVSmRomA3l//ouWeeZL/Dm1r2z8ftNVf/b5/Lzq9rrnEhtz5S//e/lPw8NO25ls370peePMsOSPdLznm7b+8fZgrNzZhrGVPnmBZUyZ683OMpXRpPqGjgcNXXPJV12MgfD+qhGbagH42+E8/te6nHuc/CgAAACARtXkCYN26da7EjcrDaLBWDfCq6+B26H1dNIBrpAB0+GPhl5ZeowC3AtRBkFrJBgkeCx4PrjUbIl3Cn1PwPWgVH7SU/9nPfmb33Xefe220NCDw5Zdf3vg+qqevMjwK7AfXwe1IjzfVwl7fu4t3wqj5rGu11O/evbvl5ua6i26HXkIfC72dkZHROG9ioflz991324033uimtzl6/xtuuMF+/vOfu+kGkFg2/vyPtuEnv9dO1n+kZQrydz1umqX17ePK9LiSPSrX40r35Lua5QDannohqLeOu6zfaDUqU7N+k9V4t13JGu/2oF/fZHlXXOj/RfSUWPAOChrGG2iiJ8H6W263Tb+6w78XHSVHRj//b/9ebHbW11u9N10aD0HluHRRGS6NBxKrklfesk233+l6ULgSY96+qmGf1VBqLH1Qf0vtldeqsRaqVqy2oudesR2vvt2QCPCmOy0/z3KOOcINFp59wPgOM4YDAAAAgP2jzRMAq1evti9/+cu2ZMkSVw5G9eGbq4uvwHxwUUC4qftN3W7qvi4SXEvobQm/Hzormrut7xN6UUv70lLv5DUG+mwFvYP3aIoSJGptr0uPHj3cJbgd6XEF/YMEiHpZ6KL74QmT8O/elhT4V03/W2+91X9kT/r8733ve3bzzTdbTs7u9bwBxD8FqTb8+HcNAb0YfobyrvqcDf7dba7lLCV7gP1Ix0NVVa5sjXoE7FQZrt75rkRQrNbecJuVzHjDbdepeT299+llafm9vOs817sgOSvLip59yYpaGCw8XLeTj7VRT+/ZQKNm/SYr/WC21XnHbvU7yhoC/Ord4N2uLSq22i3b3PgbO2tqvEut9we1trO2xrqfdYoNuWPPmvwt0UDjdcU7LMk7FmsYZDxDB0L+s3tP+1ONJeAGivaWi3oXpHjzjX0kAAAAANnnYwAouK3geOjgsqG3d+zY4erPV3onR7oEt0Ovg9tqJR8agA8Pxoc/Fyr0fvhzoUID45Fu6zo82aD3U+KjufcNd8opp9i0adNcgF89IdRSPzSwHwT19Vxnddddd9lf//pXW7VqlVuGmj/6viohdNVVV7nBf5WwABD/FJiqKyp2g1wWv/SGFT7xvFUuWOqCVVHz9rkqZ5H/pcv8BwDEgxVXfcNK33zPdtbU2c5aBdu9iwu61zaUGWqlvt//mg247Qb/3i6Fjz5jKy7/mn/PO7ZLSVYXyobeB7pOS7WkVO/irtMarr1L1+nT3D4IAAAAADqTTjUIsAL7kUrwRLqoXr6+WvD1gtuhl+BxUSC/pYuEtqIPWtXrsxTQX7x4sXtNS3r16mVz5851NfXjncYEeOutt2z9+vVuXvfp08emT5/uxhIAEN/qq6qtcv4iK5s9z9UsL5891yoXLXPJANW7zp480co/ne8GwYxGxshhNurZf1nG0EH+IwDiQdXKNW4/UFda5rfEL3XXdSVl3v6i3HZW17hL8fOvupI30Ujp3s3Gf/SipQ8e4D+yS/m8hbb9vodd/f2kTLXKbxhHxNXkz8q0lK45ltKtqyV38667dvXey7t4j7V1y30AAAAAaA+dKgHQkf3zn/+0a6+91iUfWnLbbbe50jcAEI8qFi6xwsees+LnXrWaTZutrrDElcBIzsiwricebT0uONO6HDrF1dPe/sCjtu77LbeoVSmL3t/8kg245XuWlJHuPwog7qnRhnoBeJeCR5+11dfe4JIBLen7vetswE8jDxrs3q+uziw5paH1PwAAAADEMRIAbUQlbjQY8O9+9zt3OxL1GLj66qvt9ttvdyV/AKCzayzts36TFb/wqgv8q5W/yvWoxazqd2dNGmu5555uuacfbym53f2/3EUDAW/+w91WX1buP7I7leLIPecUG3LnL12rXgCJSWMObP7NXbbpt3+x+vLIx1oq1dPzkvNt0G9udq34AQAAACDRkQBoQxrX4P7777enn37aZs6c6QbDlYyMDDvkkEPsrLPOsi984QuuDA4AdFYKvCnIXzZ7rpW78j7zrGL+EttZXW1pvXtZ1uSJlj1lonU5aJJ3PcnSBvZrqK3dBL3f9v88bgvv/IdlLllpKbV1DY97f1PUr5eNuuJzNujb1xL8B+BKAxX85wkreuYlK31/ltWXNhxraYBd7Xe6n3aC9brqIkvrx7EWAAAAAAgJgDamcQoKCgps2bJltmLFCjc+wLBhw2zUqFGu9n9KSor/SgDoRLx9W8WCJW7w3pKX3rTqdRtdy3/1AFBJnm4nTrce559uXQ6dbKl5PS2lW45ruR+tnXX19vff/8FKl62wLgUl3gNmlV2zraxXrn3xu9+2fBKnAALeoWttQZEbD0CXnbV1lj5kgGWOHGap+XmuZBgAAAAAoAEJAADAHlSzv66w2Ko3bLbi51+xwideaCjt4/1kqKxGSo/ulj1xrOVecIblnn5Cm7TOv/POO23r1q3+vV2uu+46y8/P9+8BAAAAAAAgWiQAAACOgv4q5aOSPu4yW6V9FtvOmlrXqjY7tLTPQQdY+qD+/l+2DRIAAAAAAAAAbYsEAAAksJ11dVbx6QIrfPIFK57xhtVu2epa/tdXVllyThfreuw063He6dZl6mRL7dXTUrp33WflNUgAAAAAAAAAtC0SAACQKLzdfX1ZudUWFVvV8tVW/MJrVvT0DFdD25KTXWmf1NxulnXAOMs973TrdvKxlpbXw//jfY8EAAAAAAAAQNsiAQAAca62sNgq5i6w8k8+s/I5DRclAHbW1FjagL4NpX388j7ZkydYev++LiHQ3kgAAAAAAAAAtC0SAAAQh3ZWV1vJmzOt6IkXrHTmx1a7rcDqikpc0F8D9nY//UTrcd6pljVpnKX26G7J3bpa0n4I+ociAQAAAAAAANC2SAAAwH6iIH3Npi0uUF+5YKlZfb1ljBhq3U46xtL65Ftydpb/yhZ4f1dXssNqi0qs4rNFLuhf9NzLLuCflJbm6varfn/O4Qdb7nmnWbdjj7SkjHT/jzsOEgAAAAAAAABtiwTAPqIa27VbtpnV77TU/J6W2rOHN7eT/GcBJLo6bx+x8fY7rfjZl61y6UoXxA+kD+xn3c882fp+9yuWPqi//2gYb99SvXGTlc+Z70r7VPilfarXbbSktFTLGD7UlfPJmjzRukyZaFkHjPf2Q7n+H3dMJAAAAAAAAADaFgmANlZXXGJb//4fK3j4aavbXmjmzd3krjnW45xTLP8rV1laX4JYQKJT8H/VV39gxU/PsJ11df6ju0tKSbEuhx9sIx+9x1J6dPcfNavZVmAlL79pRU/NsIpP57tkY13xDpdASB822HLPOtm6n36CZY4Y6v4upUt2p0k+kgAAAAAAAABoWyQA2kp9vZV+MMtWXvkNq167wX9wdyrBMeSvt1v3U49zwb2E4a1iO+vUunlnw/emJwQS2M7aWtv48z/apl/9X5PB/1DdTppuA3/1/6zsw9lW9MSLtuOdD6y+rNySMzMsJbe7pfbOs+4nH2u5557mBvJNSu28+xYSAAAAAAAAAG2LBEAbKZs9z1Zfe4NVzFvoPxKZ6nsP/tNPrdsJR/uPxC8FNysXLbOSV9+2mo2bG8oh9e5lXY+dZtkHjHO1yYFEU71hsy2/4BpXticaSamplpydaXUlpZackWGZE8dY9pSJLtivS9aEMZaclem/unMjAQAAAAAAANC2SAC0kRUXf8UKn3zBv9c8Be/GvvesJcVxS/idNTW29ru3WfFzr1jNlm3uvqh1cmp+L+t24tGuVbMbGwFIIMXPv2rLP/c/trO25db/gYxRwyzv8gut+ynHWlrf3q7lv3oAxBsSAAAAAAAAAG2LBEAbqFy83OZPPsGVuonWiEf+Zl0OO8isrq6hDEhdve0MBgF1b+O/l94zNFGg294lKTnZzLskJXv3G2+HXnuvSUlpKAeSmtquJYdqC4ps7bdvtoKHnvIfiSz37FNsyF2/stQ8kgBIHFvuutfbPm7x70Un/8tX2MDbb3I9AOIZCQAAAAAAAIC2RQKgDWz85Z9tw62/8e9FJ31wf0sfOMDqKyq9S4W7Vm1wlclxNfO1WJQQCBIACuzrD11gP9WS0tO8S7olZ6SZpaV51+nuvh5PDq4zMy05J9uSu3RxA4E23vavdT/i43vRsnhndY1t/M2dtumXd3i3q/1Hm9bz0vNdEkDTD8QtbztWYqxi/mLbctd9VvTE8/4T0SEBQAIAAAAAAACgNUgAtEJtQaGr310xb5FVrVxjxS+9YdXedcySky2la46l5HazlG5dGwLvKWrBn9IQ8Pduu+C/EgJKDCghUF/ngux1ZRVWX65LecN1RWVDsqAp6jUQ2iPAu1ZtcXedkuo9FnLfm47UvJ6uZX5afi9LG9jP0kMuaf36NFm/v2bDZlt23tVW/ul8/5HmpfXNtxEP3d3QGwKIM7WFRbbjjfes6NmXrfzjT10SoK6wuCHZFyVtt/1u+rb1vfH6ht49cYwEAAAAAAAAQNsiARCBSvHUuwB7uXddbrVbtlnZrHneZY6VffSpVa1Y7Ur3uKC6WuJ71/WVVf5fR6fHRWfZsHv/6IJ7bUGLcad6E5TrUm515RVWV1xiddsLraag0Oq2FVitd7vh4t8uLDarqXG1yBWQdDXJda2yRP79nTXeter3h64m3vdN65PvJwb6W/qAvpY+qL+7X7N+s637/k/8F7asIbj5Let349dc0gPorOorK71tboe3v9hupTM/dkH/0vc+tPrScrefSOnezV2yJo61irkLGvYjUVDN/xEP321dDp3iPxK/SAAAAAAAAAC0LRIAvvqqaqtattKV6KhcuNQF56pWrbXq1eusZtMW9xq1jk8b0N8yhg609CHeZWB/S83PcwHydT/4WUML/SgNu//P1vNzZ/v39g+X6FDvgbKGREddaVnD7VLvdpl3W9clO6yuqNhqvYtaLitpoPuht/Uee0NlgPrf+j1L653nyhYBnUVdSalVLFjsAvoV8xZa+dyFVrlgidXtKHXrcub4UZZ9wHjLmjTOstz1WEvJ6WKb/3SPbfzx76JKHOZdcZENvuPnCVEmiwQAAAAAAABA20roBIBayu9450MreelN2/HW+661vAt4l5a5Fu8qyZM5frR1OWSydZl6oAvipfbIteTsLEtW7fysTNcaXi3ml55xme14Y6b/zs3LGDnMxs+a0Xnqeat3gesNUO3KD9V7FyU9dFvXavVcvW6jVa/faEXPvWKlr7/r/2F0knO6WFqvnq70UEqP7pah5MrQwd71IMsY1nA7vX9f14oa2N/U0l/betEzL1nZzI9dbxr1tlEwX+tol8MPsdwzT7Ruxx5pqfk9LSW3e8O+IoT2M+t/9Avb+rd/+49E1uPCs2zwn35qqT1z/UfiGwkAAAAAAACAtpUwCQAF5+oKi6xm01bb8fb7DUH/dz6wnQrapaZasmrxd+/qgs7djj/Sco6d5kp1aJDcaCiBsPLKrzf2FmiK6v0PueMX1uPCM/1H4osSACs+f60rIRSV5GRL7dXTktPTdiUXqqttZ5V3UZklnwKrGnvAJQaGDWroheGSBAMttWcPS8rQgMj+QMi6reu0VJeg6Qj03Wq3FVj5nM+sfN4idb/wvsNgy5l2iBsHQdONDsbbNdapR0xJqavlX/b+LDfeR8krb7ueMhoHI6Wbt9/ometa+Xc/4yTrfsqxbuyMaKgHzoZbbreCR56xWm+/EfQGcOt673zrdupxNuAn37fUHt3d44mABAAAAAAAAEDbiusEgALJFQuWWLnq938yz8pnz7WKzxa7x9XqPHP0cMsaP9oyx43yrse426pj35q6/Ap4Fz75oq3/wU9da/hIFOjuf8t3rdeVn3NB6nhUvXGzLT//i1buze9oaCyBIX+93dIHD2goNVRQtGucAo1b4O7rtj9+gfeYWlu7MRh86pHhBi3u1cMFXxtu93SBWV0HAxrvek3Pdi2nound8pf7rejx53cfHDk52TJHDbdupxxrfb/7FTcvsH8p6VS1cq1VLlzi9h2Vi5a525WLl7uBttVLJXPUMMuaNN6yJ431y/qMs7T8vNYlm+rrrXLlGtvx2rtWs2GjG+xbA293nX64633UVmOEdBYkAAAAAAAAANpW/CUAFFBbssIKn3zBip97xQXjXZ36ikoX9O967DTLPeNEV9ZHweCUbl1dALktWoorCVC1co1t//fjtv3ehxp7A6isTd4l51uvay52Ad94Df6L5sHGX95hm37556h6AajEybB7/+B6YYRzgxH7vQFczwD1CvDuq0RTzfpNbowGzW+N01C1ao13WWf1JTv8v/Z4y1StqRt7BniX4HZan16WPlQ9CQZ71wP960ENrfHbcDBifYc1X/uhFfznCauvaqLeu/d53U442obe81uSAPuB1qnSDz6xklfesh2vv+u2W5Xoqd9R5pZfcrccyzn8EOt20jF+j40+lprbrc32G420K9YlgQfDJgEAAAAAAADQtjp9AkBBZrUSr1m30YpffsuKnnjODcSpQJorz5Hb3bXQ7XH+6dbt5GNdrfn2oBIh1UoA1NW5gKGmJVFoYNTVX/tfK3r8OW/57GqpH0oB/67HH2kjHvyLJWdHV2apRd4y18DEbvBm/xIkBmrWb3S123dWqcyQX2LIu9bgz6GDNys5ECQE3FgEKjc0bIgb9FnL0JUWyti93FCTrbTrd9r6m39lm35zl/9AM5KTLf/LV9jAX/4wsQZCDnY/7VGqyfusutJyq9+xw/UoKX3vIytW0P/Nmd5jpW45Judku6Sgyk3lHDnVup003XIOneKSh9j3SAAAAAAAAAC0rU6bAFApmNIPZrtBOEvfn2Xlc+ZbfWmZK/vSZcoky9bl4AMs+6BJljGof0K3qt0flATY9Pu/WvGzL1vlgiW71fPPGDXccs86yfp883/arcW7EhGq465yQnXbCq1GZYWCkkIFu8oL7So/1DCwa6OkJBcYdiWF8v2yQr3yGksK6fG0xscbLrVbt9vSM6+0qpWr/TdpnnogjH7uAcsYMdR/JH4pSaPW9tVrN7gETGrf3tb1mMNdGa42o4RQQZHrJVK1YrVVLVtlFYuWWuVC77Jkhe2sqnKD82p+u1JgY0dZ5vhRljVutFsW7VkmCg1IAAAAAAAAALStTpUAUBC5/JPPbPsDj1rJy2+5YG1dSYlrudvliKmWd8m5lnPUoW5Q2JTu3SwpNbHqZ3c0O2tqrWbLNjd4qmqoa9BT1U/PmTbVUvPzLDkzw3/l/qVeJA1lhtQzoGEQYt1Wq/AqlRdSmaGVKje02qpWeLfXrvdeU+P/tbcReetZ0Bsg6Bmg6/raOqtZuyGqUkhOUpIN+t1t1vurV/kPxJ/60nLb8PM/WOFjz1mtt26oNJdo3qmOfrcTj7H+P77R0nr3co/Hqrao2Mpnz7PS9z62sg9muV4gdTvKXI8cDeirZIN6BbnW/d5n5Rx+kKX2zm/o3dElu03LPyF2JAAAAAAAAADaVsdOANTXW21RidVs3Ozqc2//z+NW8ekCF/BXXf30gf2t+xknWs9Lz7PMBGg1jY5BvQmqN2yyarUs9y/utoLNhcWNJYZcHfnyCv+votPz0vNtwK3fi77MUCdSt6PUNvz4d7b1L/e55FBEycnW83Nn26Dbb3ZJokh21tS4REJdWZnbP1R+tshKZ85yPYE0YK9LziQnudJSKTnZrnxP+uCBLtjf9dgjrcshBzbU70eHQwIAAAAAAACgbXXIBIAGeS3/+FMrdeV9Znu357jW/mq52+Wwgyzn8IMt54iDLXvKRNfSH+gQvE1J664rJeRdtt79L9v+wGPu8Wgp2J8+qP9upYRS83p41yo35N/vmWupPbp76353d62/6Qy23Hmvrf/RLxpb/TcpJcV6f+0aG/TLH7mkgQblrdnoXXTtXVQ2yJX08S4aADp4v7S+vS1j+GDvMtTShw22zBFDvNu6DHbzs13GGcBeIQEAAAAAAADQtjpOAsCbjMrlq6zgv09Y0VMzXKBPrak1eVkTx1reZRdY91OPtdT8XpaS241SHejwtt7zH1v3vVutvrLKf6RlmWNG2M66ehfkVo36wG5lhnSdlubd9y7edUNvmH6WPqCvpQ3wrr3baf37Nlz3yXev2d/UI2LeuKOtZsMm/5HmqTZ/1oET3HgMO735p3m4s7LS6iu8a7+kUqr33TRAb5cjDnbXaf37NQzi2yW7oYU/Af9OhwQAAAAAAABA29qvCQDV5VaN+NL3PrLt9z/qrhXcU6t+BS67Hn+k5V12vmUfdAABf3Q6lUtX2rKzrnClgaKRNqCvjXn5YddqXWVuqtXafYUGsFV5IZUZWm1VK9daXfEO97xK3bhyOP61u6/geMgmnZSaaqm98yy9f0hywPucdO+2SuxoW0vOznSvU5khV2ooJdm/brif5N33NkDvErypd0OX4HN07W7qeqcbq0NlklyZH42v4F2KX3zd1n7vNvfyaCnBod4OSZmZLqCfPniAZY0dZVkTx1iXww5288lNG+IGCQAAAAAAAIC21e4JAAUHq5atsh3vfmil73iX9z6y6jXrXb3z7IMPcOV9uhxxiHWZOtkNCkorXnRWGvR4/f/7lW3+3V/8R5qmFv69vnSZDfz5D5uvT+9trip5o94xGvC2zruoDn5dYZF/7T1WXGK1ug6ed7e957zbrlxO+CafkuKSAMlZWa7lfcMl9HammQbUTk72Nkdve1QyLlkJAO9vve/ogv661qWu3o17oFJIutTreod3KdnhPVfX8HlRyj74QBv8+9tcaR+19tc+AvGNBAAAAAAAAEDbarcEgEp47Hj9Xdt238NWPutTVyNdwci0/n2s5+fPtR4XnWUZA/tbSs/urjUyEA9Uw379j37pxgNoTs4xh9uwf/7BtczfKwrGq9V9dY3VB70CQnoIKBCvAYxr1m9y5XXUm8AlDFyCoMTqS/zbetyb9liD9gGVKtJ4BWneJaVXXkPd/iXL/Wej0/30E2zk4//w7yERkAAAAAAAAABoW/ssAaAWwQoo1mzcbEVPvWjb//WoK4Xiynrk9bSsCaOt11Wft+6nHmfJOV38vwLiT11JqW348W+t6MkXrWbzVheMF5XXURmeLocfZEP/+htL6d7VPd5haBsuLXcJApdAUDJA5X3q6htuJyX5JYK8i3oIuNJBqa6sUEpXb5sO6b2z9e//sTXX/69/Lzp9vvklG/irm/x7SAQkAAAAAIDOZdWWKtu+o8a2ltR6F1033P76aX2tf096cbeGonSVNfXulDozjbK3APZemycAVP6jfM582/HOB1b67odWNnOWa0mc1q+35Rwx1XKO8i5HHmZZ40fR0h8JQzXxKxcusZLX37XqdRvdL7pKXHU97kjLnjIx7reF2sIiW3DIKa7nQTRUBmnczOfcoMhIHCQAgH2rsLTWaupiP+zLzU6x9FacfJZW1ll5Vb1/L3oZ3md19z4TAAB0fGf9YpG9uaDEdlTu/ps/5/ZJduBQGnu2xoxPi+yxmQWWkpJklx3Vy44a18EaCwLodNo8AVD20Rxb9T/fs6plK10r4ewpk6zXFz7nAp1pfXpbSrcc/5VAAvI2NyUDxLWaT6AxLjbdfqetv+lX/r3m5V1xkQ29+/aEmj8gAQDsa5//3RKbtbLcvxe9+68fYdPGxnbiWe8dXf7+2Y1210ub/Ueid8aUXPvjNUP9ewAAoCNbt73ayirr7J1FO+yGB9a4BgdCAqB1NhVV2wHfnet6Uchkbx4+/f3RNqhXhrsPAK3R5n2JMseOtPSB/Szvyots7FtP2ti3n7T8L19hmaOGE/wHVDYnLdVdEi24rf1A3uUXNtvbQeWEup18rA342Q8I/gNABAqsF3gn1puKalz38Fio9X9VTX3Ml/pWthWpa+XntaaXAgAAnc37S3bY658VW20n/90bmJduYwZk2ReOy7fhvQlSB9QT8qF3t7nySLH4dFV5Y/Bf1hdU2/LNVf49AGidfTIGQH1pGXX9AexBAxBvueOfVvzsy1a5dEVDcUNf+qAB1v3046339Vdb5mhK/yQiegAALSsqq7WbH1prHy4rszduHW+Z6dG35VixubJVJXmGeifzOZmxl+TZXNRQBzhWKv9DKzcAQLz72j0rrby63u744jDLzoiPOu8n3rbAXv2sxN1O9B4Aq7dW2Yk/XmiPfW+0HTAk23+0ZVuKa+yom+bb0o2V7v7ho3Ps0e+OtgGMpwBgL+yzQYABIJL6qiqr2bjFSt/50MrnLnADC2eOG2Vdp0+z9AF9Xf1/JCYSAEDLtu2osUt+v9RemVdiZQ8cGjcBg9aoqd1pL88tttr6nXb02K7WI4expQAAncfRN823Uf0y4ysB8OMF9qp3jCKJngBYsK7Cpv5gns382cSYEgDy2Zpyu++NrZaakmRfOqG3De+TSQd5AHslcc8aAewXyRkZljF0kOVdfoEN+vVNNui3t1r+ly6zzFHDCP4DAKJWVlVn37p3lX317pW2cgtd4wEAnUdJeZ19sLTUv4d4pBJPrel5KRMHZ9vtVw6xX1w22Eb0JfgPYO+RAAAAAAAAAGgnj8zczpg3cayufqc9/N52/x4A7H8kAAAAAAAAANrBqi1V9ofnNvn3EI/+8852e80fCwEAOgISAAAAAAAAYL/S6IQV1fVWVlnnrtWKurX0tyq/UuZdNGZMR1FUVmf/N2OTLdpQ4T/ScdTW7XTzSxfd7iy0fDXNWt5tvawrazQ/6hreO4p5Uu+td/NWl9utD6/d7z08qjVfvG1J014fZ0N/6uuUVNTZpqIaN2hypbe/iJbmhJYNo6Ei0TAIMACgQ2AQYKBlDAK8S1FZrR36v595J7f19swPxthBwxN3oEEA6KwUjdhQUG1vLSyxJRsqbb13u6q23tJTk61vbpoN651hh47MsQmDsiyphULoeq/lmyvtbe+9lm6sdMFB5RB6dklxg6geOirHJg/t4r130++zdluVLfH+dkdFXcOlUtf1dtERPd17SKn32NsLd9iCteVWVu1Na0qSN52ZdvjoHBvcK2OPeu1KRqzdXu0Cw/95Z5s99VGhS3DIGQfl2rfO6GeZabv/Ud8e6e7zkkMenrOyzDYX17jpUvBT15npyXbtSX3c85qud7zp+tT7HH3mgUOzbfr4bpaTmeKej0Svm+99j5lLSm2Z97237ah1j/funmaj+2XakWO72tgB0Y/T1l6DAFfV1Nv7S0tt7qpyW7Gl0iVWNN97dEl164qOCcZ5052RFvtxkgL+mo9zvfmoMYbKvftJ3oLIy0m1ofkZbkBfzZeUkIWjZaF1791FO+zul7fYPG+eBpG2e68fYSP6ZDTc8WldnjKsy27HcUq6LFpf4baBhvWuzlum9W4d+Ny0PMvvlua/sml6jw+XldpH3mX55iorLq+1NG/97OetT2P6Z9nR47pGXEcDSqDMX1futh23/uviTUt6SrJdOb2XdfHWJW1Ta7ZW2ZsLSty0ah3KTk+xA4dl2yHefM/1lsG+pG3ngbe2ecfCxbbam44Mb18xflCmnXVwDzttSo8mv5soofPEBwX28fIyG5Kf7rad1qwjQGdEAgAA0CGQAABaRgJgFxIAAND53TVjs93xwiZbW1DtguDnTu1pA/PS3T5+1dYq+3RVme20JPvyib3tm2f0s6z0yL97aul8+9MbXWBQAdzTJufaYaNzXLD/szUV9sysQvea4yZ0s19fMcT690z3/3J3v35yvd3+zEYXSNWlpq4hqPrCj8bYSQfk2sufFtuND6x2Qc+DhuVYWqrZO4t22IaCGuuTm+aC+ZrW1JRdUUgFU79wxzL7cFmZ+16hARh9n65ZKd433J2CrT+5eNBuwckTblvggvsN09UwfRogdsHvD3Rlha69e4UtXl/hEgcfryhz3/3rp/W1H5zbP2KQs7C01r53/2p7yftOSiScPiXXJg3OUnTaBZFfm1ds1d5nnH1ID7v1ooHWK4oAdHskALaV1NgN/2qY7oOGdbHxg7JsbP8sF9x9dnaRvbd4h0t6nDu1h5uHsQSkX/us2H74n7W2bFOlW18UVB47MMsFxldvq3IBei1PJVZ+edlgG5LfENi/742tduvD61xr9PKw1uhKHISuD5LiLY7Xb51go/s3JJWkwFseX7l7pZuG0GXcLzfdnv/hGO97ZvuvjOyzNeX2g3+vsdnesu/bI81tAwr6K1k0c2mpveLNr9wuKfY/3vr53bP6uSREOE3/F/5vuX3ovb7GW8f1+boM6ZVhb/9kgvXunuq+pxJZA71taMyALG951NrLc4vd+qZk0d+/Otz7XtEnjWKhZOE3/rHKfd5Bw7LtWG97/o23vepYsIc3n288u799/7z+/qt3p8jnj/67xv7vxc1unmR4+5vfXTnUrju1IYEGxDsSAACADoEEANAyEgC7kAAAgM5rU2G1ffve1fbge9str2tD4O66U/pYTtburdVf/6zELvjNYquo3mkPfmuknXNoT/+ZBgpmrN1aZVffudzeW1JqZx/cw/50zRDrk7t7gF8txn/91Ab73TMbXXD4/q+PdK2hwwOz6oXw6eoy19r+zy9udi2gRQFYlZm5+cF19rXT+thlR/ey7tkNgeXi8jq76o5lrmV/9+wU+/c3RtoZ3nQEqmvrXXBWrblFr7vjxU2uRMvp6gFwet89AvT91QOg7+49ANQqXUmRFz4ptAff3e5aYo8dkGlv3DbBvvLXFVa3c6f987oR9qT3/t/4+yoXiB7pvccrN49rDFSLytS8t7jUvnjXctvgLYevnNTHbr5ooEtEhFLr7v/99xp7ZGaBHTw82+6+dniLQeh9nQBQMPpa77v+661tdvOFA12wVy3cQz3zcaF96a4VtqWkxvUeefLG0a4FfHNUQuaulzbbzQ+tc8vr89Py7MefH2RDe+/ecn/5pkq7+A9LXZD92pN622+vGuqSOJqPKzZXevO2oVfF1XeucK3T5Z/Xj7DhYe+j5XrQ8JzdjuO0PnzirXeLN1S476DlqO87KC/dXvjRWJvQxLzX5734SZF99W8rXbmfH57f3756St89kmWavm9529wL3mtPmtTd7vyfYW69CM0DaDuZtbzMlnrf87nZRfbkhwUuEaFE01PefPzZ4+ttxaYq+/UVg3frBaFpPu6WBbaxqMbGD8yy128d73qRtCW1/L/x/tX2t9e22NdP7Ws/vniQ+46TvvOpfba2oaSWkocvNjGvNI0n/2ShrdlW7T9idtOFA9xyBhJB4p41AgAAAACAdqUE7o0PrLHHPiiwblkp9pPPD7Rvndlvj+C/ypeoRXNhWZ1r3f2nF/YcOFdleC794zJ7a+EOu/zoPLv7K8P3CP6LAuw3ntPfbrpwoBV673vln5e5oKmC4aHUIvuiI/LsZ5cOtsuO6uU/2tDK/55Xt9gfrh5i153StzH4Lwr6//rywS6oq2TATx5b7z/TQOWMFOw9Znw3dxnZN8N7bUPgtE/3NDtybMPjoZeR/XYP/stR47ra5cf0svu+NtKVcQn8w5suBULvu36k5XVNcwHxIKirlubhDb1V/uS6v61wZZI0T277/KA9gv8yoGe6m59fP62PK7dz5R3L7dNV5f6z+4fKFd335lYXlFYwWssw3FmH9LA7/6chMK+eDNffs6oxkdOUv7y82X786DpXRunyo3vZb68askfwv9ZbV/799jab480DrTYvzil2JZlECZuj/OWowHh2SPBdvRTCl+9R47rt0YhDLegPG5VjV07Pd58fXjYoEjXnVTJIrfYVIFdQ/ztn9d8j+C/qGXLnl4bZiZO620tzi11L+mD6A9pOpnnTf9Wx+fY7bxqC8k96798/u9GtWw9/d5T7DqElkNTT4Ad+y/sF6yrsLy9tdrfb0vOzC+3f72yzCw7rab/0tjd9RyXlVmxuSLSIWvbr8yNRSacib/sMNW10V/8WEP9IAAAAAAAAgHbxrze32UPvbXdB3OkTutoXjuvtgp/hFNwsqWioSS+ZYa3kFaxVUFLlTXp3S7OvnKzAfNP17hXcVPmTsf0zXev22x5dZ5vCAqChQlvN/+O1rXbGQT1c8DSSUf2yXJkUmbWizLW23lfUa6F/j4bW1QU7au1vr25xQePcnIakxDmH9LBvnN7XlTtSy/7Q1u9q6a6W4vPWVtgBg7Pte2f3b7Y3oeb5107r68ZO0Pf65j9XutJB+4uSQXV+hR0lheasKmu4E0YB9kNGNPQ+0JgQHywrdbcjUXLnpgfXmcYRGNwr3X5z5ZCI9fa1huoz1eJeFAwPT9K0FSWNoildNGtFqTfta93YDep1EtrzJBK1kP/tVYPdoMDqCfDrp3ZPVoXSNtkzp2F72lxU45I/N10wcLfkU6hjvHke9MZQD4Zqb161FSXq/t9/17nE2w/PH9CYfHj244LdSi7p8yMls/R9lTwqDUkEqeSYegEBiYIEAAAAAAAA2OcUSPzhf9e4cidqmf69JloriwKgP7tksCspogF2w0t1zFmpQXW3u+Dg6H4ZNmVo8+VpRMHBCw7Lc6WD1BL+nle2NDwRQWjL+S4Zya6mfHITEV+9tp8/roDKtqgm/74UTNuWklobnJduJx7QvXEcge7efPv5pYPttVvH26VH9WoMyiqh8qunNtjslQ1B8yum92py3odSL4VpY7q699c4Bkre6L32h6PGdrVTDuzuxlvQIL8qxRSJEkET/TIwahW+0C8RE04D/N5w/2qXTBKN4aBa8pEo6HyJNz9Vd17rpJIsLZUW2hvB8myKkjn/fH2rKwulHgcKZms9bcn4gdl2pLc81aPhD89t8pbpDv+ZMCEToMrhx0/sZkPCekWEys5Mafx8tbQvbqHXRSye/6TIFqnMkDcNQ3s3jJugUk13h22/6olx2Mgc/94upRX1tsBbB/zcjaN5oEGNgURBAgAAAAAAAOxzd7+yubEWfv/cNDuihRIc5x/W0z74xUR7+aZxdpDfojugwYNVmkSmjuzaZHA+nEq0BP768mYrLGu5Rbtq6Q/Ma74kix9nd5TgaC9Hj++2x1gGkWwqqraH39vubuvVR4yJrvWzek6obFFaapKb3y/OKXLlmfYHfc+HvzPaHv/eaDe2gcraRJKSlGQZfq8Stdgvr44cjH53Uakb8FdyMpNdkLs5kwZn2ws/HGtv/3iCffXkPo3Jlf1BgxFrWSgZo0D2CD8wHg0lUkR/q3Exgl4NTVEvkYlDspv9vnomSEzpfevq2m4b0PZ02pRcl4QLeqwogTc/rNzPxdPyIiZwlIz4LOy1ej8gkZAAAAAAAAAA+5Ra6j87q9C/Z3bA0C4uqNwSDdqrS+grNVjp0yHvNapf88H5UKP67QqUbiissfcWNV0eJqB68KE9AlrWdsHPlgTB3JaoBnpQ813Bbg2+HC0N6BoMVKxBYgtL2651d6y6Zae4Hgn9/R4Xohbqa7dV2UtziuzPL2y0Hz+yzpX2CSggHYlKCKn0j6j1eFOt/0NpPvT05l20Cad9ZeH6isaeJipn0zs3+uUZug18vLzcNnnbQXNUkqhX19gG9W3LLeDMg3vYv74+0k6d0sPtB7QveW1esW0r2ZWIykpPciW+ItlcVG3LNu4qy6XyRsdNiFzOC4hXJAAAAAA6CdU+/cPVQ+3dn07wTkD374knAACx2FhU42qVB4ZHMchpU+atKW9s/S89u0QfnOwZFuR9f2kTJVBCpO7nYG9zVNc9GhqXoMzvfZGdkRLTd+oS8vr1hdW2taTa3d5flABavbXK/vP2Njv1pwut5xc+tsk3zLPr/r7SHp1ZYPPXle9WGz4S9x7bqlwpHFHd/4zUzhMiU+meoOG+yhNlp0dfziYvZBtQ+aOVW5ofs0LJr/25CShgr4RVMFaISgxpYOrQngtnH9LD8rtH3g+8taDEjTkS0KDFvXNjS2gAnR0JAAAAgE5CXa8nDMp2Ld+CAdASlcoAHDOuq6sHq9aAAICOTfXW60Iaju9NsDW05a/s3Iv2xttKmm/93NFFW4ZGpZc0PsHeUmv6gv3YA0DjSPz00fV24o8X2pV3LHMDA3/nrH52/9dH2Fu3TbA3vMtD3x5tJx/YfAtvDSZcXrUrSZDqHUrE1stj/wrfBlpL60RQlquz2L6j1mav2DUAdIq3K7nkyMjjQchLnxb7txpoDAeOHZFoSAAAAACg01FrxN9cOcT+/MWhrjQDAKBjy0pPcYG6QGjwNVZBHfBA0Io7Ggr8hupoA4GqvImSEmqh3pbS05Is2Z9tml2xpALqd+6eYlFJpv1h3fZqu+A3S+zXT29wtfs/Py3PHvr2KPvR+QPsjIN6uLJA0QbxtS6GDoKsOvMxrEZ7Reu+ytLsDR0HBTTZWkbRqg1ZtbROaN3oTD5aXmqb/HJWMqx3ph04dPcxQgIaLPnthbt6+aj9zNgBmfttHQb2l91/NQEAAIBOQCf4uV1SrYd36cilGQAADfr3SLNe3XaVHlm0YfdBOWOhYF9oy/cVmxtqoUdjzbbdXzs1bHDh/U1lkhTkfnXe7q2W99bQ/ExX+kcKS2utrDL6VvwF3jRV+1Fjlcrp6y3L9rajos6u/r/l9u7iHa6cy7Un9bZ/f3OUawQQSz3+mtqd7qJa/sO8vw0GUFaJqso2Tro05dH3t9tBN87z77XOISO7NI6LUe1N99YYegSs2bar5I8SCVo3OpOnPizcbVyHA4ZkNzl+g8aCCC0HpcD/+IHZLhGghM8Sbz/04dLSNukdA3RkJAAAAAAAAMA+pSCtBvMMfLqq3ErKowtCK9i3YG25lfm9Brpnp9jxE7u526IBbqO1cN2uxIOSyNPH73qf9hF9sLotHTAky3p1bUgAqMdE6Hxojua9guNBj4TJQ7NdAr69vfBJkX24rGHA5qH5GfbN0/u5202J1CBeQd5HZm53AXhRIinXLwWzsbDa1m+PvlW+Xr81Qvmo9lq6Bw7pYv38RIwC3OodEa2F63YlAMYNzIp6HImOYtH6Xeuu5vfw3hnWJaxXUODFOUX+rQbad0wYlOVuF5XV2rfvXW3Tb5kfU0IM6IxIAAAAAAAAgH3uqyf3sW5Zfiv0slp76qMCd7slGvT38j8vt/lrd9X9Vt33oBfAgrUVUZcUCg0IfuHYfOvbo32Dn64MUjNRYsWtVaYo2tr+0RqSn2nnTO3p3zP7YGlDML0lGiT2s7Xlbpo0COupk3P3GEh5X9Ngr0oY7fCDtIeM6GIDeja93KrrdrqBYsPpfdSDQBc5amxXNyCsVNXstIdnNiQGWqLeCLc8tM6e+GDP9VeJrpbKEGleBj0PWkvf/xRvWYjW/VVbKiMmPcKpxFRoTfzvnNGvcXDdziJ0APAUbz72yU2LOD81P95ZWOLfa9C7e5qN6tewzIu9dUT7lsNH51i37PZPagHtiQQAAAAAAADY53p1S7NfXzHYMtMaQhG/fWajbSpqfhBe1WZ/dOZ2q6vbaQcPz/EfNTtsVFf73LQ8F3BdW1DtWoi3FABdsbmyMfg5aXCWfeuMvu52e1IJnUw/4Lq1uHaPWv+qWV5cXusClW1JJU9uvnCgTRjYEPz8+2tbo2o1vnJLlb29oCFgftCwbLv06F7uvSKKIgDdGlquCt4HkhVhb2oaPNt31Ng8v1eI/ip0svReKX6EXmMA/P4LQxoHhL37lc02d3VZi19DA9C+vbDEjhq7Z++RFG/mDMnflZxYtnFXa3vR528urnbjFewNjYPxxeN72+BeGa4k0nOzi7z3bX5b0mc//kGBrd5W5abzmuPy7cQWBkvuiIb33TX2k5ZkpBJQWoYL1pXbhsLd58kRo7s2JjxU+md9YbVdcUx+pxoAGmgNEgAAAABAnNrpne235tJakd4rmktrRXqv4AK0VqT1KbqL/wYxivxe0V1aQ3/W2r9tC5cc2cuuPq6XZaQmuVIetz681tWkb8oTH2y3R94vsJsvGuCClgGV8vj+Of1t2ugcKy6rtT89v9EWNzOugOrY/+Lx9ba+oNq1nv7x5wfZgGZKn5RU7JqmkoqWy4OEvqa516teeV7XhtbGs1eW2vaw7z5nZZl1zUppNgFQUrEraRDNtAUU6P7bV4e75Ida9n/jHytt9damx09Q8P9//73G1nnz7KBhXezPXxxmfXMjT5cC9KG11tVKvq2odffkYdnW1R+4VaWA1oaN5RDQWAX/fG2r1dTVu3rvO71J2lJU4xJJauWvAZY1bkBg6sgc++2VQ6yPN78rq3fatX9daZ+sKHPbSSQqN/WNf6yyU6fk2pCQ9wl13qF5/q2Gev+htLw+XFpmZ4eUwwqneRm0clfeQ2MWRHLEmBz76cUD3bqiXg1/eG5jkz1h9D7vL9lhNz201m1Hp07ubj++eJD/7J7qvbfR/BD1WKj05l1zNH91EU1/S6/fG587Iq9x/CeVs1rqbfehvQJECaAb/7VmjwRAn9yGba+sst5+782vSYOy7cQDOl8SBIhVkvfDv++2SgAAonTnnXfa1q1b/Xu7XHfddZafn+/fAwBE6/H3C9yJfqxUV/tnlw5uLNMRLbUkvfLPy1psgRjJh7+YaF38wE60VK/3879f6gJUkbTmPQEF2s7/zRLXUjwWatH+v+f1twuP2BX4i9bfXtlsf3huk38veldO72XfP3eAfy96z88uslsfWWcv/7+x1n0/1HIXBfx/8tg6+8Ozmyzdm3fHT+hmN57T344e37UxyL+xsMbunLHJBXOvPbm3e14Dt4ZSMEN12792z0p7dnahjeybaTddOMAuOjzPvW9g5pIddvODa+3tRaWu3vm91w23w0d33aNsyKbCalfvXuVmbvPm0So/OK7W2gq0qu66BjJWq2tRwqGorM5emVtsP350XWMA9KgxOXajt2wGeZ81rE+mS1YE6nfutN89s9Fu+Nca1+r4S8f3tr9eO8y7neTtzyrtjJ8vssuO7uX+PrQMUOhnadrU6ltOmNTdvnZqH5fU6JKZ7OZBemrTbT1VAuaj5WV27d0rbP6aCjtidI795OJBNt1bBgG994ufFNlN3jz7bG2FTfeWyx1fHObqxYdbuqHSiitq7e2FO+ynj623Aj+hccKkbvbdM/tbv55pNsqbpr3dH5dV1dlX715p/3prm5tvBw/rYv/99ij3fQPqTfK9+1fbko0VdueXhtk1dy63ed53VIv831wxxJWd+vMLm+3Bb4208YOy/b9q2O4ffHebqwev10wcnG3fPqOvXXpUvrceNSwD9dR4+L3t9osn1ttAb17f/42R1jc3cgJJQfgTb1tgM5eWWnZ6sj38nVF2hh/wv+fVzfbn5zfbw98d1Vh+SDTPtd8p9pbxg+9ts7+8tMUFtbXOf+HYXm6dyMtJ3W26RcH21z8rseu8bUDJnJMO6O6tq4Pc+AZBq3aNfXDv61vt9qc32LJNlXb+YT3tt1cN8dbPjN1avut1WgdVGueRmQVu+yutrHfb5GlTutt3zuznevFo/dc6rXmy2Fv+6nFx14zN9ugHBS5xou/8pRN72yVH9fKOJVpeJ2O1xTvO+ML/LXe9fkTJm19dPsi15N++o9Zbltvtd89udL1ptO/46aPrzd9c7JypPeyerwy3Hz+y3v7x+hb7+aWD7PpT++6WXATiEQkAAECHQAIAANrWf97eZt+6d7V/L3pqFahWnqEBq2go8HD2rxa7oF2sVtwx2XJiTDio9epJP1loyzftSgDo1EatKxWEK7l/qmtFC8RC685xty6wpWFlO1qSmZZkP7u0IQAVqz8+t9F+9vgG/170rj2ptwvcxkKBvS/dtdwefb/ACv55iPVo51ru4WbMKXJBYwW3NcDv8D4ZLlisBN/KLdWWnGz23bP62xePz49Y5iNQWVPvApx3zthsGwqqXSB80uBsF0Bf4i1L7Zd65qTYWYf0sJsuGGg9/Rb44X75xHqXjNHnujIzIdSCWsHzi47o6faRcry3rixYX+FKyoS93L1WQcd7vjLM+9xdtfcD+qy7Xtps20pqXfB+VL9M17r84OHZ9s/rR+6xbJr7LEV1lFjQ+zxxwxgb1Kvl8jIKjv7s8fWu7r0CqqrrP8EFl3e6MRUKy+qslzeftE5/84y+Te5PT/vZQvtkZbkLoDY1D575wWg7dGRX/9HWU5D8L948++vLm90yVcBagziPHZDpktCzVpS5AV6VrFDSRq3iL/vDMtteWuNNW5IN9ubLjWf3d2WMItWM13b//QdW24fLytwAsfrOU0d2ca3hNxbU2DbvfS48vKf94tIhjYmBpqzbVm1f/dsKm7mk1Kq8/coh3nLV2AQbvPe55aKBduWx3jod8hZKXlz2x6W2YF2FW/dC56WWb533n7aNN28bH3Fb0G/wTx5dZ6/MLfF+B2tdkH5En0z3W6k69/rsYfkZ9o3T+9oV0yPvp7QeXHXHcpuzqmzPadDFW576rf7j1UPttCm5rrzRCT9e6O03G5IEoXZfJ0d762Tk3hKttWZblUvqvTyvxEq93331PtH0paYmWbesVLdO3H7FEG+9y3H7mR/8e433N9WuZ4q+l3rDXHZUL7ffVk8RIN6RAAAAdAgkAACgbW0srHblNWLVq2uaa+UZ6wCFaqn4ycqyPepZR+Pocd1i/jwFfhTsKa/aveyGWvp97D1OAgCtoYDVR8t2X6+ioYCcgnOtqeutwF2sPQ5EAbXQ1s/RUOtsBRlfnFPcIRIAou121vJS15JY+y1t2wrOaaDOI8d2da17o6Xv98HSHbZsU5ULZtbvNMv13kslXw4e3sWG9c7cI0gdaqW3HFQiKDM9ubHESEClRlRCRoHyoCX8R8tKXVBaPUBCX64gi1qVKzExdkBWxHI+arn92Zpy+3h5metpoL+fPLSLG9hV9d3DNfVZou9ZVVvv6qHrPTT90VA0aH1BlZuGFZurGgLl3j/1ctC6ddjIHMtvYf5r2ancS0Za0h7zTAk1zYMDh2Zb9zYaZLVhmqvt01XeNG8JlvNO99s1ZVgXO3xUzm7ff+nGCnt/aalLBk0f39369Wj++2j906DHSsas9t6/wpt+zfNh/jo0xlue0bYWV2+CD5aUuqC+5q1+k045MNcOHJK9RxBfv51aHzTP1Oo/9GmtK0oiaP6qZFFz67CC8vptVEt+bVv6Gw10reU5dUSXZrd5fbamQdMSPg3BOq3tQMkqjWWhng6zV3jzNjXZlfQK1dp1MhZaF5SsUOJm7fZqN93qvageHFpWwTGAXqd9i9ZzJRu1/CYOzrITJ3VvNrEIxBMSAACADoEEAABgb6nr/6V/WGovzS0mAQBE0BETAKEUndjp/Qtvfd8aCkBKZ4jvBVGZNvjae0WBdG8qOsU8C7TlOhPOvbf3n3oP7O3ba97ui2lsjnpgtMW0A+j82j4FBwAAAABAB6KyD2oNGwSF0TEpUNlWQVIFsTtLIFtfuSMEaTXvO1uD6LZcZ8K59/ZmSFu8fXsH/6Wtph1A50cCAAAAAAAQ1255aK3dcP9q21YS+xgVAAAAnRkJAAAAgE5CgzcqgHX8bQvc4H0AgOi8Pr/EXp5b7AaKBAAASCQkAAAAADqJmrp6N9jZ65+VJHwZC9XS1SCA67ZXu0HrAAAAAAB7IgEAAACATqe0os6u/PMy+9zvltjSjRX+owAAAACAUCQAAAAA0OmoB8Ta7dW2emu1VdXQAwANumal2M0XDbDHvzfKstI41QEAAAA4KgYAAAA6ueWbKm3pxkqrqUvsZEh6apIdObabnXdYnqV6twEAAIBERwIAAAAA6OTOu32xnf7zhbahoNp/BAAAAABIAAAAAACd3s6dDRcAAAAACEUCAAAAAAAAAACAOEQCAAAAAACABJCSnGRj+mfZoSO7uNsAACD+kQAAAAAAACABdM1KsZsvGmhPfn+M5Xi3AQBA/Eva6fFvA9jHSirq7M/Pb7SF6yv8R9AjJ9VuPLu/DeqV4T+SmL53/2rbVJTYAzcuWbLUKisrLTWpzup2JttOa2iVNnr0aMvMbHn9yM5IsWtP6mMHD+/iPxK9v7682d5eWOLfi94Xju1tJx7Q3b8XvRlziuw/72yzuvrYfoIHe9vJzy8d7N+LngYFvfGB1f696A3My7Abz+lvPb3tNBYl5XX2R29ft3hD7Pu6758zwCYNyfbvRe93z2y02StL/XvRO+/QnnbB4Xn+veh94n3Wb73PjNX4gVn2w/MH+veip3n5x+c22paSWnt30Q5vf1FjZQ8c6q33iduWo6is1g7938+srLLenvnBGDuoFdt+PJn0nU+torreXr1lvA3JT+zf1Ob8+skNNndNmX8vehd6+4lzvf1FrD5aVur2h7E6wNsP3ujtD2O1YG25/fnFTbbDO+YM5HZJte+e2d+G9Uns9WLKDXOt2Pt9eu3W8TaUbSQmSzZWer9BG9z8i0UPrXtn9behvWOf3z/6zxpbva3Kvxe9my8caKP7Z/n3oqPjsYfe3WbPf1LkPxK9Y8Z1ty+f1Nu/F733Fu+wO2ds8u9F78AhXeyrp/SxnMzYkjfbSmrsZ4+vt63edazu/NIw65Yd27FgTd1Otww3FMZ2fpOemmRXTs+3YyfEfnz95IcF9uj72/170Tttcg+77Jhe/r3oaRn+47UtVllT7z8Snb65aXbb5wZZlxiXYa03T7/wf8v8e9Hrnq2k3yDr0z3NfyQ65VX19rdXNttHy2M/vv7CsfneOVKufy96/35rq73gnSfF6oSJ3e3yY/ItzVt/YrHeO0f6/gNrvFuxnZPldU2zP1491L8XPW0Pv3pivW0vrfUfiU5Xb125/tS+NnFwa86RNnjnSLEf93zN+7zDR3f170Xv6Y8K7ZH3t8U8LtX4gdneOVLsxz1Lvd+n2x5Z69+L3og+mfbtM/u5Y6RY6Pzjt948Xbll99+nX1422J07d2QkAIB2pAOuz/12qb2xoMQd3CQy7XlqvYPtAT3S7fkfjm1VwC+ejP7GJ96PV5WlpSRZUoKuGvX1dW69yE6ptqr6VJcEkJRk7zqKmaKTzL99ZbiddUgP/5Ho/c9dy+3+t7b596L35y8OtS+f2Me/F707Xthk/+udFFXXxvYTfKC3nXz4y0n+vegtWl9hB35vrn8vehMHZdnTPxhrA3qm+49EZ0txjV3yh6X2zqId/iPRe+5/x7YqqXLBb5bYs7MK/XvR+5F3oHnThQNj3u5emF1o596+xL8XveMmdLMX/984/170FPTXPNW8DRTcO5UEAAmARiQAonP2LxfZjE+L/XvRUZUUBRX/txUnpgpIff73S/170TvlwFxv/zvGvxe9N+eX2GV/WuaCffqFURCuX266PfX90XbIiJyGFyUoEgCtN3PxDrcebw75DYpGf+84/4kbRtvkYbHvnw/9wTz7dHW5fy96b3jL94gxsQWtFFj9f/9dY79/LvaAvILVOv6M1YPvbrOr7lju34veqZNz7Z/Xj4i5ccbqrVV2yk8X7hG0isa6vxxk+TEGj6tq6r1l+JktirExSHZ6sv3uC0Ps6uNiT6r88on1dsvD6/x70fvW6f3sV1fE3sBGSaPr71llOypjS4yN7Jtp7/xkgmsIF4vq2nrresVH/r3oKfD/xm3jbXifTP+R6KhBz7V/XWGPe79jsfrT1UPt2pNjP0dSg6U/tmI7/PKJve32K4dYZlpsx8UL11XYlBvnxhysHtwr3Zb+eYp/L3pq0HPGzxfZ2u2xJcZ6dU21f319pB0/KfZzpAt/u8Se+Tj2c6QHvM+7aFrsjaTU0OLWh9d65/L+A1Fq7TnS+0t22PRbFvj3ojd1RBd79HtjXEIuFhsLq91556wVuydVPrl9kktidGQkAIB2FJoA+Oy3B1hySuImAQpLa+2SPyyz+vqdJAA8SgDU1Jr9/brh1s87WUpE//3vf62woMCSbGdj63+5+JJLrGfPlltdpiQlWb+eaa6FRKz0Q14UY6s20QGDEg+xKvDWfwVyY/0B1kHtsFa0oqvyThhWbI79hC8jNdkd4KbGuK9Scm+9d2BbXh1biygZnJcec4soWed9XqwnYKID6vxusR34San3WbEevEuXDM3T2JehWmGplVJorxG1cEzk8s0kAHZHAiA6a7dVW2lVbPsKbWa9vP2E9hexUkv8dd62G6ucjBQb5O1/YxW6r9Bnf+53S12ymQQACYC9oX2Lfmf1+x6LNO9HaqC3HscalBMFqmNtWS1atlnpsX2evtVW77gs1la5kpud0qpjdwVX18fYOl60b+jvHe/GOn6DkoFrtlZZdaxROc/ofpkxf56iTCu3VHrHoLF9nj5GAetYW+XKth21rerhkJeTar1jTHCIluHGomqLcbNwDQG1nrZmnsaaUJFU73N0XBBrA0Sdp28sqnFVDGLV2nMkJRl1nhQrfZbWm1gb9ChRpX1NrFuFGu0pkRMr/R6v2VbltsdYaBn27+mdI7Wi4U9rz5HUAKxbK8rEbfe3w1jnaWvPkfT7tMrbt8Uqy/tdGuidd8Z8nustO83TirDfp+HeOXpGK37r2hMJAKAdhSYA6h46zJJj/NGPJ2qZdsSP5lult8MmAdCQAEjy/r1887hW/fDFgzvvvNO2bt3q39vluuuus/z8fP8eADQgAbA7EgAIV1zubSM/+MxKvW2EBEBDbwy1oD39oB4xl08BAADozDp2egIAAAAAgL2kMRw+N60XwX8AAJBwSAAAAAAAAAAAABCHSAAAAACg0+mWnWrv/XSCzfnNpIQvIwcAAAAATSEBAAAAgE5Hw+hoYFYN4qzB2AAAAAAAe2IQYKAdMQjwLgwCvDsGAWYQYAD71pptVXbLQ+vcb3Esumen2PfPHWAHtOJ36taH19nHy0v9e9H74fkDbNqYrv696Jzyk4VWVVtv//7mKBvQM91/FImMQYABAAAg9AAAAABA3CuvqrcPlpba2wt3xHR53/ub4rJa/11i89na8ojv2dJl+47Yknp4sLAAAGfSSURBVBQy46Zx9sZtEwj+AwAAANgNPQCAdkQPgF3oAbA7egDQAwDAvlVSXmdvLSxxiYBYZKYl2+Gjc6x39zT/kei97X3exsLYg/nTxuTYwLzE/C1A29E6f/xtC6y0ss7++61RNmVYF/8ZAAAAJBISAEA7IgGwCwmA3ZEAIAEAAEBbqq/faWu2VVu9d7rXv2e6S2YBAAAg8XAUCAAAAABxRg1NhvbOsOF9Mgn+AwAAJDCOBAEAAAAAAAAAiEMkAAAAAAAAAAAAiENtngDQiAI1dTutppYLl7CLt14w4AQAAAAAAAAAtI82HwR4+45a+78XN1lBaa3/CNCgT26affXkPpbbJdV/JPEwCPAuDAK8OwYBZhBgAAAAAACAttbmCYAVmyvthNsW2qqtVf4jQIOxAzLtpf83zgYlaHBTSADsQgJgdyQASAAAAIB95xdPrLeKqnr75hn9LK9r4jZIAgAAiafNEwBl3kHV2wtKrNy7BgJfvWel9cxJIQFAAqARCYDdkQAgAQAAAPadKTfMteLyOnvt1vE2ND9xz0cAAEDiafMEABDJ8Os/sYy0JBIAJAAakQDYHQkAEgAAAGDfIQEAAAASVZsPAgwAAAAAAAAAAPY/EgAAAAAAAAAAAMQhEgAAAAAAAAAAAMQhEgAAAAAAAAAAAMQhBgFGu2AQ4AYMArxLMAjwluIau+SoPOvTPc1/JjHd8eIm69U1jUGAGQQYAIA2obO88up6dyMzPdlSEvi4UxgEGAAAJCoSAGgXJAAakADYJUgALNtU6T+C0f0ySQCQAAAAoE2UV9XbzQ+ttcrqevvuWf1sWJ9M/5nERAIAAAAkKhIAaBckABqQANilprbeZq0os4oqdkGBrIwkmzysi2WmJWZ1NhIAAAC0neLyWjv0B59ZaWW9PfX90XbIiBz/mcREAgAAACQqEgBoFyQAGpAAAJpGAgAAgLZDAmB3JAAAAECiYhBgAAAAAAAAAADiEAkAAAAAAAAAAADiEAkAAAAAAAAAAADiEAkAAAAAAEBcu+TIXvaFY/OtW1aK/wgAAEBiIAEAAAAAAIhr3z6rn/3veQOsR5dU/xEAAIDEQAIAAAAAABDX0lKSLC01yZKS/AcAAAASBAkAAAAAAAAAAADiEAkAAAAAAAAAAADiEAkAAAAAAAAAAADiEAkAAAAAAAAAAADiEAkAAAAAAAAAAADiEAkAAAAAAIgzmWnJdsM5/e1HFwywgXkZ/qMAAABINEk7Pf5tYJ8Zfv0ntqOizr5wXL51z07xH008ZVX19tC7223lliqre+gwS05O8p8BcOedd9rWrVv9e7tcd911lp+f798DAAAAAABAtEgAoF0oAaCgdxLxbgu2OBIAwO5IAAAAAAAAALQtEgBoF/e8ssWKymv9e5DvntXPksiIAI1IAAAAAAAAALQtEgAAgA6BBAAAAAAAAEDbYhBgAAAAAAAAAADiEAkAAAAAAEBcW7SuwuavLbfqWjrAAwCAxEICAAAAAAAQ1y7541I765eLbUNhtf8IAABAYiABAAAAAAAAAABAHCIBAAAAAAAAAABAHCIBAAAAAAAAAABAHCIBAAAAAAAAAABAHCIBAAAAAAAAAABAHCIBAAAAAAAAAABAHCIBAAAAAABxpqqm3v743Eb79VMbbH1Btf8oAAAAEg0JAAAAAACIM5U19XbnjM32x+c22cZCEgAAAACJigQAAAAAAAAAAABxiAQAAAAAAAAAAABxiAQAAAAAAAAAAABxiAQAAAAAAAAAAABxiAQAAAAAACCuDcvPsBF9MiwtJcl/BAAAIDGQAAAAAAAAxLXHbxxjL9883gb0TPcfAQAASAwkAAAAAAAAAAAAiEMkAAAAAAAAAAAAiEMkAAAAAAAAAAAAiENJOz3+bQAA9ps777zTtm7d6t/b5brrrrP8/Hz/HgAAiEZxea0d+oPPbHNxjX3jtL72nbP6WW6XVP/Z6NTW7bR3Fu2wxesr/Eeid/CILnbIiBz/XvTmrCqzD5aU+veiN6pfph09vhuD/AIAAIQhAQAA6BBIAAAtKygosAcffNDd1rYBAE0JEgBLN1Va96wU++AXk2x0/0z/2eiUV9Xbd+5dZfe9uc1/JHr/74IB9iPvEqvfPrPB/t9/1/n3onfJUXn2p2uGWk5miv8I0DL9puq3derUqe4CAE3R+apcfPHF1rNnT3cb6CxIAAAAOgQSAEDLtI0EJx+33HKLuwaASCqq6+1XT2xwPQDS05Lsh+cNsD65af6z0amu3WkPvbvN3lsce4v8Mw/OtTMO7uHfi96MOUX25IeF/r3oHTqqi116VC/LSKPKLaIXHH9Onz7djj32WP9RANjTbbfd5q45P0VnRAIAANAhkAAAWkYCAACAtkMCAEC0SACgM6N5BAAAAAAAAAAAcYgEAAAAAAAAAACg06LITdNIAAAAAAAAAAAAOq1Zs2ZZaWns4xYlAhIAAAAAAAAAAIBOa8aMGfbQQw/ZsmXL/EcQIAEAAAAAAAAAAOi0amtrbd26dfbvf//bJQJWr15tlZWV/rOJjQQAAAAAAAAAACAuLFq0yP773//ak08+abNnz7aSkhL/mcREAgAAAAAAAAAAEDeqqqps8eLF9uKLL9oDDzxgb7/9tnssEZEAAAAAAAAAAADEnZqaGtu6dau99tpr9qc//cneeecd2759u1VXV/uviH8kAAAAAAAAAAAAca28vNxeffVV+9e//mXPPvuszZo1yyUD4h0JAAAAAAAAAABAQiguLrZ58+bZjBkzXDLg4YcftuXLl1tdXZ3/iviStNPj324TZWVlLpsCAEAsHnzwQSsoKPDv7XLxxRdbz549/XtAYtM2om1FrrvuOncNAABaJzj+nDp1qrsAQFPuvPNOd835accVLKO9kZeXZ1OmTLFRo0ZZTk6OZWRkWEpKiv9s59XmCYA33njD3nzzTf8eAAAAAAAAAACdQ1ZWlvXt27fx0q9fP5ccSE7unMV0SAAAAAAAAAAAABAmPT3dMjMzrXv37jZmzBgbN25cp+sFQgIAAAAAAAAAAIAWqBdAfn6+jRw50l2GDBliSUlJ/rMdEwkAAAAAAAAAAACaoFb/QUkgJQB0v0ePHpaWlua/ouMiAQAAAAAAAAAAQIhu3brZ2LFj3UUBf5UCUkmgjt7iP1ybJwA++ugjdwEAIBaFhYVWW1vr39tFP7LxMOo+0Bbq6uqsoKDA3VarEwAA0HrB8WeXLl0sOzvbfxQA9rR161Z3zflpxxUso9ZSUD8jI8O6du1qo0aNsgkTJrjBfztbsD+SNk8AAADQGnfeeWfEH+zrrruOQCfg0zaibUVuueUWdw0AAFonOP6cPn26HXvssf6jALCn2267zV1zftpxBcsoVqrpr7I+quWvy6BBg+IuKZzsXwMAAAAAAAAAEPdSU1PtgAMOsCuuuMIuueQSO+GEE2zMmDFx2SOMBAAAAAAAAAAAIK6pfn+fPn3spJNOsm9/+9t23nnn2dChQy0nJyeuSzuRAAAAAAAAAAAAxKWsrCwbP368nX766Xb55ZfbtGnTEmrsFxIAAAAAAAAAAIC4ogF8DzzwQLv00kvt7LPPdrfV2j/RkAAAAAAAAAAAAHR6Cvp369bNJk+ebNdff72de+65NnDgQMvIyPBfkXhIAAAAAAAAAAAAOjUF/g877DC7+OKL7ayzzrK8vDz/mcRGAgAAAAAAAAAA0GlNmDDBBf5PPPFE69evnyUnE/YOMCcAAAAAAAAAAJ3WhRde6AL/KSkp/iMIkAAAAAAAAAAAACAOkQAAAAAAAAAAACAOkQAAAAAAAAAAACAOkQAAAADoJLKzs2369OnuAgAA9s7UqVPdb+rQoUP9RwAgsuAYXMfjQGeTtNPj3wYAYL+58847bevWrf69Xa677jrLz8/37wEAAAAAACBa9AAAAAAAAAAAACAOkQAAAAAAAAAAACAOkQAAAAAAAAAAACAOkQAAAAAAAAAAACAOkQAAAAAAAAAAACAOkQAAAAAAAAAAACAOkQAAAHQIPXv2tPz8/D0uKSkp/isAAAAAAAAQi6SdHv82AAAAAAAAAACIE/QAAAAAAAAAAAAgDpEAAAAAAAAAAAAgDpEAAAAAAAAAAAAgDpEAAAAAAAAAAAAgDpEAAAAAAAAAAAAgDpEAAAAAAAAAAAAgDpEAAAAAAAAAAAAgDpEAAAAAAAAAAAAgDpEAAAAAAAAAAAAgDpEAAAB0GPX19VZZWWk7d+70HwFaR+tQVVWV1dbW+o8AAIBY6Le0oqLC6urq/EcAoGU6Bq+urvbvAegIkrwfdaIsAIB2t2PHDnv33Xdty5YtVlZW5i7l5eWWnJxsX/rSl6xv377+K4GWffLJJ7Zw4cLG9ai0tNQF/6dMmWJnn322/yqEKygosJkzZ1pNTY3/yC4ZGRl28MEHW+/evf1HmrdixQpbvHixpaamuu04JSXFPa7Eni5aHkOGDLFx48a5xwEAHYeCdR988IGtWrWq8XdUv6nal59yyil2yCGH+K9EKIVTli1bZosWLYqYKOnRo4cdeeSR7rexJfqd1LGxki7Bb6kuovfWb2lSUpIdeuih1q1bN/c4sD9pndSx36efftq4zwiOwQ888EA744wzLC0tzX81Qm3bts0+/vhj1/gtnLb/ww8/3Hr16uU/0jwtg+XLl7t5HRyDa18R7De0PEaNGmUjRozw/wKJiB4AAID9QgciOjjp3r27O8jRyY5OonJyciwzM9N/FRAdBS607uiEWCcfWr+ERFLz1EJL251OEjQPdfKgkzhdPvroI3eJlByIRCcwer9169a5AMabb77pLh9++KGtXbvWbeMlJSX+qwEAHYmCRKLjsuzsbJcE0O+DAkp6DJFpHgW/k/ot1e/c/PnzG39L33jjDXc/Gjp20fvpOEYBvXfeeafxt3TevHm2detWt1z0ewp0BFpfFWTu0qWL20/oWFLrsbYF3Q8ag2BP2m+EHoMvXbq0cb8xa9Yse+WVVxrPZ1qiY3C9h47B1bBH+wzte4JjcO03OAYHPQAAAPtNcKLz2Wef2YsvvugOXNQ64bzzzrOsrCz/VUDLFLjQCYhOiu+9914rLCx0Jx30JmlZsB1q/j3wwAO2fv16/xlzCZUvfOELrgVjS/QeOpnR5fXXX3cnL/q7c8891/Ly8lwQKWjRCADoeILWomqZev/997ugUm5url111VXuGpHp9y8I1CnY9vjjj7sgfqBfv35uHqpnXUu0DPReOo556KGHrLi42MaPH2/Tp093DR30O6qLgoZARxB6DP7000+7xiTp6el25pln2qRJk/xXIZLgGFzHzvfdd5/rGR9QUuXCCy+0oUOH+o80LdgH6Vx6xowZLmGYn59vp59+urvmGBzC0gcA7DfBSYxaJAStp3SQEs0JEhBKB7Q6uFVpqWBdUtBZrRg7mo0bN7pyOUFry/1N22DQZVgnHsOHD29MwGnbVEukaCgYoRM+nbCMHDnSvec555xjgwcPdo/pOU48AKDjUuJc+26V8AjKUigR3NF6ACjQpVb1mzdv9h/Zv/T7p/mmS3BMO3Xq1MYgvcrtqUxQNLQMdBysxgtKumjeH3vsse74WL/N+gyC/+hIgmNwBaGLiorcY1qHoy0h2Z7UQr6pcl37Q3AMrhb66kU7YcKExnMXPaaeQNFMa7AP0vH2sGHD3DG3So8pecAxOAKsAQCA/UotFdSlWQeNOnDRCQ4HKGgtrUs6gJaOmkxSyxx16w1tHdgRrF692p2IqM6zWisGVJ9UiZVYKCgzYMAAtwwAAJ1LaLBaNaM7WsBZvzHqOarf045EiX0dh3Tt2tWOOOII1xBBdFyioGNwfBINtabWb6/Gzom2DjiwPyn5FSQAFHTu2bOnu91RaPt84YUX3EVJuY5EDXCUdD3ooINs9OjRbp+rc+MlS5bEXLpn06ZNbv6rQQ8QiggLAGC/0smQTpZEwVoChmit4MRbLe904Kx1SS1eOhqd1GsaO0oPgIACPhp/Q4F7BS4CSlSohmgs1P27T58+9OYBgE5I+/BARxw0Ur+hCo4FvRQ6iuCYVoE39ZwYM2ZMY/JEv7FBcDQaKsOk91NpTKAzUEOSoLX6wIEDXcOujkTH3Wp4pn1H0Fu4I9D0aL+hRjhK+Gm/ERw/qxTYggUL3O1oaP6vWbPGnQOpZBgQigQAAGC/UvfG7du3u9vq2kwrJ7RWaDJJgX8d/Ha0Vosdlcop6IRBNfsVtFAJH5XuCWicjmgDFwrIqHWm5j+DvwFA56J9fehxWf/+/d1ttEzHIQrcK2mi3z8F8tQSV/TbGEsyPWjQoHIeQGcQ3nMI0Ql6wyv4r/2G5l1wPqzkgAb1jTbZqX23zq07Ys8t7H8kAAAA+1VoaxGVHaHFMFpLJ97B4Fn0JolN6AlDQLVD1RpJVA9adUh1ItISjW8QlPMCAHQuoUE8BZ8JIkVPyRMl1IPfPyVPFNQLKJkeNFRojo6L9Tq9T0ccywgIpwD1hg0b3O2gJTuiEzRgUuMb0TH0tGnT3G1RT9yPPvrIv9c8nQfp/UjAIBISAACA/aqjdzNH56ET76BOZkesPdqR6cQj/IRB3bcHDRrkbiugoQSAyhe1RNu0Sgl1xMHfAADNCz0uCwJSiM7KlStd3X/9Bopa8x599NHutqil77vvvuvfa1oQEOS4GJ2FGnQFZXWU+FLvIURHDXA03odKcAY0DkDo/blz57Y4FkBQSohzIDSFBAAAYL9RUFEHjKKBf5sarEgHNDoZ0sGRWkEEPQaAUGp5HrRQHzp0aJPlZ7TeaT3S+qST8UQXnDCobJLq9gd08qbyBcF81La6ceNGd7spOvlbu3at9e3btzEAAgDoHBSICnrSqRWqEsFN0e+neofpwnFZAyVPlPwOHX9Iv6sTJkzw7zUcq6hMXnN0zKtSQpT/QWcRbeJQ+4rgGFzrORqOr1WCMzRpomPvo446qvEYvLi42JYuXdpsT9wgcajzaXpuIRISAACA/UaBwiAAqxOmSIMVqUvpxx9/bM8884w9/vjj9uijj9p7773HQSP2EE1vErXOe+WVV+yxxx5z69Nzzz1nmzZt8p9NTMEJQ/g808mDWiB1797d3dfgae+8806zgxfrfbTN0moUADof7cOD4yvVoI6UyNU+/tNPP7Xnn3/eHZM98sgj9vrrr7sAVSJTIkRBe5XtCcrnBQ477LDGeakky6JFi5r9LVVZPgX+gt9foCMLGn+IGnRFKv+j9T04Bg/O53QMruB3c0HtRKDzF+03wsvgqhdu0AtA81g9cZsbC6Cp43kgQAIAALDftDRYlFqhPfTQQ+5EUy2RzzjjDBs7dqx98MEHro4qEFBroiCQrxPv0AFsRQfOClAokaRWjSeffLIdd9xxVlBQYE888URCn3wEJwyRgva5ubk2ceJE/565gYJDEy3hguARJx8A0PmEJgAiBaT0W6ugnY7DFJzScdlBBx3kGmqoRnUi9wRYtWqVO/4I6v+H0mNBa37NIwXyNC+bol4CTSVggI5Gx9LB+qzjxvDElXreaiDbp59+2iW2jj/+eDvppJOssLDQHZs3ty3EO+0PdGytfURozyHR+B+hPXGVQAl6aEWiJKT235H2QYCQAAAA7BdqCaKTJVFL49DyPwrG6uRHgVmVErn66qtdEFItpl588UV3oDh//nz/1UDDQXHQmk7BfwX5A6qZ+eyzz7qE04UXXmgnnHCCO8h+8sknbd26de5guqXSNvFM25NaJGpbC6dt8/DDD28MQmgeqweOTubC6TkFj3Ty17VrV/9RAEBnoECU9uHav2vfHxqQ0nGZBvj817/+5YJRV1xxhQv867fzhRdecEEn/Z421zo13ik5rt/KSME3Pa5AXjA/Nd+CY+Bwmtd6r/BSQkBHFQw8K1r/QxOHOr5U0lDncBdddJGdeOKJLlEWHIOr50A040vFK/WAUK+JSPuNoCdut27d3H3tmzWGSFONlrRPCR2DBAhHAgAAsF+EthZRsFC1D0VBxHnz5rkuokcccYQ7UNTJpoK4s2fPdq+RSOWCkLhCe5OEtmRX66IZM2a4k+hLLrnEDUwmaqmo50QH3ok8WFlwwhDe0jOgeaNtMaDaxZECFzr5U/Cota3/1UtDJ4oAgPYX7MNFvwdBQErHZfqNVSJdQf/TTjvN/S7o9WqMEQT+9Df6PU1EmgdKkChor1a7kei3MXRgTpXU0+9eOB3vqpySegAk6vxE5xE0/tC6HJ44VCkrtfpXwPr88893x+C6vWTJksZj8ETeb4iSfZoH2ndEouNz9X4P6PXqMRCJ9tPhCZiWaN+l/U1RUZFLxDSVXEB84BcFALBf6GAxaCkWHKzoIFLlft58801XokWt/oNuj2otErRoUPB/6tSp7jYQnHiLTiKC2qM68VCdUZ2Mq9V/aNIotHvyoYce6lqtJyqdTGgbbK7FkAYwDOaRtluVLwjvBaDloFZgran/r2SgEjX33nuv/wgAoD1pHx4pAaBg02uvvWbHHHOMHXLIIY3BpSB5rqCfAn7jxo1L2JanOt5QAru5BLiOQQ4++GD/XkOr6Ui9WfWbrPnZVEAQ6Eg0lpv2Gwocq/et9hvaN6gcjXoHKYCtpGHQ0Ev7C+039BrdHj9+fML2GtV5rxrU6JykqfE+NI+mTZvWmFTR30Qaj0v7b/Us0vwPH4MkXPC5Kov697//3R1733fffe62xnSZO3duQvfKiGckAAAA7U4HiTrxCQYADk4y1fJfNSLPOussGzp06G4tQrp06WKXXnqpa0GikkCqPQuIBt0LDlTVuk4Bf40HoAEK+/TpY6effvoeQQmVtbnsssvsqquucr1MdICdiNRiS12wFWho7oRBJybqhqz5pO136dKlrrVQKLVa1ElFcJLXFH2mWn6pJ4HG8lDX8D//+c82a9asxuATAKB96bdUQTtRQE7HXUr2PvXUU67RhUrYhB6XKSClxhoXXHCBXXPNNTZ58uSE/S0NjmlDy1lGMmXKlN0aHGgsBQXuQikBoACpegAAHV144lABfyXENMiv1nUlDsNbpKsn0ec+9znXM/fUU09tDG4nmqA3vPYbze07wxu+KdAf3gtAAX0dx7eUOFSi8tVXX3X7dd1WUlfnQRqoXPt9lVRVCd5///vf7vwgPNGAzi3JO4mjjwcAoF3pYFFdyRX8Uwv/Aw880LUm1omnWjlooLTQk0ygOXPmzHHBfgWWVf9f64+6warLrA6Yw0882ooOitevX287duzwH4nOSy+95P5WJ0VNlQqIRAEBJcbaMsCiQL7qsCqA01LgQuNyPPbYY41lejT9Gkg5oIHcND+UpGvue+mE4uWXX3bLS6/TyaICT3p/ueWWW9w1AKD9aIwlBaRFrfkVDFJgOwj+Bz0y25p+CxTMCg+EN0fT9f7777vfRQ0mGi39fuo3Rw1P2uq3VL/nCqiprMn111/vP9o0JbuV+FYYRscnavSiXnai39d//OMfriejHgc6OtXwV+txjSGixiLq5aLEoRqN6LYSifuCtjs1JFFjlGhDmprG4PjzqKOOarHBSih9jwEDBrTYuj4WCxcudCWSLr/8cvfezVGS5YEHHnCNbbTvUsBevZuD6dF5kJKHSsY2Nc81n3T+rZI/06dP36MxneaPzp90PK95q/fRQO/6PUB8IAEAAGh3Onj5z3/+4w4udBCjgxedxOlgTEHbRO0KitjpBEClCTQolmhd0qHNAQcc4Fq1aGDbfZVM0vqrEkM6kI5F0PNFXaVjCUAEAy9GGqy3tRTwUdBCvWpa2u50YvDggw82jregwMU3vvGNxmD/Pffc404mFIxpbp4r2acWT8G2r/fRMtTgwkICAADa3x133OFa7opa5KrnnH5HJ02atE/L5KnlqspO6DcmWvrtD8rQxdJ6WL87aihwzjnnxJSAb456IKrFrHogqjVzS3TM8N///tcdQ4jmr4Js+i1UIuThhx8m6IZOQ+VolAATHfvp2FbrroL//fr122eJQzW+0X5DycBYtPYYXMerOlZWArEt6Fzl7bfftg8//NC+853vtHiuov2djtmVQBQlL6688kq3b9ZzOgbXY+pZ0dT3UoLgoYcecgld9Y7WuXck2idrH6V5pR4F6jEdDESMzi3lVo9/GwCAdqHyHwrY6gROJzw6mNLBi1ojKwiolsAKRurkLGjZAESievQ6GFY3Wp1k6ARc65ROrHVQree0bqlVkh6P5WC/JQo6qBWRrvW50V6UANOBvlr4qYt/pNeEX7SN6PVqJdhWCQ0FW9TKR/MmmjE19LnaLlWqSycu+ns9ph4XWg46AVRvnmCg5abobxRY0vLQCZjua5tXKzI59thj3TUAoH0oKK3fA9F+WUEf/XaqHISOy9SiV8EitQjV821J76ffEL13pN+/SBf9higAqN/fYHDdaC76LVXwS79TbfVbqoS2yldqPKFogoOaZvV41W+efkv1PTRNKvOh42Al2VUzneNfdAZqwBE0hFEDFR2LKyivY/DZs2e742QFqbXet+UxuLZfnUfq8xT4jrS9h1/0Oh2DixqsaD8X6XWRLtrP6NJW26WC6+rBrGkKegA1R99X80/7B+2btc/UMbkSmprfmtcqMdZcTwL1mtJ+R6/XvqepMUt0fK5SqkoI61hf+8ugXC86N3oAAADanQ4KNTCUqOWTWmLp4FHlQzQIsE44dZCjYKJaEyfqoHJombr+quuxrtU6Rd1oFUTQwa1atn/yySeurIAO8tWiriOMHXHXXXe5kxZNa1ODfrUHzSPV+NR4CEcccYT/aPN02Ki/USsi0YmLvocGYdYgvp///Odt4MCB7rlYqEs2PQAAYP9QslylIUSDcl544YUuUKZa0yrXqASAAkGjRo1yrdy179+f1EJVNcb1u//lL3/Zf3T/0LSoB4DGFFKgMBr6zVSPuqCEoAJ3OkZRiUAF3tTSGOjoFIT+3e9+54L8CoyrJbuoXI32GWowonVciTHtNxRwbsskQKwUOP/rX//qzgsuvvjiFhus7Evav+p4WqVvdb4bDSUNtN/QebJo/3fttde6Y3KVFdPt5vbN6nGghI3oc5sqn6b5FPQ20HI95ZRTXG8wdH77pk88AADNCIKHMnLkyMaW2xMnTnQ1TxWs1YmmkgE6gASaosRR0PIoaD2oniOqlX/88cfb0Ucf7YLW6hEQJJ3QQCdoOgnSNhgtnbipVFfQpVsnMEq0qEWSWgzRQggAOp/Q47IgSKcEtcoyqjW6Snrot1T7eiXWlcRGAwXjFOCMpbGKWkqr91xAgVI1gtHvclOtciPRb7ACev/617/smWeecYn9pmj5KaETlPED9pZKVin4Lwqmq5eQLmqVrmPwI4880vXwUUtyNfIIxpBCw3gf6gkUSxJCvShCG+xo+//oo4/cfkO9AVoq1aZeSgr6awwvjSHQFO3fg+Wqngdt3esL+w8JAABAu1KrArWWEh1UhA48GpxwHnTQQe6+kgDhJypBl3S1OgFUOibozKigfxCYFrVa0YGyDphFJ75BsiCgx5o7YY5Xmmc6YVDAItagfZ8+fRoDF9pG58+f78oW6CRGSQAAQOehGvZBPXoFesJ7yim5rhI12r8rMKQW6uED9uq4TOUdE5GSJ2q4Esvvn45/lUwPyono2FYlmBQobWlA/oCWg2qgK4ioBjQKxv79739vLKcXTsc/GshfrY6D5Q3sjdBztPDGJDoeV+JQpa0k0n5D66TW2+A4PpHoe6u1flN1+JuiXlih+2j1qtf+V/uNlnpXaB+llv/HHXdcszX9lZxQLyXR/r8j9J5G2yABAABoV+vWrWscgEmBxODAMFRoy7LwFlWqtapyIUG3aSS28N4k4XRSEZxY6MA4SAaITrhVf1OXRKNtUImPaAMNobRNKhgUtAjSNq2ThVhaLQIAOoagN5hoXJpILdlDA3QKWiuAHdAxm3rYNRV4jmcKvm/bts0l0kMbIERDf6PAfUCNYzRvWxqQX9TyVyU6VK5Jg3mqhriS8PptV0AwEjV4UIJBv90M6Im9pRbiOv4T7Q/UCCec9g3BvkPrdniA+uOPP3a9X9SYJNEoeaJ9QGsazoQmD3X8rd5DbXUMruWlXl7aV2i5qlHe/i75hrZDAgAA0K5CW4s0dbAS2iI7fDAjnWjp5FRlXpDYdNCrE1rRgbC6HIfT2ABBN1aVBwptaaNeJGoFpxIHiUbfXUGfWMr/BHQCpwRAeJCiNe8FANi/QhMATQWk1Ogi+C1VmYnQkhAKPinw3K9fP/+RxBEE7WPtSRdQSY7QhEu0PQk06LCCqwrO6fM1/xWwk6aOj4Pj76BUC7A3CgoKXKMs0T4hUlJJ+w01tpFgIOBQ6j2q/UYQzE4UmidKmGq/0ZryOjo3Dm2Vr1b6St62BY35onJNOtY/4YQT3DhhLfUsQOdBAgAA0G50shKU/9HBRGj901ChPQBCD2jUQkQHJTro4eQFKv8TrCsK/kc6gdDzwYFr+MGxDr61TiViyxZ1PVa5htaeMCj4P3nyZP9eQz1jnYAAADoP/QYqAaCAlH4rFZAKD9JJ0IpXLULVczPoAaC/e/fdd13guq0CUJ2Fgu5qKbs3LerVMCFInjc3/0Ppc1VOZerUqY3JAjVmUMkO9ULQgMLhtPx0zCQk69EWtN8IyrE2lTiUYN+h/UbocfrcuXNd4jFS4514pvmhnse6bu1+Q0k+NcQJeh1p/kfquRULnS9pHzFjxgy3nNTLQAnKREvOxDsSAACAdqOAo7pLiw4Emwq8jh492r/VcHIpwQGTDjh10BPa/RyJKXzQwki0jgVBiWBdEq2Hb775plvXEqU3ibYhfW8Nrv3qq6+6g321CGzteBoHH3ywG7NDCCgAQOejAFzQ61IBvKaC+EHLdP2OBOU6dFsteBV4VrAoUVqJ6nurN+rbb7/tSqBoHuq6NWVMNE+D8RWUSFAgr6XjWyUIzj33XFf+J6CBQDVdKuunhHw49Q5Qj0gFDCOVagFioeNHnY+pV5C2e+03IiWuNDh2UOpVf6N1VHQ+qMShxghQEixRqMeESh6988477pxE+87WHINrnuv8JTgGby4BEw0tF03Xs88+63pqnHHGGbuVGUL8IHoCAGg3OgFRyyXRyWRTrRV0UKMTIlF9SAUtZ8+ebW+88YY7IIl0coPEEhw4S3MntHpOg13pwFit3tXqX2WDHn30UXeyrZZyQQuaeKV59dJLL9m9995r//znP+355593A6/pgF9JEA0a+MADDzS2DoyWEieHHXaYu039fwDofHRMplIeot9Jjc0UyZAhQ9zgk/rdUE9OBfAU/FcyWa1EE2GQSAXvnnzySbvnnnvcb+b777/v5p8CeBoD4R//+Ic7tggtYxkNJdDVWEHzX4G8aCjwFxy76Pc8KO8TqfW/BA0m9DnRjDEANEeBf+03tD/QsbTO6SIlrnSceMwxx7iAtY7Z1XNFyTNtL1rf9Vy8N+jSMbh6r+v4W/uI4BhcCcNZs2Y1HoMvWLCgMUESDQXqNfaHgvTab7T2XEbToQHIdZ6gnvkXXnihG5ukNaWJ0PGl3OrxbwMAsE/pIEhBWB2sKHA4cOBA/5nd6WBQAUW1qlq9erVLAuig8fjjj3f1ThOllRmapnVAgXydkKsV3KRJk5psqaIWSDpQ1kmHWr/rIFuP6SB3f7T+1/qsg/wDDjhgr7vsRkOfpcSHtied+OtEQUk0nbApGKByWnqNumE31SunKZqvOnlQK66WyhY0R8mHYADJY4891l0DAPYt7b9Vw18BvUMOOaSx8UU4BZf0nI7j1Npdv2NKBOiYTDWi2zuRrtbs+i1XEFG90dpDcAwrCsDrN1S/pfpNVSmP4DdQDRJiKYmnYxe1ktZxjY4LYg2Iaj4sWrTITdPRRx+9x3GFft/feustF7BVIicIGqpFtnBMjVhpndExtdYpjSmhxllNBYy1fSixqPM4HYOr9I+Owc8777x2L+eqdV5Bd+33FORuj2SYtj99dzVm035CvSXCj8FF80iPRUvLQH+jfaH2G60pw6mx1NS4bv78+S4ZM3369D2WiUoCaf8e6/kBOqYkb4WMPs0EAMBeCgZl1cFfSyc5+olSKzO1rtJBWnCCBIjWI/UqURA6mkC61iOdrOgkXV2O91ero7vuusudhFx++eWN3XcT3csvv+xaSMktt9zirgEA+54CU0qmK/jU0jGWjss0sKf+Rgl0/Ybtj+MyJR/U2l4BtS9/+cv+o4npsccecwN3qvesSgOFB/C0rNTyWMffCtQqya5ltnjxYncsElpKCIhW0HtIgWEl4lqiY3Cd0ymYrGPwphrt7EtK4v31r391DWIuvvhil7xIVDp/Ui9gLUclDjWwcDj9LvzlL3+xc845h1KfcSK++9sAADocBWvVGiSa4KtOUHSQqAM0JQAI/iOUWhupFU20rej1Oq1Lan2zv4L/AAB0JGpcoZak0Rxj6TUKuuu3VMdzHJftfwpmigL/kYKq6rWglr56TsFaHf+oAYV6DigpALSGGtPoGDya4L/oGLxfv34u0bg/gv/YRb2+lEBVAvfss8/eLfivJG9FRYVL1qi3hPYXNFaKH5z9AgAAtCO1flLQJJEDJzrB0EWtDxWICAIYohZH6p6t54LXAQAQCH4/SeZbYytmBe3Uwjmg306VHtFgxWrlq6BrUPJENcjVk0Pl+4BEksj7Dh1Xq/fU448/7vYNGoz49ttvt9tuu63x8uMf/9h+/etf25/+9Cc3NoASPUr6Ij4wBgAAAEA70om4Wk5qsK1EbAWlIMWHH35oS5YscbX/1QpRpQiUCBCdlGzevNmN/6GWi+rpwckHACCg4F1JSYkbL6qp8aQShVpU67dS4yKpgYFKMym4v3DhQvvoo4/cAM1KDOixoFyLSu6p14cGdiaJgkSh4L9KEanX09ixYxNuoFsdaz/11FMuARgt9drQWC+ID4wBAAAA0I50Iq5WOHszaG5nphb+anWkgL/mQaTggw5PNZ/UE0ADFipZAgBAQD3HlERv7wGIOyIF9ObMmeMCfEqy67dVv5saIFlBf40D8O6777qkuxx44IE2derUdh+EFdjfgmPLaEsXxROV9Fm5cqV/LzpKEmp/gfhAAgAAAAAAAAAAgDhEfy8AAAAAAAAAAOIQCQAAAAAAAAAAAOIQCQAAAAAAAAAAAOIQCQAAAAAAAAAAAOIQCQAAAAAAAAAAAOIQCQAAAAAAAAAAAOIQCQAAAAAAAAAAAOIQCQAAAAAAAAAAAOIQCQAAAAAAAAAAAOIQCQAAAAAAAAAAAOIQCQAAAAAAAAAAAOIQCQAAAAAAAAAAAOIQCQAAAAAAAAAAAOIQCQAAAAAAAAAAAOIQCQAAAAAAAAAAAOIQCQAAAAAAAAAAAOIQCQAAAAAAAAAAAOIQCQAAAAAAAAAAAOIQCQAAAAAAAAAAAOIQCQAAAAAAAAAAAOIQCQAAAAAAAAAAAOIQCQAAAAAAAAAAAOIQCQAAAAAAAAAAAOIQCQAAAAAAAAAAAOIQCQAAAAAAAAAAAOIQCQAAAAAAAAAAAOIQCQAAAAAAAAAAAOIQCQAAAAAAAAAAAOIQCQAAAAAAAAAAAOIQCQAAAAAAAAAAAOIQCQAAAIAEVVhY6N8CAKDz4PcLAIDokQAAAABIMDU1Nfbee+/Zo48+6j8CAEDn8cILL9jzzz9vpaWl/iMAAKApJAAAAAASQH19vZWUlNicOXPsb3/7m7388stWUFDgPwsAQOehwP9HH33kfs/effddKyoqstraWv9ZAAAQKmmnx78NAACAOFNXV2ebNm2yJUuWuMuWLVtcMkAyMzPt+9//vrsNAEBncffdd9vGjRv9e2a5ubk2evRodxk6dKilpKT4zwAAABIAAAAAcUiHeEuXLrXZs2fbhg0brKysrDHwHyABAADojMITAJKUlGRZWVmWl5dnU6ZMsQkTJlh6err/LAAAiYsEAAAAQBxQcL+qqsp27NhhixYtcoH/4uJi/9nISAAAADqjSAmAcPqNO+CAA2zixInWs2dPd5+eAQCAREQCAAAAoJNS0F91jxUEUZkfXdavX28VFRX+K5qXmppqRx55pH8PAIDOQUluJbyjoV4Affv2tf79+1ufPn2sX79+lp+fb8nJDIkIAEgMJAAAAAA6GQX8ly1bZqtWrXID+SrgX11d7cr+AACAyNLS0lyZoJycHBs2bJiNGDHCjRmg8kEAAMQrEgAAAACdjA7ftm7dasuXL7fFixe7XgCVlZUxJwEU8OjVq5d/DwCAzqGwsNBqa2v9e9FR8F9lgLp27WojR450F/UGUG84AADiGQkAAACATkyHcuoFEJQBWrt2rbtdU1Pjv6JpjAEAAOiMohkDQFTmR+V+Bg8e7IL9QfkfxgIAACQSEgAAAABxQmMCqBzQ9u3bbe7cufbZZ5+5gYGbQgIAANAZtZQAUGt/tfCfMmWKq/ufnZ1NS38AQMIiAQAAABCnFPyfN2+ezZo1y5VLCE8GkAAAAHRGkRIACvqrvM+kSZNs8uTJlpub6z8DAEBiIwEAAAAQ5xT4D8YL0ODB5eXl7nESAACAzig0AaDAvwb0HT16tLsoCQAAAHYhAQAAAJAgNEhwcXGx6xHwySefuNrIJAAAAJ2NEgCbN292Af8jjzzS8vLyXFJbg9sDAIDdkQAAAABIMDr8U8vJ9957zy688EL/UQAAOoennnrKxo0bZ6NGjSLoDwBAC0gAAAAAJKi6ujpLSUnx7wEA0Dnw+wUAQPRIAAAAAAAAAAAAEIeS/WsAAAAAAAAAABBHSAAAAAAAAAAAABCHSAAAAAAAAAAAABCHSAAAAAAAAAAAABCHSAAAAAAAAAAAABCHSAAAAAAAAAAAABCHknZ6/NsAAAAAkFB0OjRz5kzbunWrlZWVWXl5ubtUV1fb1VdfbXl5ef4r905tba3NmzfP1qxZ0/g5upYzzjjDRo4c6W7Hs4qKCqusrLSMjAzLysqypKQk/xkAAADsK/QAAAAAAJCwlAAoKSlxwfht27bZhg0brLCw0KqqqtxzbaW+vt59RmlpqW3fvt3Wr19vRUVF7nMSwZYtW+zpp5+2e++91x577DHbtGmT/wwAAAD2JRIAAAAAABJWcnKyHX/88Xbeeee5S9euXf1n2lZ6eroddthhdv7559sFF1xg+fn5/jPxT8mP+fPn2+LFi12yZcWKFfbee+/5zwIAAGBfIgEAAAAAoFVee+01e+edd1yAtzNTcF4laQYOHOjK0+wraWlp7nN69uzZZqWFOgP1pFAJpFAqBQQAAIB9jwQAAAAAgFbZuHGjK2kTL8OKqSZ9e9Sl12eo50GiSElJsbFjx1qfPn3c/R49erjeEAAAANj3SAAAAAAAiJla/a9bt86/BzRPvSsuueQS++IXv2hXXHGFDR8+3H8GAAAA+xIJAAAAAAAx0yC2lHFBtNTroVu3bi4RoB4AidQDAgAAYH/iqAsAAABATFTPfdasWf49AAAAAB0VCQAAAAAAMVm+fLktWbLEvwcAAACgoyIBAAAAALSBmpoaKysrs+LiYisqKnLXuq/HY1VdXe0G19X76LJjxw6rqqryn22ZBuWtq6tzn62/q6iocDX7Q+l5PV5eXu6udb8les2GDRvs7bffdn/TGsG06TuqhFD49wqmK9I0N0XvqffRfArmmeZfa+Z9R6AeFrEum6Zo3mg+l5SUtHq91HLQNAXLTNeh9F6aVj3X1DJr6T3ak+anpjfYVjVvYlnfJPT76G/D56ee1/fU5+iyP78vAABIbEneAeFO/zYAAACAGCn4t3TpUlu9erVt27bNBftU71yH2V26dHH1zgcPHmxjxoyx7Oxs/68iU0By2bJltmbNGheYlOC9unbtaoMGDbKRI0daz5493eORBH+vgKMuCozr+rTTTnN/p0DlqlWrbOXKlbZ9+3Z3PyUlxT2n6Rw6dKib7lD6+8WLF7u6/wsWLHCB9oBqumuawqdHjw8bNmy3xz/44AMXmA+mSde5ubl2yimnuICppkvTv3XrVvf6/v3724EHHuimrSma5+qNoMSE5l9obfngO2n6NP+icdddd9mWLVssNTXVrr32WuvVq5f/TNvR93766afdvMzKyrLzzz/fTaMCxlqX1q5dawUFBW6eaDry8/NtyJAhbuBc3Y+G1pnNmze73hpablpmWs56T80jzRst61GjRrlpiETTM3v2bJcwCJaXLpqWadOmufdauHChrVixwq2vaWlpbplPnjzZMjIy3Hvoc/Ue+vvgPXSt5aL3iGTmzJkxJSgCmk/jxo3z7+1J30frmKY3WPc1L/Q9NA/69OnjlsOAAQPcvIpE69gnn3yyx/fR9n3QQQe512hd1GfoWp+pbSAnJ8dtE1qGmvdNbb8AAABtjQQAAAAA0EqbNm2yZ5991gWsFUg8+OCDbfz48S74qVbGChYq4DhnzhwX8DzrrLOaTAIoYPjyyy+7wO8BBxzgAt8KxCtQqKSCgsUff/yxC2Qfe+yxNmHCBP8vd/faa6/ZRx995AKToYf6Cmbrb59//nkXGNbfK9ip6dZ76290e+LEiXbSSSc1BnBFQXt9T02baHoUFBYFThXcDDdlyhQ77LDD3HsG7rnnHhdcDw3uar5cddVVbh69+eabLpCq91SyQK/TfFCCIHR6REFbjUPw7rvvuu+p4OvYsWMtPT3dPR8EnpUc6N69u/tO4QmJSPZXAiAvL889pucmTZrkguxqYa7vMHfuXMvMzHTzc/r06f67NE1/p+X54Ycfutv6u9GjR7t5o3mlFu9al5RsUTD6jDPOcMmWcArqP/jggy7JEtoLQQH+008/3V555RWXGNKy1vzW8tB8O+GEE+zwww93r9U28p///MetM+Hvcc455/j3dvezn/2s8bVafxSY1/zRe4cuP62XSmTpO8ohhxzipisSbYsvvvii2x71fkcccYRLGOj9tZ4p6fLOO++4YL7mv75DpGTLunXr7KGHHnLrf+j2deSRR9qJJ57o5vt7773nlp/eR9uwEjBvvfWWmwd9+/a1Cy64wCW+AAAA2gMJAAAAACBGOoRWS+2nnnrK9QBQsO+8886zbt26+a9ooCD1jBkzXCBWFMgOAqMBBS8V4FWAXX9/9tlnu1bCkahF8RNPPOECskoCqAW1Wl1Hotc88MADLvApV1xxhWu5rGCnAs5BoDyg6Xz//ffd7UjTGUqBUiUaNB8UXFZwvakW0+H0N4sWLbJHHnnE3VYC4OSTT3bf/7jjjnOBapUYev31193zClBfeeWVLogfUJBWAVVNr55XIFmttiPRvH3hhRdc4FgJGCUJmksC7I8EgIL6WjYKwkdKdmg9U4JEtJ4pQdQUzZs33njDzRsFui+66CI3j8Jp3VRy4dVXX3Xz48wzz3TzJjRhE9Br1Spfr9Uy0ecrkD1v3jw37/U5f//7311wXPQ9/ud//sfdDqglvL6zegxIUwkATf8vfvELN/+V1DnqqKMi9t7Q61566SX3HTRNCuZfcsklrsdNKD2n5fnf//7XBeC1zWh+R1oH9PwzzzzjkkZaLyNt0wF9vtZZzQPR9qLP1vRoGw5PqKhXzv333+8SG9pfKOnV3HoIAADQVhgDAAAAAIiRWtAr+KiAoYJ+CtpGChSqpXXoYLlqrRxKgVUFgdXyX4F8BSZVlqUp/fr1cy2TFTRWy3e1uA5tVR1KgesRI0b498wFkBXcVXAyPPgvahEdUDBagdN9QUFPlWkJygxp+pVMUM8D9UgQBXPV4l2v7d279x7Tq4SKLppn+j5NBf9FwWolGJT4UHBXyYeORNOl3g5KfKj1enjwX6ZOndqYYNGyaWqZ672UOFGwXi3mFcCOFPwXrQsKsCuBoySW1sEggB9Or9Uy0zIRrdeaj6eeeqoL/kvQm0QX9bQIp79trjxPQNtUsI4cf/zxTZZuCnpGaD3V9qDkUaRW9eqB8Pjjj7seCupNogRAU4F39c5RMkvbjgL26uGgxEUkWifV8yGgVv7qDaGkRqTeFEooqASQqFyYkhIAAADtgQQAAAAAEAMFHBX8Vw1xOfTQQxuDoOEUUAwt+aMgYCgFJdWaXkFGJRAU9FQAtSkKXCrQqgC5gr0K9AbTEUlo4FylTxSwbKoEkQKtQSkflTQKeg7sK8G0KZmiz1K5lOC76zteeumlrlSKgsxB4FkUmFUPAX1/lVsKgqrNUZ17BWUV6Fayobl51t7UA0RBf5WPilRyRrTMgmUTDFobiZJNQU8BfWclAZqj+a2AuALoel/1lAjK6YTTuhdMnxIFem8lpAJKIGmZXXzxxa7VfiSREk/hlABQYkfrQKRkiCjQrkSH1gE5+uijXQIlPLCvVvpKFGl91jqk9aWlaVDCRImCIDk3f/58/5k9hb6XEg3quaOeEU0JnV8amwEAAKA9kAAAAAAAYqDSP0FLfgVEFSxsqkWxAoQKiB5zzDGuzrpacof67LPPGge8VfAwNNDdFH2mSrWIAsFBeaFIQqdLJXTCExCh9NogoKkkR1Mtn9uaAs767qE9KPQdFdjXOAWa7uB7qOW7ytsosCvqNRANBbiDVtkax0BlaPZVD4fW0PdvqqW76PsHwXcFpoPvH0rLS+uTrhU4b24g21Ba5hp3QRTEVg+DlihxoJ4qoeWn9D7qcaLEQzTrcVOUAND0K8kViaZR41hoHmg6lNRS8iHSd1WiJ1jWSqJEapkfiZJREr6+NUffWd+/qX2BhCY09D0BAADaAwkAAAAAIEoKJKrsTkBB6paCnQrsqjyJBigNbTGsQK4GYg00FfCMRGVxAgr6RhNMVOvj5noXhNP0tZfmEhOhNm7c2JgwUfC5uaB5KAWH9Vp9f30v9YZQb4COQIF9la6JdtloHYyUvNCAuCotI3rPSAMzNyV0ffr0009bDHhrPW6qtNDe0nLR+wclokJp4F314FDPGQXalThRmaCmaNvQeAui92uqR0E4rStKGonmazBuQXM0zeHjDzSnIyWgAABAfCMBAAAAAERJgXYNrhsIDZzGSq2TVXYlEEvwMPS1CnA2Vbs9VFOlfzqC5mr4h1LwPzSgG7SKj4ZeH7QSV/314H32NwX+QxNDraVSSkFSQ98zluUduj4puB66Xkai5EukevttQT0IVEooUgJDrfFVOkfB8yCx1lyiI7TMTizbl4R+v2jK9bTVcgQAAGhrJAAAAACAKKk1cGiN9FhaWYdTwDZUNOVaAuGBb5VF6cyibZmtkkdB3XcFXJsrtxIu9PUKckdT1qUzCV2f9D2j7VEgoeuT5m9L4z/ovWNJvsRCPWrUuyB0+tVrQ6Wu1GNGtxVo18DbzZX0UZIgdKDdWKc39PWat7TYBwAAnRUJAAAAACBKCgK2VSBQ9cXbSlu+1/4QbbA6tCzR3i6H9ixx1B7aah2Idh2PJfmyNzQtGnfjzTffdPfV++DYY491A/qGUkInNHGh5Rv6PWJdX0K/X7TzBAAAoCMiAQAAAABESXXBQ1vqqyZ5a4XXr4+lRXr4a6Othd9eVF7no48+ci3225JahwfJAgW8Ywni6/VBEFctyEMHsI0HoeuAvmcsCYHQ9Unr994M4tvWFNR//fXXXfktBeU1QO/BBx/sP7vLkiVL7IknnvDv7VkGKeg5Eq3QeaLyUbH0qAAAAOhIOIoBAAAAotStW7fdBicNL+MTC9W9Dy0zEgxuG42CggL/VkNL5WgH0W0vCp7Onj3blUxqS3l5eY111vXesQR1lawJguIqMRNt2aHOQgNSB0FqzReVOYpW6Pqk+bKvBviNlRJJzz//fON21rdvXzv66KMj1tpXoiC0PJeEbhcauyPaVvx6Xeg86WjbFwAAQCxIAAAAAABRUrB98uTJ/j2zjRs3Rt0LoLKy0mbNmuVaMosCrePGjXO3JZZkQmjNfyUSevXq5d9rH+1V/iVcv379XBJG1Po/dEDm5ijwrwCx/kbTrmB5R2rl3ha6d+/uAuSiQHgsvS9C16dhw4btluTaX5REeu2111z5H9GgvGeccUbEwYf1fQsLC/eYbvUWCHrsaIDkaLdVvVfQA0A9RSZMmOBuAwAAdEYkAAAAAIAYHHjgga4luqiF8pw5c9ztlqxcudLVMQ8Nnh9++OGNgWglE4LkQHMU7FS5E1FwUy2i27s8iT43+B6RWlUHJWjaeqBYlbkJLf+yePFi/1bzFPzV/BWVcVLiJd5KACn4PXbsWLdstI4ooRRNGSCtw8uWLXO31bL+yCOP3G8JnoDWn08//bRx29I2ouC/kl2R6DuoB02QHAqo5X7wN0rARZtkmz9/vn+rIYmQn5/v3wMAAOh8SAAAAAAAMVDg+Mwzz3SBZPnwww9dC+rmyouoNfbHH39sY8aMafw76dOnj02dOtUFbdVCXYHH5ura6zMU/N++fbsL+qs3wtChQ/1n99TcNO0NtcIOyrBoWhSADaWAu0Qq1RJJLNOp+aVAt77/vHnzbN26dc3+vZ5bvny5rV+/3s3nKVOm2PDhw/1n44fmh5Ij6t2g77xo0aIWy0opQfDuu++65af1+rTTTrMePXr4z7a9aJfzhg0b7J133nGt8LXMlChTz4Sm6PVK8ISPhZGTk+P+VskRrZNaX8LX1XBq/a/Eg5Ig6nEyffr0JhMisay3AAAA+wsJAAAAACBGCrIed9xxrmWyaq2/+OKLu5VRCaVa9RrEVMHMI444wn+0gYKbhx56qB100EGu1fb7779vCxYsaDIJoED2W2+95VozqxW7Wms3FWRXcDe0jrkCm821CFd5lNAeCM3VTO/fv78rOSMKvCp5EdDffPLJJy65EZrsCKXPCi3HEkv5IwVjFagePXq0u/3MM8+43hWR5plq4SuY+/LLL7sAt+a1ArpNCR1XQPNK82xf0LoQjI+gz9Ht5oLJCl4HSZXg9ZFo0Fslp0aMGOGWyQsvvGBr166N+N76nipJpcGatQ5NmzbNxo8f7z+7J31mEDzX34Yu82hoGpQsCigppnU+nOb5c88911jCSMmeIEkWTuvrZ5995r6npinSYNhaT7Stat4sXLjQJTya6mmj7UXrSlFRkSurddJJJzU7wHZoCSp9l+bGXdD6Gfr9W9oeAQAA2kqSdyBGswUAAAAgRgrerV692gUrFcxToFAty9XCXCWCFLBVa/2gNfE555zjWhRHak2sgLBa/6vmuQKJKl2i1v0qX6KW3Uou6H0U6NbnHnXUUa61d6QAu1o5r1q1yrZs2eL+LgiyKgA+aNAg13pfAeIg2PvKK6+4wKUC+aEtxtV6WokOBU4VHA7KHgU0Lf/5z3/c+6v2/KmnnupKsCiorGnQ91Wr7dDv29Rn6e+UMNBn6qLv11LvASUQ1PtCLcU1H9S7QrXae/fu7eaRegbMnTvXzQuVIjrxxBNt4sSJe5T+0emQSjMpoK1EhC5BMkHTonmmFuRKHOh+awXJCC0T9UZQ8DgIAGsea5lrHdI06raC1DNnznSB8DVr1rjp07Rqfir5otdoehQcD6+Lr2C9At3qdRI6b1TKRuuaPl/LSS3nNZ+VUBk1atQe80bzWO+jZaZEQhD01zqpngKa13p/9ULR++vxcPoMfZamSe8RJDIU0FciSYF2rcta1zXfH3744cbSTvquSo5p/gQ0DzTf9H5ajzRtQWLi8ssvd+t2OL2v1oeXXnrJzX/NB22neq2mX9uvtlWtL3o/JR1OOOEEN1/Dt1cF8d977z33+XrPIJmg7651WBetz1pf9JgSekrcaX3XZwcJJs1rbV+aj5p/KjUEAACwL5AAAAAAAPZCMLivWiIrGKiAuA6xFeBUDwG11FcAPZpBZxWIVNBWAVAFahXo1HspgK2AoQKFhx12mAtgRkokyBtvvOHKv2iQ4fBW05o2ve8BBxzgpknuu+8+F0BVIDg0gKvPVbBSFwXzFawNp2C5gvoKbgaBTQWljznmmIgDpzb1WaIgraZNwfYLLrggqvklSnSo54SC5HpvzTPNG313BXfVAlxB8vD68AF97kMPPeQC7Zqu0HkWzAPNt89//vN7VR5H0/bqq6+6oHGk76/P0bSoV4eSMwpEP/nkk2790utDl7emS/NK64SC9wo6R6KAu1r46zP1/sG80fqkeaN1U/MmNMAeSgH/xx57zP1d+DSIHtf30vsoaRO+vokC6/re+nt9buh7BOujgu1KQOi7PvXUU1EP7hxOy6i5AbH1/tpO1UNFyQ3NE81LLQvNSyW5tH0pkRfpu4iSJ08//bT7PuEJk2AdViLnoosuct9XCRQlxCJtj6Hzr7meKQAAAHuDBAAAAADQBhT4U+kQtQxWIFAB1p49e7rrWClQqfcKyuToPdQaualAbSgd3ocHasOFviaa1zdHQVxNq4LFCnA2V/on1mmLlv5GyRdNh1qY6++ViNA8U+C1JS195t7Oo0Cs3z+a6ZKWXqP1SPNG65WC3cG8URC7JbFOc7hY/163tf20RlNB+3AKvGt+KOkTJDfUq0JJopamVVr6TuHfJ5bvDwAA0NZIAAAAAAAAAAAAEIcYBBgAAAAAAAAAgDhEAgAAAAAAAAAAgDhEAgAAAAAAAAAAgDhEAgAAAAAAAAAAgDhEAgAAAAAAAAAAgDhEAgAAAAAAAAAAgDhEAgAAAAAAAAAAgDhEAgAAAAAAAAAAgDhEAgAAAAAAAAAAgDhEAgAAAAAAAAAAgDhEAgAAAAAAAAAAgDhEAgAAAAAAAAAAgDhEAgAAAAAAAAAAgDhEAgAAAAAAAAAAgDhEAgAAELeqq6v9WwAAAACARMM5IUACAAAQZ3bu3GllZWX2ySef2D//+U//UQAAAABAonnhhRfsrbfesqKiIquvr/cfBRJL0k5FSgAA6OT0c7Z9+3ZbsmSJu6xbt84yMjLshhtu8F8BAAAAAEgkjzzyiC1cuNB69+5to0ePtjFjxli/fv0sOZk20UgcJAAAAJ1ecXGxzZw50xYvXmw7duywuro693h2djYJAAAAAABIUEoALFiwwN1OSkqyLl262JAhQ2zatGnWv39/9zgQ70gAAAA6HQX4KyoqrLCw0ObMmWPz5s2zmpoa/9ldSAAAAAAAQOIKTQCESklJsREjRtghhxxiffr0ceeOqamp/rNAfCEBAADoNCorK11pn9WrV7vLhg0bGlv7R0ICAAAAAAASV1MJgFAqD6ReAboMHjzYcnJyXG8BIF6QAAAAdGgK8K9cudLVbVy7dq2Vlpa6REA0P18kAAAAAAAgcUWTABAF/NPT012JoL59+9q4ceNs5MiRlpmZ6b8C6LxIAAAAOpyqqirXwl9B/0WLFrmAPwAAAAAA7SUoEzRhwgQbPny4Sw7QMwCdEUNeAwA6HAX8dbClrphjxoxx19RjBAAAAADsawry9+jRw52LDhw40PUMiLYXOtAR0QMAANBh6SdKg/vqYKu4uNiWLVvmBvzV4L/RUHfNa665xr8HAAAAAEgkM2bMsOXLl/v3mqfzx4kTJ9rYsWMtLy/PsrKyXPCfVv/o7EgAAAA6FY0JoAO4WbNm2aZNm6y8vNxqa2v9Z3fHGAAAAAAAkLiaGwNAvc4V5Fdr/8mTJ7vgvwL+QLwhAQAA6LS2bt1qq1atcgmBFStWuN4CoUgAAAAAAEDiipQASE5OdqV9Ro0aZUOHDrV+/fq5ZAAQr0gAAAA6Nf2MadDgbdu22cyZM23x4sWul4CQAAAAAACAxBWaAFApn0GDBtlRRx1l/fv3d63/lQwA4h0JAABAXNm4caO9++67tnLlSneA973vfc9/BgAAAACQSJQAUI9xtfKfNm2ajRgxgqA/Eg4JAABA3FEPgDVr1rjeAKeeeqr/KAAAAAAgkXzwwQeWk5Njo0ePtrS0NP9RILGQAAAAxC2NCcBBHgAAAAAkJp0Tpqamut7hQKIiAQAAAAAAAAAAQByi6BUAAAAAAAAAAHGIBAAAAAAAAAAAAHGIBAAAAAAAAAAAAHGIBAAAAAAAAAAAAHGIBAAAAAAAAAAAAHEoaafHvw0AAAAAbaa+vn6PS11dnWVlZVlqaqr/KsQ7nXJquYevCykpKW5dAAAAwL5DAgAAAADAPjFnzhxbt26dVVdXN16qqqrs1FNPtUGDBvmviqykpMRdevbsadnZ2f6jnUNlZaVt27bNcnJyLDc31380cW3ZssU+/vjjxuUfrAuDBw+2k046yX9V/FLyQ+uDTr179epF8gsAALQrEgAAAAAA9onXX3/dVqxYYdu3b7eKigr/UbPLL7/cRowY4d/b06pVq2zGjBlWWlpq+fn5du6551q3bt38Zzu2srIye/bZZ13iQ63bTzjhBBszZoz/bGJau3atvfzyy1ZUVGQ7duzwHzUbP368XXTRRf69+KTg/8yZM10CRKfeBx54oB1zzDEkAQAAQLthDAAAAAAA+8Rxxx1nX/ziF+2rX/2q5eXl+Y82r6amxubOnWubNm1yCYCVK1e6++1NgdvQpEW0NL2LFi1y075161bXC0I9AhKZentcc8019u1vf9sOPvhg/9HEoITH7Nmzrbi42PVoUSJAtwEAANoLCQAAAAAA+1TXrl1dS/5oqJW0gu+hlBRob2q1/vTTT7vpiUX4tNbW1sb8HvEqKSkp4XpDhK/Pus36AAAA2hMJAAAAAAD7XFpamn+reXrduHHjLDMz093v0aOHTZgwwd1uT4WFhbZ8+fKYg7XDhg2zfv36udvp6ek2duzYxu+C6NeDeKFxILQ+JycnNyZAlBADAABoL4wBAAAAAGCfe/zxx23evHnudktjAIgC8CoDNHDgwHYPmNbX19trr71m7777rt10000ueBuL8vJyW7NmjUte9OnTx38UovEd7rvvPnc7EcYAEK1PWh/UG2To0KHU/wcAAO2KHgAAAAAAOhwFz9Vyen+0lq6urrZt27b592KXnZ3tWv4T/IcogaTA/8iRIwn+AwCAdkcCAAAAAABCqPeBWmwDAAAAnR0JAAAAAADwaRDfl19+2SoqKvxHAAAAgM6LBAAAAADQxlTrW4HkUBp6q6qqygWW9XxrqZ64StSE0nvrMb1/LDQtmzdvtvXr19uWLVv2eN9YadoqKyvdRbfbguZVa+aX6vAH301jCZSWlrY4oK9a/r/66qu2cuVK/5G9o3mg9SDWYde0HLU8NO36DpqfrVVXV7fHuiihy0qv6Si0rLVearr2drg6/b2W+8aNG9283L59e6u/q+ZXpO1L8zba5RNsp3v7vfaGvn9BQYFt2LDBzZdotoumaJ5E2mcE82pv93UAAKBtMAgwAAAAsBfWrVtnn332mQs4l5WVuaCXgoIHHXSQHXHEEe72okWLbMGCBa6uvIJjqgOen59vEydOtFGjRllKSor/bnt6//33bevWre69dVFgLS8vzz7/+c+75xUg1ms0HTq0HzJkiE2fPt26devmno9EfzNz5kz3N5o+TZPqlGdkZNjw4cPtyCOPjKn2voKJn376qQuy6vuL6uBroN9DDjnEcnJyohoEWIH6uXPnNn5XzVNN31FHHWUHHnig/6qm6XtokNkPPvjAzWsFH/VYUlKSm+eaDs3zKVOmWFpamv9XZmvXrrWlS5fa4sWLG5dRQPNCfx9K8+q4447z7zUoLi5286CoqKhx2rWsND+PP/54S09P91/ZNAX9tSw1PQqsBstFf9u/f3+3PvXt29d/9Z4U2NX807QE81DvM2HCBDv66KPdeqbHtBz0uiB4q/fXgLyax/t6zIWmBgFWcP6TTz6xZcuWuWWuea7ldcABB7jxFLQ+RUtBbi3Pjz76yCV1tB5o29D31zo+evRot152797d/4s9aZtevXr1btu1lsf111/vntc81nq2fPly93ka70HbXe/evd3zos8P3Xb1Hvr8Cy64IOJna5pbU3oqKyvL7W8yMzP9R/ZUUlJiH3/8sVvHtV5qmoPtIjc316ZOnermS3P7Ig2KrXUsmCdKfOizr776ave85o/2dVqOmu+a53p/jX+gdatfv357bEsAAGDfS7nV498GAAAAECMFAGfPnu0CXgr27dixwwXIFBBUAOzRRx91r1FAXgE2BcH0vAJ9ChirtbmSAQp2RgqOvfbaay7ArsC0PkN/q+C1gtgLFy60p59+2gVw9b4KHCuor1a9CrCHDziqv33zzTftiSeecAE8BVZPOOEEFxxWkE6PKfCpQKGmSQPxKgAdib6bvu/zzz9vr7zyivveClIrEDlmzBgXsFUwVwFtBQk1/Xq9KKjbs2dPdzuUAq4KmioYrGB4MC81bQMHDvRftSdNiwLvzz77rJtfCnBqfihxoMCmkiwKzCoAq6Ct5tOwYcNcMFY0TxR8VQBTQdQgiSGaJ5ru0IumT+8bSstG31VJDE27pkfTrkCv5kf4sgho2rW8Xn/9dbcsFZjVslUwWdOvZaTpXLFihb399tsukKvvpmUevr4osfPhhx+6z9d0KkitadCyVCJC64aWvZ7TMlBiQMtB80MJKq2Pmi9NrYttQfNFnyOaLi2bWbNmuWUnWn+C76xkgZIVSiwpsaX1qDmal/ruTz31lFvOXbp0cUkTJWsOO+ww9x5KBmgd1zar99P3j7RstB5q/dV6q0sQ8D7mmGPctvvII4+49UzzS/NP26g+W9t4kOzReqXngnVG76HlO3ny5IjfRQF2LT/9jd5L65T+RstQ11pPdNFy1bRpv6Jp0fQpsRXpPZXk0fd97LHH3Lqp+a11SxdNh4L/mnYtA81v7bc03yItf5XG0nvo84JEgL6P5rHuP/zww266tL1qHR4wYIB7XPspLUctUyWwmtqnAACAfYMeAAAAAMBeUGtlBcIUNFbwWYFkUcBZgS4FM9X6VYHgIKimIKSCdwoQqgyHguUKyCn4GR6MVOBPgUa9Tq3oFaRWAPiMM85wgXe9t4K5ChwqQKfnFdS76qqr3HVAwfQXX3zRtdDV46eccoqNHDlyt2CcpkuBzzfeeMNNx1lnneWC1+HBQAX9FFTU6/S+kyZNssMPP9x959DXat7Mnz/fTZtep+ClNNUDQK/XfFSQW9OqwK+ceuqpLoAbiU5nFLh84YUXXKBViYKTTjrJBg0atNu06HXvvfeevfXWWy4oqqDlySef7J7TfX0n0TT8/ve/d7flhhtuiBgMDQ+26u8VINby0jxUK2g9plbuZ599dmOyIZwCw5p2JYIUNFXQP3S5BRT01fQrOTN48GA77bTTdmttLlp+mgatjwro6qJp0HqlYKymSYkLTVPoeqaAroK3mn8KAKtVvnqZ7AuhPQAUjFbSSIkfrf9aZqEt0LUtPfTQQ+47aDsKer1EouWrQLO2Ab1e8zHS9iTalvQ6Bc+1/ShBoKRHKM1HrYsKYD/55JNu3dW28rWvfc0lK5RQOfTQQ23JkiX2zDPPuG1U0/6Vr3zFevXq5d5Dy0GP6zsH40oouH7NNddETIA9+OCDroW+1uFp06a5ZaYeGeHrn4LsShZpm1IyUPNO2194631Ns/YxWu5aZ7RdaN8RTuv8nDlzXIJJ31GvGzdu3B6Beq3bmi/aLjVPNM813y677DKXwNJ0H3zwwbv11tDfKAmqeaDXXnzxxe57AQCA9kPqHQAAANgLCsApuK+WrQpoBhSwVYAwCOiGBvEUlFRgXUF8BfgUKFQATcHy8PY5ChgqWBi01g7o9Wppq+C/AnVqrR+0PA69HVCyQMF/JQhUkkbTGh7g03SpNIoCdJqmd955pzFoH0qtxV966SXXmlvBZAUMFTgOD1Rq3mj6VEZHQdmW6PXqKaFAogKs0VCyYMaMGS6IrQBjpOC/KHCpIGdQ9kZB1IDmlQL6wSWUegSEPhfpNaLgq5aVgvJKrOi7tEQBe7XIV+t+JUSUkIgU/BetYyeeeKJrYa6AuVp0K7gcSstP80DTENoSXS28FdxV0kctxcOD4vpMtY4XBbzVAr09qDW5Puv0009363J4AFvzMUhyKNCuaWuK5qHWAwXFtQ4rEB0p+C8Kgms9UaBa64Ra3isIHkrLXduRlouC5wH18tB2qG1by1i3Q7e70OWu99djCqaHBsWbom0uWIeV8NC2EL4eq1eAEg76nqLlrKRO+LzTuqUyX+rpoM/WuhMp+C+aZiVLNN+0vWs+KkEZTuu3EkNK+IWWilJyQ/NISbXw76m/0b5L9N7aBwEAgPZFAgAAAABoI6FBOAWxVWIjPDAXSgE5tWzXaxSgVnBRAe2mBAHNoASHAnFBEF8JhQsvvNAFkc8888zdAnFKLKjmu4L/Cu4rIBceWAwoGKjgqailr1qFh1IAUgFTBSsV3FPQsLngpqZPSQIFQmPRVPA2lJIlauGs0je6re+lQGSk76YW+JoGTY/mt5IE+4rev6n5G9Cy0IDDmseaJiVJwpM24bRsglr+KhGjQG1TiRW9ZzANCrQrCK11MlhfQmleBz1UFAjXe2v69jWtQwpgBy3mw2l6gqC1pidSUFrUsj7YdhRA13dtbrsTva8+W++rILnKIzUlCOprHVMLfW13wWN6n0suucQF7Zuq7R/N+qD31j5Af6/lFOn1CqArYRTsI9R7Qr1LIq03Wq/UA0TfT0kMvbY5mkZtp5p/Si6ohJKWTySatmD71DTp9epJ0dQ2G/rZSuQAAID2RQIAAAAA2AfUSryloJ+CsWqJr0C6KFCrMiYtUZBWge7wMiIK9KkVbujjQWIhoDIzLdE0BQFUtfYPpUSCAu6i1sDRlPPQfGgpINsaml9BPXl9hpIRTdG8VktzjXmg1tDhg/i2N81DJWZE8zHaBIlaXqt2viiYGpRJao6SH+qJ0RwFb4PkgNav9kgAaL1XT4/mtpPQ4LYC/ZGolI9KKIl6M0RbvkgBb1GvEJWzauk7K0iv+R++zisJoJI9zQ3Q3BJNgz5fYwpEStLoefXIUW8O0TqgEl2Rgv+aTn2foIdI8D1bov1GsO/Q/FTZnmiot4ISB02JZhkCAIB9hwQAAAAAsB+p9XNowF718qMRWpakOQqSB6VTFFiMJmCvgF3Qkjm01bVam6tlcEDTsC8C+9EKWjiLAugtBX4VHFagVvXSmwtY/v/27uVHiqoNwHhJMK5YsCCKgTCAQYMSNIAg9wgRyES5/YmGvcAMwXBZgEAChDsIgpJwUTdjFFjB5vueQ794plLVXT3dM+00zy/pTPdMdfWpU6c68L6n3jMTKFlDfXRQ6iVmlHfCdnFumKFNoJaAbzscd5MSNKHT/vqFcVZOYpXlyYG6AD3rIsSdEFxPVQH0KpStCpQiapJM4fqZjjEfCYC6MUwijjsVOE7KE7EYcd7+HGsckBQJdduV0W9Rcom20K9NdPouys/hTI0tSZL0LxMAkiRJ0gARdMvXDqDETrsyQKFJIB8E/6PuPbO8KXVCHe5OjyjnwR0EgcBiPoO3aRJiOhAIzcu2EPhtN5P8v4QZ9pRxioA2d4s0DSqzXQTzCaZSoinObx2SBk2D4jOJdvUaTGccsCZC6KbUFHcgxOx0+rLJjPem1123GAOUEKIsUY52EcwfHx9P44bzSImudmW8SArF2GL7vF5/J/kaFHwuawl00k1ySZIkzTwTAJIkSdKAlQN05br7VZgF3ASzzGN2dAQ579+/3/FBHXIWBmWNgkBt+NwgA3/Mfs8D390EOQeNQG4s4gqC4E2TF2yXB/PZT5Mg7bAiYUZ/hro69HXy7aO0VTuUU5oOtIPkQvmaok1jY2PpHHPuKeW0bdu2tuMlv07Zb9OxhfxOFL43JiYmWq8kSdJsZQJAkiRJGrBygK6u1Emum6BeIGlA8HD37t2NH5QaCZFICFNpQ7/QR7O1nAjtLvflVLGf2doP/VBOfnTbF/n2TRIpMznmuduGRa65WwQjIyNp7YpO5aLy4+h1bLzNySVJkoaFCQBJkiRpwMoLY0aN935gRnGUWWFRUGaPE0Bs+shnm5fbNcjgIMmMfPZ21NOfCdxFQZmkqeJ85Hdw0I9NA7VslycP2E+vZXRmM9ZyyIPy+d0AnZT78r90FwntYr0Nxhnt5Nojecd6ETnG/ffffz+pDFJ+HOynSUIx5HfV0K+DXitDkiT1zgSAJEmSNEAE9/LgHQE36tn3C/uKsiUE9yidM1XlBVBjZvIgcEyxYCmalG/pl5s3bxbnzp1rvepeLH4bgWvK+DQNXJMsyJMd7IdEzduK6yVfOLdcpqod+j0PeC9ZsqT1bLD4Trh69Wrx008/pdec36+//rpyzQ3GA8fBGgIhPw6C/92U8cm3ZT2AfiYjJUnSYJgAkCRJkgbon3/+KX7//ffWq6L4/PPPJ82679XChQsnLezZZKHTQDA1gpBg0dR8weK83YNAX4W///67cUKCoOi1a9dS/fiypiVeeikFw/klmBuJGRZ97iYBEItEk0hYvHhx13Xvh00+DvLFlTvJkwXcKZOP7UH67bffijNnzqTZ+4wzyv589tlnlWOORbq5gyhPzH300UeTZu43TY6ReMjXH1m9enXrmSRJms1MAEiSJEnTgJnFnQKRMfs/ZnRT3uOLL75Iz/uFIPFXX331JkDI7PUmwWbazrZ37txp/ea1DRs2pH3i4cOHxYsXL9Lzdvg8yg/1G4FOAuCgLy9fvtwo+EsS5NSpU5V3Q9BPeQImLxETOJbog6launRp8f7776fnJIH++uuv9LwTkhYRuObujuXLl6fnbzOC49wJAc5pk0QQ4+XWrVvpOeeba2S6FvjtBoks6v4zq5+A/6pVq9Ji3HVJQb4/SADlCQDuGNi0adOb3/3666+NrguC/3w+SBqy4LAkSZr9TABIkiRJ04DZ8Y8fP269qkbQ9+LFiylZQEB548aNjUtuEMBsauXKlcW6detSEJEg3/nz5ysD2zna/ssvv6RAYu7DDz9MSQqCiwQpb9++3Ta4yN/YhiB3aBKMbIIA6a5du4r58+en1wR0Ce636xsCxCQKKGfEsZSxzw8++KD1qigePXrUevYawX8CzLy/F5xvFlkm0Ep/EPRlNnc7jJOzZ8+m7ZnhzbEzc3026Wbcosn21Lzn2qFPSabduHGj4/oUT548STPtOd/Lli1rm3jrts1Txfk9efLkm+8NxuHmzZtrExMk3ygVVLUOBLP3SZBxfPfv3+/4XUR/keyj/+hHEn3l9Qb6Yab6UpIk/csEgCRJkjQNCDSfOHGisswMCPaNj48Xf/zxR3pNoJ2ZvuVAXiBwFqVfEDN1myAIuHXr1jSjl+cXLlwoLl26VJsE+PPPP4sffvghlakpl0VhdvGWLVtS0JSZ/dTCb1dWiNnHlDPJA7Lsv5M8YdDuLgNKHO3YsSPVQKfPjx8/3rYOPAF06pxTU52+qMJ5CCQvciQEOA8kVerQjuhbEgZ1CQ8CvPv3708JDAK0R44cSe+tQpmXsbGx1J8EvPft21dZEz6wfbQhf16FscU20c5O2/ciP69N7gzJt8+f50hsMbYZ47SbBA8lnupwTXJtMq5YR4JECuWt6uSf2811F/L+rLsziN9xV0rccUPQ/7vvvisWLFiQXpfRpqNHj6ZriQRA+Q4BrodvvvkmXR+dvotA0oRFh2lnp+8itsnXoag7LyH/O0ku+kCSJM2cd/7/jz1T8JIkSVIfXLlyJQXlQGkWZmk/ffq0WL9+fXpNqQ6CZ8w+Pn36dAokMwOcgHpdvW0C9QQqHzx4MKnmPjO/P/nkkxQM5jl10DuVpSHYSjD++vXrKRBHcJ+2cdcBwXBm9HMMfBaldb799ttJi4vmCOgTVGTWPQE9goaUYiFwyX8xCDoyO/nevXvFl19+mQLp0X4+iwA6ZVsI3Maix5QUIsBOgP7u3btvShUR3KQUCn3FnQxVwVpmc//444/prgoCl8zopj30De2hDjp3PhCMJTDKsdclAGg7wXhmTtOnJBg4f/QPM7QJvO/cubO19Wu0mWNlG4K4kazhM3gvdwyMjIykRxljhLbTRpIBzGaPBZcZL/yeRAt3HrDgLe1noddy+wnw/vzzzyk4W77rgmTDxx9/nGZ10y8cF0kHkjf0Gf0ddyDwuSR4Fi1alMoUMZO8LhjcBH0T7eFnBP05rxwH/cm1smbNmnRM9DtjhQfP47+sJJ8Y8/QB45M2llG2irspCNTT74w9+pTP4nMZ2yTACLjz/j179lSOJ84hd8vQRyRdAv1GPzJ2Cbx/+umn6Ros4/pg/HPtMq45xxH453pjPHMcvJ/jov8PHz785hxwfZSPj/dzrcV5i36kT/bu3ZvaU8Z4JykW/cgdBfQL27I/+omECWOX64u/190NQYKAsUUfRuIS9B/t5RxyPbMfjpvvErZnTHJdBJIuK1asSG0o32EkSZL6zwSAJEmS1Cd5AoAg6+joaAp+EZwmIMY/vQngEdQlKEngk0AYgcC6YPSxY8dSEI/kQXkb9se+CKSxUGhdsL6MIDsBQYKSBADZL0FIgqQE4wlwEiDvlFDgs6lBTqkggrUEJEkAECxmnwSdCXAyC/nQoUNpZj6fw3558Hz79u1v6vgzC5l9cazlGc18FkFVgt91ZZIIMhJIJeBKsJz28Dm0hyAlQXXaE7X326FfmEXOvnge7aVfKI9S7mv6MtYgKAfL+R1tJ1DLuKjCOSYIS2CXfqLt7If30afMBCd5wLmpm61OUJaSUlVtAPsiWE2Ql/bTVwTk2bbc34wttufcMBu8l4WG6RuSL+Va9YgxTKKGmfiMG/qRcVXVruhLzkNV0oz9kXBgfLMPkhu8h/3yk75jPBIEJ8Bed1y0l/6suu5AGxgPBLBj/YEc1znJIgL6HEe+j+hb3keyh/PLuGe80cZuMS7Wrl1beyx8FuMqkogkuOhXPouf+XcR13/V8YLvNpJyVZ8T1yd3YXB9kYzi+KvOOdgWBw4cSD8lSdL0MQEgSZIk9Uk5AXDw4MH0nGBuXgaEoBhBPx51wbYQ5TLqtot/zhOM7LSvHG2hXZGQAPsgmdAp8F9GMI9AJ8HBCLayD4LMEfxj9nf8jaBjPCJhAPZDW9imfCwcJw/22+442SaOi/3xms+J9vC8KdrCcbEv2s55Y5ZzVUCTv3P87drO++qCtIHPov3si/ewL84L/dTpvLRrA9gfYqy062+wP/qL7XvRtF1xfDGOqs5V075kG/qRRwSb41gY453OQ7s2INrB/urayT7Q7pjjXPBZca13i75oco7K4xn0A/1On1S1M0dftjuHeX80Oec8GNeSJGl6mQCQJEmS+qQuASBJkiRJg9B8+oskSZIkSZIkSZo1TABIkiRJkiRJkjSETABIkiRJfRJ1tZE/lyRJkqRBMAEgSZIk9YAltQj2P3v2rHj06FHrt0UxMTGRHiy86bJbkiRJkgbBRYAlSZKkHly/fr04d+5c8erVq+L58+cp4I85c+YU8+bNK959991iZGSkGB0dTb+XJEmSpJliAkCSJEnqwcOHD4t79+4V7733XjF37tzWb18jGfDy5cti/vz5xbp161q/lSRJkqSZYQJAkiRJkiRJkqQh5BoAkiRJkiRJkiQNIRMAkiRJkiRJkiQNIRMAkiRJkiRJkiQNIRMAkiRJkiRJkiQNIRMAkiRJkiRJkiQNIRMAkiRJkiRJkiQNIRMAkiRJkiRJkiQNnaL4Hyj2JmKz+RadAAAAAElFTkSuQmCC;" vertex="1" parent="1">
          <mxGeometry x="60" y="100" width="1536" height="600" as="geometry" />
        </mxCell>
        <mxCell id="RC3qw60LJG133xvtzrwB-8" value="&lt;font color=&quot;#808080&quot; data-font-src=&quot;https://fonts.googleapis.com/css?family=Computer+Modern&quot; face=&quot;Computer Modern&quot; style=&quot;font-size: 40px;&quot;&gt;future&amp;nbsp; &amp;nbsp;&lt;/font&gt;" style="text;html=1;align=center;verticalAlign=middle;resizable=0;points=[];autosize=1;strokeColor=none;fillColor=none;labelBackgroundColor=default;" vertex="1" parent="1">
          <mxGeometry x="520" y="99" width="150" height="60" as="geometry" />
        </mxCell>
        <mxCell id="RC3qw60LJG133xvtzrwB-10" value="&lt;font color=&quot;#808080&quot; data-font-src=&quot;https://fonts.googleapis.com/css?family=Computer+Modern&quot; face=&quot;Computer Modern&quot; style=&quot;font-size: 40px;&quot;&gt;past&amp;nbsp; &amp;nbsp;&lt;/font&gt;" style="text;html=1;align=center;verticalAlign=middle;resizable=0;points=[];autosize=1;strokeColor=none;fillColor=none;labelBackgroundColor=default;" vertex="1" parent="1">
          <mxGeometry x="317" y="93" width="120" height="60" as="geometry" />
        </mxCell>
        <mxCell id="RC3qw60LJG133xvtzrwB-11" value="&lt;font color=&quot;#808080&quot; data-font-src=&quot;https://fonts.googleapis.com/css?family=Computer+Modern&quot; face=&quot;Computer Modern&quot; style=&quot;font-size: 40px;&quot;&gt;&amp;nbsp; control horizon&amp;nbsp; &amp;nbsp;&lt;/font&gt;" style="text;html=1;align=center;verticalAlign=middle;resizable=0;points=[];autosize=1;strokeColor=none;fillColor=none;labelBackgroundColor=default;" vertex="1" parent="1">
          <mxGeometry x="767" y="573" width="320" height="60" as="geometry" />
        </mxCell>
        <mxCell id="RC3qw60LJG133xvtzrwB-12" value="&lt;font color=&quot;#808080&quot; data-font-src=&quot;https://fonts.googleapis.com/css?family=Computer+Modern&quot; face=&quot;Computer Modern&quot; style=&quot;font-size: 40px;&quot;&gt;&amp;nbsp; &amp;nbsp; &amp;nbsp;prediction horizon&amp;nbsp; &amp;nbsp; &amp;nbsp;&amp;nbsp;&lt;/font&gt;" style="text;html=1;align=center;verticalAlign=middle;resizable=0;points=[];autosize=1;strokeColor=none;fillColor=none;labelBackgroundColor=default;" vertex="1" parent="1">
          <mxGeometry x="726" y="647" width="430" height="60" as="geometry" />
        </mxCell>
        <mxCell id="RC3qw60LJG133xvtzrwB-13" value="&lt;font data-font-src=&quot;https://fonts.googleapis.com/css?family=Computer+Modern&quot; style=&quot;font-size: 40px;&quot;&gt;&lt;font face=&quot;Computer Modern&quot;&gt;&amp;nbsp; reference &lt;/font&gt;&lt;i style=&quot;&quot;&gt;&lt;b style=&quot;&quot;&gt;&lt;font face=&quot;Computer Modern Roman&quot; data-font-src=&quot;https://fonts.googleapis.com/css?family=Computer+Modern+Roman&quot;&gt;r&amp;nbsp;&amp;nbsp;&lt;/font&gt;&lt;/b&gt;&lt;/i&gt;&lt;/font&gt;" style="text;html=1;align=center;verticalAlign=middle;resizable=0;points=[];autosize=1;strokeColor=none;fillColor=none;labelBackgroundColor=default;fontColor=#000000;" vertex="1" parent="1">
          <mxGeometry x="1090" y="118" width="240" height="60" as="geometry" />
        </mxCell>
        <mxCell id="RC3qw60LJG133xvtzrwB-14" value="&lt;font face=&quot;Computer Modern&quot;&gt;&lt;span style=&quot;font-size: 40px;&quot;&gt;&lt;i style=&quot;&quot;&gt;&amp;nbsp; e&lt;sub style=&quot;&quot;&gt;k+N&amp;nbsp; &amp;nbsp;&lt;/sub&gt;&lt;/i&gt;&lt;/span&gt;&lt;/font&gt;" style="text;html=1;align=center;verticalAlign=middle;resizable=0;points=[];autosize=1;strokeColor=none;fillColor=none;labelBackgroundColor=default;fontColor=#000000;" vertex="1" parent="1">
          <mxGeometry x="677" y="220" width="150" height="70" as="geometry" />
        </mxCell>
        <mxCell id="RC3qw60LJG133xvtzrwB-17" value="&lt;font size=&quot;1&quot; face=&quot;Computer Modern&quot;&gt;&lt;sub style=&quot;font-size: 20px;&quot;&gt;1&lt;/sub&gt;&lt;/font&gt;" style="text;html=1;align=center;verticalAlign=middle;resizable=0;points=[];autosize=1;strokeColor=none;fillColor=none;labelBackgroundColor=default;fontColor=#000000;" vertex="1" parent="1">
          <mxGeometry x="776" y="250" width="30" height="40" as="geometry" />
        </mxCell>
        <mxCell id="RC3qw60LJG133xvtzrwB-18" value="&lt;font color=&quot;#cc071e&quot; data-font-src=&quot;https://fonts.googleapis.com/css?family=Computer+Modern&quot; style=&quot;font-size: 40px;&quot;&gt;&lt;font face=&quot;Computer Modern&quot;&gt;&amp;nbsp; &amp;nbsp; &amp;nbsp;control variable&amp;nbsp;&lt;/font&gt;&lt;i style=&quot;&quot;&gt;&lt;b style=&quot;&quot;&gt;&lt;font face=&quot;Computer Modern Roman&quot; data-font-src=&quot;https://fonts.googleapis.com/css?family=Computer+Modern+Roman&quot;&gt;y&amp;nbsp; &amp;nbsp; &amp;nbsp;&amp;nbsp;&lt;/font&gt;&lt;/b&gt;&lt;/i&gt;&lt;/font&gt;" style="text;html=1;align=center;verticalAlign=middle;resizable=0;points=[];autosize=1;strokeColor=none;fillColor=none;labelBackgroundColor=default;fontColor=#000000;" vertex="1" parent="1">
          <mxGeometry x="1060" y="210" width="410" height="60" as="geometry" />
        </mxCell>
        <mxCell id="RC3qw60LJG133xvtzrwB-19" value="&lt;font color=&quot;#105fca&quot; data-font-src=&quot;https://fonts.googleapis.com/css?family=Computer+Modern&quot; style=&quot;font-size: 40px;&quot;&gt;&lt;font style=&quot;&quot; face=&quot;Computer Modern&quot;&gt;&amp;nbsp;control action&amp;nbsp;&lt;/font&gt;&lt;i style=&quot;&quot;&gt;&lt;b style=&quot;&quot;&gt;&lt;font style=&quot;&quot; face=&quot;Computer Modern Roman&quot; data-font-src=&quot;https://fonts.googleapis.com/css?family=Computer+Modern+Roman&quot;&gt;u&amp;nbsp; &amp;nbsp; &amp;nbsp; &amp;nbsp; &amp;nbsp;&amp;nbsp;&lt;/font&gt;&lt;/b&gt;&lt;/i&gt;&lt;/font&gt;" style="text;html=1;align=center;verticalAlign=middle;resizable=0;points=[];autosize=1;strokeColor=none;fillColor=none;labelBackgroundColor=default;fontColor=#000000;" vertex="1" parent="1">
          <mxGeometry x="1096" y="328" width="390" height="60" as="geometry" />
        </mxCell>
        <mxCell id="RC3qw60LJG133xvtzrwB-20" value="&lt;font face=&quot;Computer Modern&quot; color=&quot;#808080&quot;&gt;&lt;span style=&quot;font-size: 40px;&quot;&gt;&lt;i&gt;&amp;nbsp;k&amp;nbsp;&lt;/i&gt;&lt;/span&gt;&lt;/font&gt;" style="text;html=1;align=center;verticalAlign=middle;resizable=0;points=[];autosize=1;strokeColor=none;fillColor=none;labelBackgroundColor=default;fontColor=#000000;" vertex="1" parent="1">
          <mxGeometry x="453" y="485" width="60" height="60" as="geometry" />
        </mxCell>
        <mxCell id="RC3qw60LJG133xvtzrwB-21" value="&lt;font face=&quot;Computer Modern&quot; color=&quot;#808080&quot;&gt;&lt;span style=&quot;font-size: 40px;&quot;&gt;&lt;i&gt;&amp;nbsp; &amp;nbsp; k + N&amp;nbsp; &amp;nbsp;&lt;/i&gt;&lt;/span&gt;&lt;/font&gt;" style="text;html=1;align=center;verticalAlign=middle;resizable=0;points=[];autosize=1;strokeColor=none;fillColor=none;labelBackgroundColor=default;fontColor=#000000;" vertex="1" parent="1">
          <mxGeometry x="592" y="485" width="180" height="60" as="geometry" />
        </mxCell>
        <mxCell id="RC3qw60LJG133xvtzrwB-22" value="&lt;font color=&quot;#808080&quot; size=&quot;1&quot; face=&quot;Computer Modern&quot;&gt;&lt;sub style=&quot;font-size: 20px;&quot;&gt;1&lt;/sub&gt;&lt;/font&gt;" style="text;html=1;align=center;verticalAlign=middle;resizable=0;points=[];autosize=1;strokeColor=none;fillColor=none;labelBackgroundColor=default;fontColor=#000000;" vertex="1" parent="1">
          <mxGeometry x="722" y="506" width="30" height="40" as="geometry" />
        </mxCell>
        <mxCell id="RC3qw60LJG133xvtzrwB-23" value="&lt;font face=&quot;Computer Modern&quot; color=&quot;#808080&quot;&gt;&lt;span style=&quot;font-size: 40px;&quot;&gt;&lt;i&gt;&amp;nbsp; &amp;nbsp; k + N&amp;nbsp; &amp;nbsp;&lt;/i&gt;&lt;/span&gt;&lt;/font&gt;" style="text;html=1;align=center;verticalAlign=middle;resizable=0;points=[];autosize=1;strokeColor=none;fillColor=none;labelBackgroundColor=default;fontColor=#000000;" vertex="1" parent="1">
          <mxGeometry x="1063" y="486" width="180" height="60" as="geometry" />
        </mxCell>
        <mxCell id="RC3qw60LJG133xvtzrwB-24" value="&lt;font color=&quot;#808080&quot; size=&quot;1&quot; face=&quot;Computer Modern&quot;&gt;&lt;sub style=&quot;font-size: 20px;&quot;&gt;u&lt;/sub&gt;&lt;/font&gt;" style="text;html=1;align=center;verticalAlign=middle;resizable=0;points=[];autosize=1;strokeColor=none;fillColor=none;labelBackgroundColor=default;fontColor=#000000;" vertex="1" parent="1">
          <mxGeometry x="1193" y="507" width="30" height="40" as="geometry" />
        </mxCell>
        <mxCell id="RC3qw60LJG133xvtzrwB-25" value="&lt;font face=&quot;Computer Modern&quot; color=&quot;#808080&quot;&gt;&lt;span style=&quot;font-size: 40px;&quot;&gt;&lt;i&gt;&amp;nbsp; &amp;nbsp; k + N&amp;nbsp; &amp;nbsp;&lt;/i&gt;&lt;/span&gt;&lt;/font&gt;" style="text;html=1;align=center;verticalAlign=middle;resizable=0;points=[];autosize=1;strokeColor=none;fillColor=none;labelBackgroundColor=default;fontColor=#000000;" vertex="1" parent="1">
          <mxGeometry x="1331" y="487" width="180" height="60" as="geometry" />
        </mxCell>
        <mxCell id="RC3qw60LJG133xvtzrwB-26" value="&lt;font color=&quot;#808080&quot; size=&quot;1&quot; face=&quot;Computer Modern&quot;&gt;&lt;sub style=&quot;font-size: 20px;&quot;&gt;2&lt;/sub&gt;&lt;/font&gt;" style="text;html=1;align=center;verticalAlign=middle;resizable=0;points=[];autosize=1;strokeColor=none;fillColor=none;labelBackgroundColor=default;fontColor=#000000;" vertex="1" parent="1">
          <mxGeometry x="1461" y="508" width="30" height="40" as="geometry" />
        </mxCell>
        <mxCell id="RC3qw60LJG133xvtzrwB-27" value="&lt;font data-font-src=&quot;https://fonts.googleapis.com/css?family=Computer+Modern&quot; style=&quot;font-size: 40px;&quot;&gt;&lt;font face=&quot;Computer Modern&quot;&gt;&amp;nbsp; sample time&amp;nbsp;&lt;/font&gt;&lt;i style=&quot;&quot;&gt;&lt;b style=&quot;&quot;&gt;&lt;font face=&quot;Computer Modern Roman&quot; data-font-src=&quot;https://fonts.googleapis.com/css?family=Computer+Modern+Roman&quot;&gt;T&lt;sub&gt;s&lt;/sub&gt;&lt;/font&gt;&lt;/b&gt;&lt;/i&gt;&lt;/font&gt;" style="text;html=1;align=center;verticalAlign=middle;resizable=0;points=[];autosize=1;strokeColor=none;fillColor=none;labelBackgroundColor=default;fontColor=#000000;" vertex="1" parent="1">
          <mxGeometry x="768" y="113" width="290" height="70" as="geometry" />
        </mxCell>
        <mxCell id="RC3qw60LJG133xvtzrwB-28" value="" style="endArrow=baseDash;startArrow=baseDash;html=1;rounded=0;startFill=0;endFill=0;strokeWidth=2;endSize=9;startSize=9;" edge="1" parent="1">
          <mxGeometry width="50" height="50" relative="1" as="geometry">
            <mxPoint x="884" y="175" as="sourcePoint" />
            <mxPoint x="951" y="175" as="targetPoint" />
          </mxGeometry>
        </mxCell>
      </root>
    </mxGraphModel>
  </diagram>
</mxfile>
